<?xml version="1.0" standalone="no"?>
<!DOCTYPE svg PUBLIC "-//W3C//DTD SVG 1.1//EN" "http://www.w3.org/Graphics/SVG/1.1/DTD/svg11.dtd" >
<svg>
<metadata>
Created by FontForge 20090914 at Tue Aug 13 17:07:04 2013
 By www-data
Copyright (c) 2010-2011 by Software Industry Promotion Agency (Public Organization) (SIPA). All rights reserved.
Created by : Suppakit CHALERMLARP.
</metadata>
<defs>
<font id="THSarabunNew-BoldItalic" horiz-adv-x="0" >
  <font-face 
    font-family="TH Sarabun New"
    font-weight="700"
    font-style="italic"
    font-stretch="normal"
    units-per-em="1000"
    panose-1="2 11 5 0 4 2 0 2 0 3"
    ascent="800"
    descent="-200"
    x-height="340"
    cap-height="476"
    bbox="-407.001 -480.999 947.001 844.001"
    underline-thickness="30"
    underline-position="-20"
    slope="-12"
    unicode-range="U+0020-U+FB02"
  />
<missing-glyph horiz-adv-x="698" 
d="M645 0h-592v809h592v-809zM609 31v747h-520v-747h520z" />
    <glyph glyph-name="Agrave" unicode="A&#x300;" horiz-adv-x="451" 
d="M408 0h-69l-30 159h-191l-95 -159h-68l302 483h54zM297 213l-28 198l-116 -198h144zM357 521h-48l-63 97l61 18z" />
    <glyph glyph-name="Aacute" unicode="A&#x301;" horiz-adv-x="451" 
d="M408 0h-69l-30 159h-191l-95 -159h-68l302 483h54zM297 213l-28 198l-116 -198h144zM325 636l53 -18l-105 -97h-48z" />
    <glyph glyph-name="Atilde" unicode="A&#x303;" horiz-adv-x="451" 
d="M408 0h-69l-30 159h-191l-95 -159h-68l302 483h54zM297 213l-28 198l-116 -198h144zM405 592c-5.33301 -23.333 -14.1699 -41.8311 -26.5029 -55.498s-28.166 -20.5 -47.499 -20.5c-5.33301 0 -11.5 1.5 -18.5 4.5s-14.167 6.33301 -21.5 10s-14.5 7 -21.5 10
s-12.833 4.5 -17.5 4.5c-5.33301 0 -9.16602 -2.5 -11.499 -7.5s-4.16602 -10.5 -5.49902 -16.5h-44c4.66699 20 13.167 36.833 25.5 50.5s27.5 20.5 45.5 20.5c6 0 12.667 -1.33301 20 -4s14.166 -5.83398 20.499 -9.50098s12.833 -6.83398 19.5 -9.50098
s12.334 -4 17.001 -4c12.667 0 20.667 9 24 27h42z" />
    <glyph glyph-name="Egrave" unicode="E&#x300;" horiz-adv-x="358" 
d="M289 0h-283l101 476h283l-12 -54h-220l-30 -144h196l-12 -54h-196l-36 -170h220zM311 521h-48l-63 97l61 18z" />
    <glyph glyph-name="Eacute" unicode="E&#x301;" horiz-adv-x="358" 
d="M289 0h-283l101 476h283l-12 -54h-220l-30 -144h196l-12 -54h-196l-36 -170h220zM279 636l53 -18l-105 -97h-48z" />
    <glyph glyph-name="Igrave" unicode="I&#x300;" horiz-adv-x="163" 
d="M69 0h-63l101 476h63zM213 521h-48l-63 97l61 18z" />
    <glyph glyph-name="Iacute" unicode="I&#x301;" horiz-adv-x="163" 
d="M69 0h-63l101 476h63zM181 636l53 -18l-105 -97h-48z" />
    <glyph glyph-name="Ograve" unicode="O&#x300;" horiz-adv-x="518" 
d="M436 238c12 54.667 6.16992 100.5 -17.4971 137.5s-61.167 55.5 -112.5 55.5s-96.5 -18.5 -135.5 -55.5s-64.5 -82.833 -76.5 -137.5c-11.333 -54.667 -5.33301 -100.5 18 -137.5s60.666 -55.5 111.999 -55.5s96.666 18.5 135.999 55.5s64.666 82.833 75.999 137.5z
M498.003 237c-14.667 -70 -48.834 -128.667 -102.501 -176s-114.834 -71 -183.501 -71s-119.5 23.667 -152.5 71s-42.167 106 -27.5 176s48.834 128.833 102.501 176.5s114.834 71.5 183.501 71.5s119.5 -23.833 152.5 -71.5s42.167 -106.5 27.5 -176.5zM391.003 521h-48
l-63 97l61 18z" />
    <glyph glyph-name="Oacute" unicode="O&#x301;" horiz-adv-x="518" 
d="M436 238c12 54.667 6.16992 100.5 -17.4971 137.5s-61.167 55.5 -112.5 55.5s-96.5 -18.5 -135.5 -55.5s-64.5 -82.833 -76.5 -137.5c-11.333 -54.667 -5.33301 -100.5 18 -137.5s60.666 -55.5 111.999 -55.5s96.666 18.5 135.999 55.5s64.666 82.833 75.999 137.5z
M498.003 237c-14.667 -70 -48.834 -128.667 -102.501 -176s-114.834 -71 -183.501 -71s-119.5 23.667 -152.5 71s-42.167 106 -27.5 176s48.834 128.833 102.501 176.5s114.834 71.5 183.501 71.5s119.5 -23.833 152.5 -71.5s42.167 -106.5 27.5 -176.5zM359.003 636l53 -18
l-105 -97h-48z" />
    <glyph glyph-name="Otilde" unicode="O&#x303;" horiz-adv-x="518" 
d="M436 238c12 54.667 6.16992 100.5 -17.4971 137.5s-61.167 55.5 -112.5 55.5s-96.5 -18.5 -135.5 -55.5s-64.5 -82.833 -76.5 -137.5c-11.333 -54.667 -5.33301 -100.5 18 -137.5s60.666 -55.5 111.999 -55.5s96.666 18.5 135.999 55.5s64.666 82.833 75.999 137.5z
M498.003 237c-14.667 -70 -48.834 -128.667 -102.501 -176s-114.834 -71 -183.501 -71s-119.5 23.667 -152.5 71s-42.167 106 -27.5 176s48.834 128.833 102.501 176.5s114.834 71.5 183.501 71.5s119.5 -23.833 152.5 -71.5s42.167 -106.5 27.5 -176.5zM439.003 592
c-5.33301 -23.333 -14.1699 -41.8311 -26.5029 -55.498s-28.166 -20.5 -47.499 -20.5c-5.33301 0 -11.5 1.5 -18.5 4.5s-14.167 6.33301 -21.5 10s-14.5 7 -21.5 10s-12.833 4.5 -17.5 4.5c-5.33301 0 -9.16602 -2.5 -11.499 -7.5s-4.16602 -10.5 -5.49902 -16.5h-44
c4.66699 20 13.167 36.833 25.5 50.5s27.5 20.5 45.5 20.5c6 0 12.667 -1.33301 20 -4s14.166 -5.83398 20.499 -9.50098s12.833 -6.83398 19.5 -9.50098s12.334 -4 17.001 -4c12.667 0 20.667 9 24 27h42z" />
    <glyph glyph-name="Ugrave" unicode="U&#x300;" horiz-adv-x="482" 
d="M431 203c-30 -141.333 -108.668 -212 -236.001 -212s-176 70.667 -146 212l58 273h64l-58 -273c-22.667 -105.333 8.33301 -158 93 -158s138.334 52.667 161.001 158l58 273h64zM371.999 521h-48l-63 97l61 18z" />
    <glyph glyph-name="Uacute" unicode="U&#x301;" horiz-adv-x="482" 
d="M431 203c-30 -141.333 -108.668 -212 -236.001 -212s-176 70.667 -146 212l58 273h64l-58 -273c-22.667 -105.333 8.33301 -158 93 -158s138.334 52.667 161.001 158l58 273h64zM339.999 636l53 -18l-105 -97h-48z" />
    <glyph glyph-name="Yacute" unicode="Y&#x301;" horiz-adv-x="396" 
d="M186 0h-62l44 208l-117 268h73l86 -214l177 214h72l-229 -267zM298 636l53 -18l-105 -97h-48z" />
    <glyph glyph-name="agrave" unicode="a&#x300;" horiz-adv-x="431" 
d="M366 4l-63.001 -12c-8 10.667 -13 30 -15 58c-32.667 -39.333 -76 -59 -130 -59c-42 0 -76.5 12.667 -103.5 38s-40.5 59 -40.5 101c0 60 20.5 112.167 61.5 156.5s91.5 66.5 151.5 66.5c74 0 130.667 -21 170 -63l-42 -199c-5.33301 -32 -1.66602 -61 11.001 -87z
M303.999 142l25 119.999c-26 26 -62 39 -108 39c-39.333 0 -73.5 -16.167 -102.5 -48.5s-43.5 -70.166 -43.5 -113.499c0 -62 32 -93 96 -93c31.333 0 60 9.5 86 28.5s41.667 41.5 47 67.5zM315.999 384.999h-48l-63 97l61 18z" />
    <glyph glyph-name="aacute" unicode="a&#x301;" horiz-adv-x="431" 
d="M366 4l-63.001 -12c-8 10.667 -13 30 -15 58c-32.667 -39.333 -76 -59 -130 -59c-42 0 -76.5 12.667 -103.5 38s-40.5 59 -40.5 101c0 60 20.5 112.167 61.5 156.5s91.5 66.5 151.5 66.5c74 0 130.667 -21 170 -63l-42 -199c-5.33301 -32 -1.66602 -61 11.001 -87z
M303.999 142l25 119.999c-26 26 -62 39 -108 39c-39.333 0 -73.5 -16.167 -102.5 -48.5s-43.5 -70.166 -43.5 -113.499c0 -62 32 -93 96 -93c31.333 0 60 9.5 86 28.5s41.667 41.5 47 67.5zM305.999 499.999l53 -18l-105 -97h-48z" />
    <glyph glyph-name="atilde" unicode="a&#x303;" horiz-adv-x="431" 
d="M366 4l-63.001 -12c-8 10.667 -13 30 -15 58c-32.667 -39.333 -76 -59 -130 -59c-42 0 -76.5 12.667 -103.5 38s-40.5 59 -40.5 101c0 60 20.5 112.167 61.5 156.5s91.5 66.5 151.5 66.5c74 0 130.667 -21 170 -63l-42 -199c-5.33301 -32 -1.66602 -61 11.001 -87z
M303.999 142l25 119.999c-26 26 -62 39 -108 39c-39.333 0 -73.5 -16.167 -102.5 -48.5s-43.5 -70.166 -43.5 -113.499c0 -62 32 -93 96 -93c31.333 0 60 9.5 86 28.5s41.667 41.5 47 67.5zM364.999 455.999c-5.33301 -23.333 -14.1699 -41.8311 -26.5029 -55.498
s-28.166 -20.5 -47.499 -20.5c-5.33301 0 -11.5 1.5 -18.5 4.5s-14.167 6.33301 -21.5 10s-14.5 7 -21.5 10s-12.833 4.5 -17.5 4.5c-5.33301 0 -9.16602 -2.5 -11.499 -7.5s-4.16602 -10.5 -5.49902 -16.5h-44c4.66699 20 13.167 36.833 25.5 50.5s27.5 20.5 45.5 20.5
c6 0 12.667 -1.33301 20 -4s14.166 -5.83398 20.499 -9.50098s12.833 -6.83398 19.5 -9.50098s12.334 -4 17.001 -4c12.667 0 20.667 9 24 27h42z" />
    <glyph glyph-name="egrave" unicode="e&#x300;" horiz-adv-x="391" 
d="M362 246c0 -34 -17.666 -60.001 -52.999 -78.001c-30 -15.333 -67.333 -23 -112 -23c-40.667 0 -80.667 2.66699 -120 8c-0.666992 -4 -1 -8 -1 -12c0 -30 9.66699 -53.167 29 -69.5s44.666 -24.5 75.999 -24.5c36 0 80.667 8.66699 134 26l-5 -55
c-52 -18 -100 -27 -144 -27c-46 0 -83.167 11.833 -111.5 35.5s-42.5 55.834 -42.5 96.501c0 64 22.667 118.333 68 163s98.333 67 159 67c82 0 123 -35.667 123 -107zM308.001 246.999c0 36 -26.001 54 -78.001 54c-27.333 0 -55.166 -10 -83.499 -30
s-47.833 -44.333 -58.5 -73c18.667 -4.66699 50.667 -7 96 -7c82.667 0 124 18.667 124 56zM299 384.999h-48l-63 97l61 18z" />
    <glyph glyph-name="eacute" unicode="e&#x301;" horiz-adv-x="391" 
d="M362 246c0 -34 -17.666 -60.001 -52.999 -78.001c-30 -15.333 -67.333 -23 -112 -23c-40.667 0 -80.667 2.66699 -120 8c-0.666992 -4 -1 -8 -1 -12c0 -30 9.66699 -53.167 29 -69.5s44.666 -24.5 75.999 -24.5c36 0 80.667 8.66699 134 26l-5 -55
c-52 -18 -100 -27 -144 -27c-46 0 -83.167 11.833 -111.5 35.5s-42.5 55.834 -42.5 96.501c0 64 22.667 118.333 68 163s98.333 67 159 67c82 0 123 -35.667 123 -107zM308.001 246.999c0 36 -26.001 54 -78.001 54c-27.333 0 -55.166 -10 -83.499 -30
s-47.833 -44.333 -58.5 -73c18.667 -4.66699 50.667 -7 96 -7c82.667 0 124 18.667 124 56zM267 499.999l53 -18l-105 -97h-48z" />
    <glyph glyph-name="igrave" unicode="i&#x300;" horiz-adv-x="163" 
d="M69 0h-63l72 340h63zM185 385h-48l-63 97l61 18z" />
    <glyph glyph-name="iacute" unicode="i&#x301;" horiz-adv-x="163" 
d="M69 0h-63l72 340h63zM153 500l53 -18l-105 -97h-48z" />
    <glyph glyph-name="ograve" unicode="o&#x300;" horiz-adv-x="412" 
d="M378 172c-10.667 -50.667 -36.667 -93.334 -78 -128.001s-88 -52 -140 -52s-91.333 17.333 -118 52s-34.667 77.334 -24 128.001s36.834 93.5 78.501 128.5s88.5 52.5 140.5 52.5s91.167 -17.5 117.5 -52.5s34.166 -77.833 23.499 -128.5zM316 172
c8 36 3.49902 66.167 -13.501 90.5s-42.833 36.5 -77.5 36.5s-65.5 -12.167 -92.5 -36.5s-44.5 -54.5 -52.5 -90.5c-7.33301 -36 -2.66602 -66.167 14.001 -90.5s42.334 -36.5 77.001 -36.5s65.667 12.167 93 36.5s44.666 54.5 51.999 90.5zM309.999 385h-48l-63 97l61 18z
" />
    <glyph glyph-name="oacute" unicode="o&#x301;" horiz-adv-x="412" 
d="M378 172c-10.667 -50.667 -36.667 -93.334 -78 -128.001s-88 -52 -140 -52s-91.333 17.333 -118 52s-34.667 77.334 -24 128.001s36.834 93.5 78.501 128.5s88.5 52.5 140.5 52.5s91.167 -17.5 117.5 -52.5s34.166 -77.833 23.499 -128.5zM316 172
c8 36 3.49902 66.167 -13.501 90.5s-42.833 36.5 -77.5 36.5s-65.5 -12.167 -92.5 -36.5s-44.5 -54.5 -52.5 -90.5c-7.33301 -36 -2.66602 -66.167 14.001 -90.5s42.334 -36.5 77.001 -36.5s65.667 12.167 93 36.5s44.666 54.5 51.999 90.5zM277.999 500l53 -18l-105 -97
h-48z" />
    <glyph glyph-name="otilde" unicode="o&#x303;" horiz-adv-x="412" 
d="M378 172c-10.667 -50.667 -36.667 -93.334 -78 -128.001s-88 -52 -140 -52s-91.333 17.333 -118 52s-34.667 77.334 -24 128.001s36.834 93.5 78.501 128.5s88.5 52.5 140.5 52.5s91.167 -17.5 117.5 -52.5s34.166 -77.833 23.499 -128.5zM316 172
c8 36 3.49902 66.167 -13.501 90.5s-42.833 36.5 -77.5 36.5s-65.5 -12.167 -92.5 -36.5s-44.5 -54.5 -52.5 -90.5c-7.33301 -36 -2.66602 -66.167 14.001 -90.5s42.334 -36.5 77.001 -36.5s65.667 12.167 93 36.5s44.666 54.5 51.999 90.5zM357.999 456
c-5.33301 -23.333 -14.1699 -41.8311 -26.5029 -55.498s-28.166 -20.5 -47.499 -20.5c-5.33301 0 -11.5 1.5 -18.5 4.5s-14.167 6.33301 -21.5 10s-14.5 7 -21.5 10s-12.833 4.5 -17.5 4.5c-5.33301 0 -9.16602 -2.5 -11.499 -7.5s-4.16602 -10.5 -5.49902 -16.5h-44
c4.66699 20 13.167 36.833 25.5 50.5s27.5 20.5 45.5 20.5c6 0 12.667 -1.33301 20 -4s14.166 -5.83398 20.499 -9.50098s12.833 -6.83398 19.5 -9.50098s12.334 -4 17.001 -4c12.667 0 20.667 9 24 27h42z" />
    <glyph glyph-name="ugrave" unicode="u&#x300;" horiz-adv-x="418" 
d="M354 4l-62.999 -11.999c-8 10.667 -13 30 -15 58c-48.667 -39.333 -92.334 -59 -131.001 -59c-76 0 -114 35 -114 105c0 17.333 2.33301 36.666 7 57.999l24 111c2 9.33301 3 19 3 29c0 14.667 -2 29.334 -6 44.001l60 12c6 -18 9 -36 9 -54
c0 -12.667 -1.33301 -25.334 -4 -38.001l-21 -98c-4 -18.667 -6 -33.667 -6 -45c0 -45.333 22.333 -68 67 -68c24.667 0 50.5 9.5 77.5 28.5s43.167 40.167 48.5 63.5l43 201h63l-53 -249c-1.33301 -6 -2 -13 -2 -21c0 -20 4.33301 -42 13 -66zM313.001 385.001h-48l-63 97
l61 18z" />
    <glyph glyph-name="uacute" unicode="u&#x301;" horiz-adv-x="418" 
d="M354 4l-62.999 -11.999c-8 10.667 -13 30 -15 58c-48.667 -39.333 -92.334 -59 -131.001 -59c-76 0 -114 35 -114 105c0 17.333 2.33301 36.666 7 57.999l24 111c2 9.33301 3 19 3 29c0 14.667 -2 29.334 -6 44.001l60 12c6 -18 9 -36 9 -54
c0 -12.667 -1.33301 -25.334 -4 -38.001l-21 -98c-4 -18.667 -6 -33.667 -6 -45c0 -45.333 22.333 -68 67 -68c24.667 0 50.5 9.5 77.5 28.5s43.167 40.167 48.5 63.5l43 201h63l-53 -249c-1.33301 -6 -2 -13 -2 -21c0 -20 4.33301 -42 13 -66zM281.001 500.001l53 -18
l-105 -97h-48z" />
    <glyph glyph-name="yacute" unicode="y&#x301;" horiz-adv-x="361" 
d="M165 7c-60.667 -88.667 -130.333 -141.332 -209 -157.999l-5 52c62 13.333 114.333 54.666 157 123.999l-84 315h69l64 -252l166 252h69zM252.001 500.002l53 -18l-105 -97h-48z" />
    <glyph glyph-name="Itilde" unicode="I&#x303;" horiz-adv-x="163" 
d="M69 0h-63l101 476h63zM263 592c-5.33301 -23.333 -14.1699 -41.8311 -26.5029 -55.498s-28.166 -20.5 -47.499 -20.5c-5.33301 0 -11.5 1.5 -18.5 4.5s-14.167 6.33301 -21.5 10s-14.5 7 -21.5 10s-12.833 4.5 -17.5 4.5c-5.33301 0 -9.16602 -2.5 -11.499 -7.5
s-4.16602 -10.5 -5.49902 -16.5h-44c4.66699 20 13.167 36.833 25.5 50.5s27.5 20.5 45.5 20.5c6 0 12.667 -1.33301 20 -4s14.166 -5.83398 20.499 -9.50098s12.833 -6.83398 19.5 -9.50098s12.334 -4 17.001 -4c12.667 0 20.667 9 24 27h42z" />
    <glyph glyph-name="itilde" unicode="i&#x303;" horiz-adv-x="163" 
d="M69 0h-63l72 340h63zM233 456c-5.33301 -23.333 -14.1699 -41.8311 -26.5029 -55.498s-28.166 -20.5 -47.499 -20.5c-5.33301 0 -11.5 1.5 -18.5 4.5s-14.167 6.33301 -21.5 10s-14.5 7 -21.5 10s-12.833 4.5 -17.5 4.5c-5.33301 0 -9.16602 -2.5 -11.499 -7.5
s-4.16602 -10.5 -5.49902 -16.5h-44c4.66699 20 13.167 36.833 25.5 50.5s27.5 20.5 45.5 20.5c6 0 12.667 -1.33301 20 -4s14.166 -5.83398 20.499 -9.50098s12.833 -6.83398 19.5 -9.50098s12.334 -4 17.001 -4c12.667 0 20.667 9 24 27h42z" />
    <glyph glyph-name="Utilde" unicode="U&#x303;" horiz-adv-x="482" 
d="M431 203c-30 -141.333 -108.668 -212 -236.001 -212s-176 70.667 -146 212l58 273h64l-58 -273c-22.667 -105.333 8.33301 -158 93 -158s138.334 52.667 161.001 158l58 273h64zM420.999 592c-5.33301 -23.333 -14.1699 -41.8311 -26.5029 -55.498
s-28.166 -20.5 -47.499 -20.5c-5.33301 0 -11.5 1.5 -18.5 4.5s-14.167 6.33301 -21.5 10s-14.5 7 -21.5 10s-12.833 4.5 -17.5 4.5c-5.33301 0 -9.16602 -2.5 -11.499 -7.5s-4.16602 -10.5 -5.49902 -16.5h-44c4.66699 20 13.167 36.833 25.5 50.5s27.5 20.5 45.5 20.5
c6 0 12.667 -1.33301 20 -4s14.166 -5.83398 20.499 -9.50098s12.833 -6.83398 19.5 -9.50098s12.334 -4 17.001 -4c12.667 0 20.667 9 24 27h42z" />
    <glyph glyph-name="utilde" unicode="u&#x303;" horiz-adv-x="418" 
d="M354 4l-62.999 -11.999c-8 10.667 -13 30 -15 58c-48.667 -39.333 -92.334 -59 -131.001 -59c-76 0 -114 35 -114 105c0 17.333 2.33301 36.666 7 57.999l24 111c2 9.33301 3 19 3 29c0 14.667 -2 29.334 -6 44.001l60 12c6 -18 9 -36 9 -54
c0 -12.667 -1.33301 -25.334 -4 -38.001l-21 -98c-4 -18.667 -6 -33.667 -6 -45c0 -45.333 22.333 -68 67 -68c24.667 0 50.5 9.5 77.5 28.5s43.167 40.167 48.5 63.5l43 201h63l-53 -249c-1.33301 -6 -2 -13 -2 -21c0 -20 4.33301 -42 13 -66zM361.001 456.001
c-5.33301 -23.333 -14.1699 -41.8311 -26.5029 -55.498s-28.166 -20.5 -47.499 -20.5c-5.33301 0 -11.5 1.5 -18.5 4.5s-14.167 6.33301 -21.5 10s-14.5 7 -21.5 10s-12.833 4.5 -17.5 4.5c-5.33301 0 -9.16602 -2.5 -11.499 -7.5s-4.16602 -10.5 -5.49902 -16.5h-44
c4.66699 20 13.167 36.833 25.5 50.5s27.5 20.5 45.5 20.5c6 0 12.667 -1.33301 20 -4s14.166 -5.83398 20.499 -9.50098s12.833 -6.83398 19.5 -9.50098s12.334 -4 17.001 -4c12.667 0 20.667 9 24 27h42z" />
    <glyph glyph-name="uni1EA0" unicode="A&#x323;" horiz-adv-x="451" 
d="M408 0h-69l-30 159h-191l-95 -159h-68l302 483h54zM297 213l-28 198l-116 -198h144zM207 -96c-2.66699 -13.333 -9.66602 -24.666 -20.999 -33.999s-23.333 -14 -36 -14s-22.5 4.66699 -29.5 14s-9.16699 20.666 -6.5 33.999s9.5 24.666 20.5 33.999s22.833 14 35.5 14
s22.667 -4.66699 30 -14s9.66602 -20.666 6.99902 -33.999z" />
    <glyph glyph-name="uni1EA1" unicode="a&#x323;" horiz-adv-x="431" 
d="M366 4l-63.001 -12c-8 10.667 -13 30 -15 58c-32.667 -39.333 -76 -59 -130 -59c-42 0 -76.5 12.667 -103.5 38s-40.5 59 -40.5 101c0 60 20.5 112.167 61.5 156.5s91.5 66.5 151.5 66.5c74 0 130.667 -21 170 -63l-42 -199c-5.33301 -32 -1.66602 -61 11.001 -87z
M303.999 142l25 119.999c-26 26 -62 39 -108 39c-39.333 0 -73.5 -16.167 -102.5 -48.5s-43.5 -70.166 -43.5 -113.499c0 -62 32 -93 96 -93c31.333 0 60 9.5 86 28.5s41.667 41.5 47 67.5zM212.999 -96.001c-2.66699 -13.333 -9.66602 -24.666 -20.999 -33.999
s-23.333 -14 -36 -14s-22.5 4.66699 -29.5 14s-9.16699 20.666 -6.5 33.999s9.5 24.666 20.5 33.999s22.833 14 35.5 14s22.667 -4.66699 30 -14s9.66602 -20.666 6.99902 -33.999z" />
    <glyph glyph-name="uni1EA2" unicode="A&#x309;" horiz-adv-x="451" 
d="M408 0h-69l-30 159h-191l-95 -159h-68l302 483h54zM297 213l-28 198l-116 -198h144zM389 613c-2.66699 -11.333 -7.83594 -21.502 -15.5029 -30.502s-15.667 -17.5 -24 -25.5l-23.5 -23.5c-7.33301 -7.66699 -12 -15.834 -14 -24.501h-45c2 10.667 7 20.334 15 29.001
s16.5 16.834 25.5 24.501s17.167 15.167 24.5 22.5s12 15 14 23c2.66699 11.333 1.83398 18.833 -2.49902 22.5s-10.833 5.5 -19.5 5.5c-11.333 0 -22.166 -3.66699 -32.499 -11s-17.166 -13 -20.499 -17l-21 22c7.33301 10.667 18.333 20.834 33 30.501
s32.667 14.5 54 14.5c19.333 0 34 -5 44 -15s12.667 -25.667 8 -47z" />
    <glyph glyph-name="uni1EA3" unicode="a&#x309;" horiz-adv-x="431" 
d="M366 4l-63.001 -12c-8 10.667 -13 30 -15 58c-32.667 -39.333 -76 -59 -130 -59c-42 0 -76.5 12.667 -103.5 38s-40.5 59 -40.5 101c0 60 20.5 112.167 61.5 156.5s91.5 66.5 151.5 66.5c74 0 130.667 -21 170 -63l-42 -199c-5.33301 -32 -1.66602 -61 11.001 -87z
M303.999 142l25 119.999c-26 26 -62 39 -108 39c-39.333 0 -73.5 -16.167 -102.5 -48.5s-43.5 -70.166 -43.5 -113.499c0 -62 32 -93 96 -93c31.333 0 60 9.5 86 28.5s41.667 41.5 47 67.5zM370.999 476.999c-2.66699 -11.333 -7.83594 -21.502 -15.5029 -30.502
s-15.667 -17.5 -24 -25.5l-23.5 -23.5c-7.33301 -7.66699 -12 -15.834 -14 -24.501h-45c2 10.667 7 20.334 15 29.001s16.5 16.834 25.5 24.501s17.167 15.167 24.5 22.5s12 15 14 23c2.66699 11.333 1.83398 18.833 -2.49902 22.5s-10.833 5.5 -19.5 5.5
c-11.333 0 -22.166 -3.66699 -32.499 -11s-17.166 -13 -20.499 -17l-21 22c7.33301 10.667 18.333 20.834 33 30.501s32.667 14.5 54 14.5c19.333 0 34 -5 44 -15s12.667 -25.667 8 -47z" />
    <glyph glyph-name="uni1EA4" unicode="&#xc2;&#x301;" horiz-adv-x="451" 
d="M408 0h-69l-30 159h-191l-95 -159h-68l302 483h54zM297 213l-28 198l-116 -198h144zM386 521h-54l-26 71l-55 -71h-55l103 115h35zM478 720l53 -18l-105 -97h-48z" />
    <glyph glyph-name="uni1EA5" unicode="&#xe2;&#x301;" horiz-adv-x="431" 
d="M366 4l-63.001 -12c-8 10.667 -13 30 -15 58c-32.667 -39.333 -76 -59 -130 -59c-42 0 -76.5 12.667 -103.5 38s-40.5 59 -40.5 101c0 60 20.5 112.167 61.5 156.5s91.5 66.5 151.5 66.5c74 0 130.667 -21 170 -63l-42 -199c-5.33301 -32 -1.66602 -61 11.001 -87z
M303.999 142l25 119.999c-26 26 -62 39 -108 39c-39.333 0 -73.5 -16.167 -102.5 -48.5s-43.5 -70.166 -43.5 -113.499c0 -62 32 -93 96 -93c31.333 0 60 9.5 86 28.5s41.667 41.5 47 67.5zM354.999 384.999h-54l-26 71l-55 -71h-55l103 115h35zM451.999 591.999l53 -18
l-105 -97h-48z" />
    <glyph glyph-name="uni1EA6" unicode="&#xc2;&#x300;" horiz-adv-x="451" 
d="M408 0h-69l-30 159h-191l-95 -159h-68l302 483h54zM297 213l-28 198l-116 -198h144zM386 521h-54l-26 71l-55 -71h-55l103 115h35zM485 605h-48l-63 97l61 18z" />
    <glyph glyph-name="uni1EA7" unicode="&#xe2;&#x300;" horiz-adv-x="431" 
d="M366 4l-63.001 -12c-8 10.667 -13 30 -15 58c-32.667 -39.333 -76 -59 -130 -59c-42 0 -76.5 12.667 -103.5 38s-40.5 59 -40.5 101c0 60 20.5 112.167 61.5 156.5s91.5 66.5 151.5 66.5c74 0 130.667 -21 170 -63l-42 -199c-5.33301 -32 -1.66602 -61 11.001 -87z
M303.999 142l25 119.999c-26 26 -62 39 -108 39c-39.333 0 -73.5 -16.167 -102.5 -48.5s-43.5 -70.166 -43.5 -113.499c0 -62 32 -93 96 -93c31.333 0 60 9.5 86 28.5s41.667 41.5 47 67.5zM354.999 384.999h-54l-26 71l-55 -71h-55l103 115h35zM436.999 476.999h-48l-63 97
l61 18z" />
    <glyph glyph-name="uni1EA8" unicode="&#xc2;&#x309;" horiz-adv-x="451" 
d="M408 0h-69l-30 159h-191l-95 -159h-68l302 483h54zM297 213l-28 198l-116 -198h144zM387 521h-54l-26 71l-55 -71h-55l103 115h35zM526 701c-2.66699 -11.333 -7.83594 -21.502 -15.5029 -30.502s-15.667 -17.5 -24 -25.5l-23.5 -23.5
c-7.33301 -7.66699 -12 -15.834 -14 -24.501h-45c2 10.667 7 20.334 15 29.001s16.5 16.834 25.5 24.501s17.167 15.167 24.5 22.5s12 15 14 23c2.66699 11.333 1.83398 18.833 -2.49902 22.5s-10.833 5.5 -19.5 5.5c-11.333 0 -22.166 -3.66699 -32.499 -11
s-17.166 -13 -20.499 -17l-21 22c7.33301 10.667 18.333 20.834 33 30.501s32.667 14.5 54 14.5c19.333 0 34 -5 44 -15s12.667 -25.667 8 -47z" />
    <glyph glyph-name="uni1EA9" unicode="&#xe2;&#x309;" horiz-adv-x="431" 
d="M366 4l-63.001 -12c-8 10.667 -13 30 -15 58c-32.667 -39.333 -76 -59 -130 -59c-42 0 -76.5 12.667 -103.5 38s-40.5 59 -40.5 101c0 60 20.5 112.167 61.5 156.5s91.5 66.5 151.5 66.5c74 0 130.667 -21 170 -63l-42 -199c-5.33301 -32 -1.66602 -61 11.001 -87z
M303.999 142l25 119.999c-26 26 -62 39 -108 39c-39.333 0 -73.5 -16.167 -102.5 -48.5s-43.5 -70.166 -43.5 -113.499c0 -62 32 -93 96 -93c31.333 0 60 9.5 86 28.5s41.667 41.5 47 67.5zM354.999 384.999h-54l-26 71l-55 -71h-55l103 115h35zM486.999 570.999
c-2.66699 -11.333 -7.83594 -21.502 -15.5029 -30.502s-15.667 -17.5 -24 -25.5l-23.5 -23.5c-7.33301 -7.66699 -12 -15.834 -14 -24.501h-45c2 10.667 7 20.334 15 29.001s16.5 16.834 25.5 24.501s17.167 15.167 24.5 22.5s12 15 14 23
c2.66699 11.333 1.83398 18.833 -2.49902 22.5s-10.833 5.5 -19.5 5.5c-11.333 0 -22.166 -3.66699 -32.499 -11s-17.166 -13 -20.499 -17l-21 22c7.33301 10.667 18.333 20.834 33 30.501s32.667 14.5 54 14.5c19.333 0 34 -5 44 -15s12.667 -25.667 8 -47z" />
    <glyph glyph-name="uni1EAA" unicode="&#xc2;&#x303;" horiz-adv-x="451" 
d="M408 0h-69l-30 159h-191l-95 -159h-68l302 483h54zM297 213l-28 198l-116 -198h144zM386 521h-54l-26 71l-55 -71h-55l103 115h35zM437 748c-5.33301 -23.333 -14.1699 -41.8311 -26.5029 -55.498s-28.166 -20.5 -47.499 -20.5c-5.33301 0 -11.5 1.5 -18.5 4.5
s-14.167 6.33301 -21.5 10s-14.5 7 -21.5 10s-12.833 4.5 -17.5 4.5c-5.33301 0 -9.16602 -2.5 -11.499 -7.5s-4.16602 -10.5 -5.49902 -16.5h-44c4.66699 20 13.167 36.833 25.5 50.5s27.5 20.5 45.5 20.5c6 0 12.667 -1.33301 20 -4s14.166 -5.83398 20.499 -9.50098
s12.833 -6.83398 19.5 -9.50098s12.334 -4 17.001 -4c12.667 0 20.667 9 24 27h42z" />
    <glyph glyph-name="uni1EAB" unicode="&#xe2;&#x303;" horiz-adv-x="431" 
d="M366 4l-63.001 -12c-8 10.667 -13 30 -15 58c-32.667 -39.333 -76 -59 -130 -59c-42 0 -76.5 12.667 -103.5 38s-40.5 59 -40.5 101c0 60 20.5 112.167 61.5 156.5s91.5 66.5 151.5 66.5c74 0 130.667 -21 170 -63l-42 -199c-5.33301 -32 -1.66602 -61 11.001 -87z
M303.999 142l25 119.999c-26 26 -62 39 -108 39c-39.333 0 -73.5 -16.167 -102.5 -48.5s-43.5 -70.166 -43.5 -113.499c0 -62 32 -93 96 -93c31.333 0 60 9.5 86 28.5s41.667 41.5 47 67.5zM354.999 384.999h-54l-26 71l-55 -71h-55l103 115h35zM404.999 599.999
c-5.33301 -23.333 -14.1699 -41.8311 -26.5029 -55.498s-28.166 -20.5 -47.499 -20.5c-5.33301 0 -11.5 1.5 -18.5 4.5s-14.167 6.33301 -21.5 10s-14.5 7 -21.5 10s-12.833 4.5 -17.5 4.5c-5.33301 0 -9.16602 -2.5 -11.499 -7.5s-4.16602 -10.5 -5.49902 -16.5h-44
c4.66699 20 13.167 36.833 25.5 50.5s27.5 20.5 45.5 20.5c6 0 12.667 -1.33301 20 -4s14.166 -5.83398 20.499 -9.50098s12.833 -6.83398 19.5 -9.50098s12.334 -4 17.001 -4c12.667 0 20.667 9 24 27h42z" />
    <glyph glyph-name="uni1EAC" unicode="&#xc2;&#x323;" horiz-adv-x="451" 
d="M408 0h-69l-30 159h-191l-95 -159h-68l302 483h54zM297 213l-28 198l-116 -198h144zM207 -96c-2.66699 -13.333 -9.66602 -24.666 -20.999 -33.999s-23.333 -14 -36 -14s-22.5 4.66699 -29.5 14s-9.16699 20.666 -6.5 33.999s9.5 24.666 20.5 33.999s22.833 14 35.5 14
s22.667 -4.66699 30 -14s9.66602 -20.666 6.99902 -33.999zM386.001 521h-54l-26 71l-55 -71h-55l103 115h35z" />
    <glyph glyph-name="uni1EAD" unicode="&#xe2;&#x323;" horiz-adv-x="431" 
d="M366 4l-63.001 -12c-8 10.667 -13 30 -15 58c-32.667 -39.333 -76 -59 -130 -59c-42 0 -76.5 12.667 -103.5 38s-40.5 59 -40.5 101c0 60 20.5 112.167 61.5 156.5s91.5 66.5 151.5 66.5c74 0 130.667 -21 170 -63l-42 -199c-5.33301 -32 -1.66602 -61 11.001 -87z
M303.999 142l25 119.999c-26 26 -62 39 -108 39c-39.333 0 -73.5 -16.167 -102.5 -48.5s-43.5 -70.166 -43.5 -113.499c0 -62 32 -93 96 -93c31.333 0 60 9.5 86 28.5s41.667 41.5 47 67.5zM212.999 -96.001c-2.66699 -13.333 -9.66602 -24.666 -20.999 -33.999
s-23.333 -14 -36 -14s-22.5 4.66699 -29.5 14s-9.16699 20.666 -6.5 33.999s9.5 24.666 20.5 33.999s22.833 14 35.5 14s22.667 -4.66699 30 -14s9.66602 -20.666 6.99902 -33.999zM355 384.999h-54l-26 71l-55 -71h-55l103 115h35z" />
    <glyph glyph-name="uni1EAE" unicode="&#x102;&#x301;" horiz-adv-x="451" 
d="M408 0h-69l-30 159h-191l-95 -159h-68l302 483h54zM297 213l-28 198l-116 -198h144zM432 627c-14.667 -38 -34.002 -66.167 -58.002 -84.5s-52 -27.5 -84 -27.5s-56 9.16699 -72 27.5s-23.333 46.5 -22 84.5h54c0 -16.667 3.66699 -31.5 11 -44.5s20.333 -19.5 39 -19.5
s34.834 6.5 48.501 19.5s23.834 27.833 30.501 44.5h53zM390.998 762l53 -18l-105 -97h-48z" />
    <glyph glyph-name="uni1EAF" unicode="&#x103;&#x301;" horiz-adv-x="431" 
d="M366 4l-63.001 -12c-8 10.667 -13 30 -15 58c-32.667 -39.333 -76 -59 -130 -59c-42 0 -76.5 12.667 -103.5 38s-40.5 59 -40.5 101c0 60 20.5 112.167 61.5 156.5s91.5 66.5 151.5 66.5c74 0 130.667 -21 170 -63l-42 -199c-5.33301 -32 -1.66602 -61 11.001 -87z
M303.999 142l25 119.999c-26 26 -62 39 -108 39c-39.333 0 -73.5 -16.167 -102.5 -48.5s-43.5 -70.166 -43.5 -113.499c0 -62 32 -93 96 -93c31.333 0 60 9.5 86 28.5s41.667 41.5 47 67.5zM412.999 490.999c-14.667 -38 -34.002 -66.167 -58.002 -84.5s-52 -27.5 -84 -27.5
s-56 9.16699 -72 27.5s-23.333 46.5 -22 84.5h54c0 -16.667 3.66699 -31.5 11 -44.5s20.333 -19.5 39 -19.5s34.834 6.5 48.501 19.5s23.834 27.833 30.501 44.5h53zM371.997 625.999l53 -18l-105 -97h-48z" />
    <glyph glyph-name="uni1EB0" unicode="&#x102;&#x300;" horiz-adv-x="451" 
d="M408 0h-69l-30 159h-191l-95 -159h-68l302 483h54zM297 213l-28 198l-116 -198h144zM432 627c-14.667 -38 -34.002 -66.167 -58.002 -84.5s-52 -27.5 -84 -27.5s-56 9.16699 -72 27.5s-23.333 46.5 -22 84.5h54c0 -16.667 3.66699 -31.5 11 -44.5s20.333 -19.5 39 -19.5
s34.834 6.5 48.501 19.5s23.834 27.833 30.501 44.5h53zM343.998 636h-48l-63 97l61 18z" />
    <glyph glyph-name="uni1EB1" unicode="&#x103;&#x300;" horiz-adv-x="431" 
d="M366 4l-63.001 -12c-8 10.667 -13 30 -15 58c-32.667 -39.333 -76 -59 -130 -59c-42 0 -76.5 12.667 -103.5 38s-40.5 59 -40.5 101c0 60 20.5 112.167 61.5 156.5s91.5 66.5 151.5 66.5c74 0 130.667 -21 170 -63l-42 -199c-5.33301 -32 -1.66602 -61 11.001 -87z
M303.999 142l25 119.999c-26 26 -62 39 -108 39c-39.333 0 -73.5 -16.167 -102.5 -48.5s-43.5 -70.166 -43.5 -113.499c0 -62 32 -93 96 -93c31.333 0 60 9.5 86 28.5s41.667 41.5 47 67.5zM412.999 490.999c-14.667 -38 -34.002 -66.167 -58.002 -84.5s-52 -27.5 -84 -27.5
s-56 9.16699 -72 27.5s-23.333 46.5 -22 84.5h54c0 -16.667 3.66699 -31.5 11 -44.5s20.333 -19.5 39 -19.5s34.834 6.5 48.501 19.5s23.834 27.833 30.501 44.5h53zM325.997 501.999h-48l-63 97l61 18z" />
    <glyph glyph-name="uni1EB2" unicode="&#x102;&#x309;" horiz-adv-x="451" 
d="M408 0h-69l-30 159h-191l-95 -159h-68l302 483h54zM297 213l-28 198l-116 -198h144zM432 627c-14.667 -38 -34.002 -66.167 -58.002 -84.5s-52 -27.5 -84 -27.5s-56 9.16699 -72 27.5s-23.333 46.5 -22 84.5h54c0 -16.667 3.66699 -31.5 11 -44.5s20.333 -19.5 39 -19.5
s34.834 6.5 48.501 19.5s23.834 27.833 30.501 44.5h53zM410.998 735c-2.66699 -11.333 -7.83594 -21.502 -15.5029 -30.502s-15.667 -17.5 -24 -25.5l-23.5 -23.5c-7.33301 -7.66699 -12 -15.834 -14 -24.501h-45c2 10.667 7 20.334 15 29.001s16.5 16.834 25.5 24.501
s17.167 15.167 24.5 22.5s12 15 14 23c2.66699 11.333 1.83398 18.833 -2.49902 22.5s-10.833 5.5 -19.5 5.5c-11.333 0 -22.166 -3.66699 -32.499 -11s-17.166 -13 -20.499 -17l-21 22c7.33301 10.667 18.333 20.834 33 30.501s32.667 14.5 54 14.5c19.333 0 34 -5 44 -15
s12.667 -25.667 8 -47z" />
    <glyph glyph-name="uni1EB3" unicode="&#x103;&#x309;" horiz-adv-x="431" 
d="M366 4l-63.001 -12c-8 10.667 -13 30 -15 58c-32.667 -39.333 -76 -59 -130 -59c-42 0 -76.5 12.667 -103.5 38s-40.5 59 -40.5 101c0 60 20.5 112.167 61.5 156.5s91.5 66.5 151.5 66.5c74 0 130.667 -21 170 -63l-42 -199c-5.33301 -32 -1.66602 -61 11.001 -87z
M303.999 142l25 119.999c-26 26 -62 39 -108 39c-39.333 0 -73.5 -16.167 -102.5 -48.5s-43.5 -70.166 -43.5 -113.499c0 -62 32 -93 96 -93c31.333 0 60 9.5 86 28.5s41.667 41.5 47 67.5zM412.999 490.999c-14.667 -38 -34.002 -66.167 -58.002 -84.5s-52 -27.5 -84 -27.5
s-56 9.16699 -72 27.5s-23.333 46.5 -22 84.5h54c0 -16.667 3.66699 -31.5 11 -44.5s20.333 -19.5 39 -19.5s34.834 6.5 48.501 19.5s23.834 27.833 30.501 44.5h53zM394.997 592.999c-2.66699 -11.333 -7.83594 -21.502 -15.5029 -30.502s-15.667 -17.5 -24 -25.5
l-23.5 -23.5c-7.33301 -7.66699 -12 -15.834 -14 -24.501h-45c2 10.667 7 20.334 15 29.001s16.5 16.834 25.5 24.501s17.167 15.167 24.5 22.5s12 15 14 23c2.66699 11.333 1.83398 18.833 -2.49902 22.5s-10.833 5.5 -19.5 5.5c-11.333 0 -22.166 -3.66699 -32.499 -11
s-17.166 -13 -20.499 -17l-21 22c7.33301 10.667 18.333 20.834 33 30.501s32.667 14.5 54 14.5c19.333 0 34 -5 44 -15s12.667 -25.667 8 -47z" />
    <glyph glyph-name="uni1EB4" unicode="&#x102;&#x303;" horiz-adv-x="451" 
d="M408 0h-69l-30 159h-191l-95 -159h-68l302 483h54zM297 213l-28 198l-116 -198h144zM432 627c-14.667 -38 -34.002 -66.167 -58.002 -84.5s-52 -27.5 -84 -27.5s-56 9.16699 -72 27.5s-23.333 46.5 -22 84.5h54c0 -16.667 3.66699 -31.5 11 -44.5s20.333 -19.5 39 -19.5
s34.834 6.5 48.501 19.5s23.834 27.833 30.501 44.5h53zM437.998 748c-5.33301 -23.333 -14.1699 -41.8311 -26.5029 -55.498s-28.166 -20.5 -47.499 -20.5c-5.33301 0 -11.5 1.5 -18.5 4.5s-14.167 6.33301 -21.5 10s-14.5 7 -21.5 10s-12.833 4.5 -17.5 4.5
c-5.33301 0 -9.16602 -2.5 -11.499 -7.5s-4.16602 -10.5 -5.49902 -16.5h-44c4.66699 20 13.167 36.833 25.5 50.5s27.5 20.5 45.5 20.5c6 0 12.667 -1.33301 20 -4s14.166 -5.83398 20.499 -9.50098s12.833 -6.83398 19.5 -9.50098s12.334 -4 17.001 -4
c12.667 0 20.667 9 24 27h42z" />
    <glyph glyph-name="uni1EB5" unicode="&#x103;&#x303;" horiz-adv-x="431" 
d="M366 4l-63.001 -12c-8 10.667 -13 30 -15 58c-32.667 -39.333 -76 -59 -130 -59c-42 0 -76.5 12.667 -103.5 38s-40.5 59 -40.5 101c0 60 20.5 112.167 61.5 156.5s91.5 66.5 151.5 66.5c74 0 130.667 -21 170 -63l-42 -199c-5.33301 -32 -1.66602 -61 11.001 -87z
M303.999 142l25 119.999c-26 26 -62 39 -108 39c-39.333 0 -73.5 -16.167 -102.5 -48.5s-43.5 -70.166 -43.5 -113.499c0 -62 32 -93 96 -93c31.333 0 60 9.5 86 28.5s41.667 41.5 47 67.5zM412.999 490.999c-14.667 -38 -34.002 -66.167 -58.002 -84.5s-52 -27.5 -84 -27.5
s-56 9.16699 -72 27.5s-23.333 46.5 -22 84.5h54c0 -16.667 3.66699 -31.5 11 -44.5s20.333 -19.5 39 -19.5s34.834 6.5 48.501 19.5s23.834 27.833 30.501 44.5h53zM415.997 595.999c-5.33301 -23.333 -14.1699 -41.8311 -26.5029 -55.498s-28.166 -20.5 -47.499 -20.5
c-5.33301 0 -11.5 1.5 -18.5 4.5s-14.167 6.33301 -21.5 10s-14.5 7 -21.5 10s-12.833 4.5 -17.5 4.5c-5.33301 0 -9.16602 -2.5 -11.499 -7.5s-4.16602 -10.5 -5.49902 -16.5h-44c4.66699 20 13.167 36.833 25.5 50.5s27.5 20.5 45.5 20.5c6 0 12.667 -1.33301 20 -4
s14.166 -5.83398 20.499 -9.50098s12.833 -6.83398 19.5 -9.50098s12.334 -4 17.001 -4c12.667 0 20.667 9 24 27h42z" />
    <glyph glyph-name="uni1EB6" unicode="&#x102;&#x323;" horiz-adv-x="451" 
d="M408 0h-69l-30 159h-191l-95 -159h-68l302 483h54zM297 213l-28 198l-116 -198h144zM207 -96c-2.66699 -13.333 -9.66602 -24.666 -20.999 -33.999s-23.333 -14 -36 -14s-22.5 4.66699 -29.5 14s-9.16699 20.666 -6.5 33.999s9.5 24.666 20.5 33.999s22.833 14 35.5 14
s22.667 -4.66699 30 -14s9.66602 -20.666 6.99902 -33.999zM431.001 627c-14.667 -38 -34.002 -66.167 -58.002 -84.5s-52 -27.5 -84 -27.5s-56 9.16699 -72 27.5s-23.333 46.5 -22 84.5h54c0 -16.667 3.66699 -31.5 11 -44.5s20.333 -19.5 39 -19.5s34.834 6.5 48.501 19.5
s23.834 27.833 30.501 44.5h53z" />
    <glyph glyph-name="uni1EB7" unicode="&#x103;&#x323;" horiz-adv-x="431" 
d="M366 4l-63.001 -12c-8 10.667 -13 30 -15 58c-32.667 -39.333 -76 -59 -130 -59c-42 0 -76.5 12.667 -103.5 38s-40.5 59 -40.5 101c0 60 20.5 112.167 61.5 156.5s91.5 66.5 151.5 66.5c74 0 130.667 -21 170 -63l-42 -199c-5.33301 -32 -1.66602 -61 11.001 -87z
M303.999 142l25 119.999c-26 26 -62 39 -108 39c-39.333 0 -73.5 -16.167 -102.5 -48.5s-43.5 -70.166 -43.5 -113.499c0 -62 32 -93 96 -93c31.333 0 60 9.5 86 28.5s41.667 41.5 47 67.5zM211.999 -96.001c-2.66699 -13.333 -9.66602 -24.666 -20.999 -33.999
s-23.333 -14 -36 -14s-22.5 4.66699 -29.5 14s-9.16699 20.666 -6.5 33.999s9.5 24.666 20.5 33.999s22.833 14 35.5 14s22.667 -4.66699 30 -14s9.66602 -20.666 6.99902 -33.999zM407 490.999c-14.667 -38 -34.002 -66.167 -58.002 -84.5s-52 -27.5 -84 -27.5
s-56 9.16699 -72 27.5s-23.333 46.5 -22 84.5h54c0 -16.667 3.66699 -31.5 11 -44.5s20.333 -19.5 39 -19.5s34.834 6.5 48.501 19.5s23.834 27.833 30.501 44.5h53z" />
    <glyph glyph-name="uni1EB8" unicode="E&#x323;" horiz-adv-x="358" 
d="M289 0h-283l101 476h283l-12 -54h-220l-30 -144h196l-12 -54h-196l-36 -170h220zM161 -96c-2.66699 -13.333 -9.66602 -24.666 -20.999 -33.999s-23.333 -14 -36 -14s-22.5 4.66699 -29.5 14s-9.16699 20.666 -6.5 33.999s9.5 24.666 20.5 33.999s22.833 14 35.5 14
s22.667 -4.66699 30 -14s9.66602 -20.666 6.99902 -33.999z" />
    <glyph glyph-name="uni1EB9" unicode="e&#x323;" horiz-adv-x="391" 
d="M362 246c0 -34 -17.666 -60.001 -52.999 -78.001c-30 -15.333 -67.333 -23 -112 -23c-40.667 0 -80.667 2.66699 -120 8c-0.666992 -4 -1 -8 -1 -12c0 -30 9.66699 -53.167 29 -69.5s44.666 -24.5 75.999 -24.5c36 0 80.667 8.66699 134 26l-5 -55
c-52 -18 -100 -27 -144 -27c-46 0 -83.167 11.833 -111.5 35.5s-42.5 55.834 -42.5 96.501c0 64 22.667 118.333 68 163s98.333 67 159 67c82 0 123 -35.667 123 -107zM308.001 246.999c0 36 -26.001 54 -78.001 54c-27.333 0 -55.166 -10 -83.499 -30
s-47.833 -44.333 -58.5 -73c18.667 -4.66699 50.667 -7 96 -7c82.667 0 124 18.667 124 56zM177 -96.001c-2.66699 -13.333 -9.66602 -24.666 -20.999 -33.999s-23.333 -14 -36 -14s-22.5 4.66699 -29.5 14s-9.16699 20.666 -6.5 33.999s9.5 24.666 20.5 33.999
s22.833 14 35.5 14s22.667 -4.66699 30 -14s9.66602 -20.666 6.99902 -33.999z" />
    <glyph glyph-name="uni1EBA" unicode="E&#x309;" horiz-adv-x="358" 
d="M289 0h-283l101 476h283l-12 -54h-220l-30 -144h196l-12 -54h-196l-36 -170h220zM345 613c-2.66699 -11.333 -7.83594 -21.502 -15.5029 -30.502s-15.667 -17.5 -24 -25.5l-23.5 -23.5c-7.33301 -7.66699 -12 -15.834 -14 -24.501h-45c2 10.667 7 20.334 15 29.001
s16.5 16.834 25.5 24.501s17.167 15.167 24.5 22.5s12 15 14 23c2.66699 11.333 1.83398 18.833 -2.49902 22.5s-10.833 5.5 -19.5 5.5c-11.333 0 -22.166 -3.66699 -32.499 -11s-17.166 -13 -20.499 -17l-21 22c7.33301 10.667 18.333 20.834 33 30.501
s32.667 14.5 54 14.5c19.333 0 34 -5 44 -15s12.667 -25.667 8 -47z" />
    <glyph glyph-name="uni1EBB" unicode="e&#x309;" horiz-adv-x="391" 
d="M362 246c0 -34 -17.666 -60.001 -52.999 -78.001c-30 -15.333 -67.333 -23 -112 -23c-40.667 0 -80.667 2.66699 -120 8c-0.666992 -4 -1 -8 -1 -12c0 -30 9.66699 -53.167 29 -69.5s44.666 -24.5 75.999 -24.5c36 0 80.667 8.66699 134 26l-5 -55
c-52 -18 -100 -27 -144 -27c-46 0 -83.167 11.833 -111.5 35.5s-42.5 55.834 -42.5 96.501c0 64 22.667 118.333 68 163s98.333 67 159 67c82 0 123 -35.667 123 -107zM308.001 246.999c0 36 -26.001 54 -78.001 54c-27.333 0 -55.166 -10 -83.499 -30
s-47.833 -44.333 -58.5 -73c18.667 -4.66699 50.667 -7 96 -7c82.667 0 124 18.667 124 56zM334 476.999c-2.66699 -11.333 -7.83594 -21.502 -15.5029 -30.502s-15.667 -17.5 -24 -25.5l-23.5 -23.5c-7.33301 -7.66699 -12 -15.834 -14 -24.501h-45
c2 10.667 7 20.334 15 29.001s16.5 16.834 25.5 24.501s17.167 15.167 24.5 22.5s12 15 14 23c2.66699 11.333 1.83398 18.833 -2.49902 22.5s-10.833 5.5 -19.5 5.5c-11.333 0 -22.166 -3.66699 -32.499 -11s-17.166 -13 -20.499 -17l-21 22
c7.33301 10.667 18.333 20.834 33 30.501s32.667 14.5 54 14.5c19.333 0 34 -5 44 -15s12.667 -25.667 8 -47z" />
    <glyph glyph-name="uni1EBC" unicode="E&#x303;" horiz-adv-x="358" 
d="M289 0h-283l101 476h283l-12 -54h-220l-30 -144h196l-12 -54h-196l-36 -170h220zM359 592c-5.33301 -23.333 -14.1699 -41.8311 -26.5029 -55.498s-28.166 -20.5 -47.499 -20.5c-5.33301 0 -11.5 1.5 -18.5 4.5s-14.167 6.33301 -21.5 10s-14.5 7 -21.5 10
s-12.833 4.5 -17.5 4.5c-5.33301 0 -9.16602 -2.5 -11.499 -7.5s-4.16602 -10.5 -5.49902 -16.5h-44c4.66699 20 13.167 36.833 25.5 50.5s27.5 20.5 45.5 20.5c6 0 12.667 -1.33301 20 -4s14.166 -5.83398 20.499 -9.50098s12.833 -6.83398 19.5 -9.50098
s12.334 -4 17.001 -4c12.667 0 20.667 9 24 27h42z" />
    <glyph glyph-name="uni1EBD" unicode="e&#x303;" horiz-adv-x="391" 
d="M362 246c0 -34 -17.666 -60.001 -52.999 -78.001c-30 -15.333 -67.333 -23 -112 -23c-40.667 0 -80.667 2.66699 -120 8c-0.666992 -4 -1 -8 -1 -12c0 -30 9.66699 -53.167 29 -69.5s44.666 -24.5 75.999 -24.5c36 0 80.667 8.66699 134 26l-5 -55
c-52 -18 -100 -27 -144 -27c-46 0 -83.167 11.833 -111.5 35.5s-42.5 55.834 -42.5 96.501c0 64 22.667 118.333 68 163s98.333 67 159 67c82 0 123 -35.667 123 -107zM308.001 246.999c0 36 -26.001 54 -78.001 54c-27.333 0 -55.166 -10 -83.499 -30
s-47.833 -44.333 -58.5 -73c18.667 -4.66699 50.667 -7 96 -7c82.667 0 124 18.667 124 56zM347 455.999c-5.33301 -23.333 -14.1699 -41.8311 -26.5029 -55.498s-28.166 -20.5 -47.499 -20.5c-5.33301 0 -11.5 1.5 -18.5 4.5s-14.167 6.33301 -21.5 10s-14.5 7 -21.5 10
s-12.833 4.5 -17.5 4.5c-5.33301 0 -9.16602 -2.5 -11.499 -7.5s-4.16602 -10.5 -5.49902 -16.5h-44c4.66699 20 13.167 36.833 25.5 50.5s27.5 20.5 45.5 20.5c6 0 12.667 -1.33301 20 -4s14.166 -5.83398 20.499 -9.50098s12.833 -6.83398 19.5 -9.50098
s12.334 -4 17.001 -4c12.667 0 20.667 9 24 27h42z" />
    <glyph glyph-name="uni1EBE" unicode="&#xca;&#x301;" horiz-adv-x="358" 
d="M289 0h-283l101 476h283l-12 -54h-220l-30 -144h196l-12 -54h-196l-36 -170h220zM340 521h-54l-26 71l-55 -71h-55l103 115h35zM434 735l53 -18l-105 -97h-48z" />
    <glyph glyph-name="uni1EBF" unicode="&#xea;&#x301;" horiz-adv-x="391" 
d="M362 246c0 -34 -17.666 -60.001 -52.999 -78.001c-30 -15.333 -67.333 -23 -112 -23c-40.667 0 -80.667 2.66699 -120 8c-0.666992 -4 -1 -8 -1 -12c0 -30 9.66699 -53.167 29 -69.5s44.666 -24.5 75.999 -24.5c36 0 80.667 8.66699 134 26l-5 -55
c-52 -18 -100 -27 -144 -27c-46 0 -83.167 11.833 -111.5 35.5s-42.5 55.834 -42.5 96.501c0 64 22.667 118.333 68 163s98.333 67 159 67c82 0 123 -35.667 123 -107zM308.001 246.999c0 36 -26.001 54 -78.001 54c-27.333 0 -55.166 -10 -83.499 -30
s-47.833 -44.333 -58.5 -73c18.667 -4.66699 50.667 -7 96 -7c82.667 0 124 18.667 124 56zM327 384.999h-54l-26 71l-55 -71h-55l103 115h35zM422 601.999l53 -18l-105 -97h-48z" />
    <glyph glyph-name="uni1EC0" unicode="&#xca;&#x300;" horiz-adv-x="358" 
d="M289 0h-283l101 476h283l-12 -54h-220l-30 -144h196l-12 -54h-196l-36 -170h220zM340 521h-54l-26 71l-55 -71h-55l103 115h35zM423 636h-48l-63 97l61 18z" />
    <glyph glyph-name="uni1EC1" unicode="&#xea;&#x300;" horiz-adv-x="391" 
d="M362 246c0 -34 -17.666 -60.001 -52.999 -78.001c-30 -15.333 -67.333 -23 -112 -23c-40.667 0 -80.667 2.66699 -120 8c-0.666992 -4 -1 -8 -1 -12c0 -30 9.66699 -53.167 29 -69.5s44.666 -24.5 75.999 -24.5c36 0 80.667 8.66699 134 26l-5 -55
c-52 -18 -100 -27 -144 -27c-46 0 -83.167 11.833 -111.5 35.5s-42.5 55.834 -42.5 96.501c0 64 22.667 118.333 68 163s98.333 67 159 67c82 0 123 -35.667 123 -107zM308.001 246.999c0 36 -26.001 54 -78.001 54c-27.333 0 -55.166 -10 -83.499 -30
s-47.833 -44.333 -58.5 -73c18.667 -4.66699 50.667 -7 96 -7c82.667 0 124 18.667 124 56zM327 384.999h-54l-26 71l-55 -71h-55l103 115h35zM421 475.999h-48l-63 97l61 18z" />
    <glyph glyph-name="uni1EC2" unicode="&#xca;&#x309;" horiz-adv-x="358" 
d="M289 0h-283l101 476h283l-12 -54h-220l-30 -144h196l-12 -54h-196l-36 -170h220zM340 521h-54l-26 71l-55 -71h-55l103 115h35zM470 700c-2.66699 -11.333 -7.83594 -21.502 -15.5029 -30.502s-15.667 -17.5 -24 -25.5l-23.5 -23.5
c-7.33301 -7.66699 -12 -15.834 -14 -24.501h-45c2 10.667 7 20.334 15 29.001s16.5 16.834 25.5 24.501s17.167 15.167 24.5 22.5s12 15 14 23c2.66699 11.333 1.83398 18.833 -2.49902 22.5s-10.833 5.5 -19.5 5.5c-11.333 0 -22.166 -3.66699 -32.499 -11
s-17.166 -13 -20.499 -17l-21 22c7.33301 10.667 18.333 20.834 33 30.501s32.667 14.5 54 14.5c19.333 0 34 -5 44 -15s12.667 -25.667 8 -47z" />
    <glyph glyph-name="uni1EC3" unicode="&#xea;&#x309;" horiz-adv-x="391" 
d="M362 246c0 -34 -17.666 -60.001 -52.999 -78.001c-30 -15.333 -67.333 -23 -112 -23c-40.667 0 -80.667 2.66699 -120 8c-0.666992 -4 -1 -8 -1 -12c0 -30 9.66699 -53.167 29 -69.5s44.666 -24.5 75.999 -24.5c36 0 80.667 8.66699 134 26l-5 -55
c-52 -18 -100 -27 -144 -27c-46 0 -83.167 11.833 -111.5 35.5s-42.5 55.834 -42.5 96.501c0 64 22.667 118.333 68 163s98.333 67 159 67c82 0 123 -35.667 123 -107zM308.001 246.999c0 36 -26.001 54 -78.001 54c-27.333 0 -55.166 -10 -83.499 -30
s-47.833 -44.333 -58.5 -73c18.667 -4.66699 50.667 -7 96 -7c82.667 0 124 18.667 124 56zM327 384.999h-54l-26 71l-55 -71h-55l103 115h35zM472 558.999c-2.66699 -11.333 -7.83594 -21.502 -15.5029 -30.502s-15.667 -17.5 -24 -25.5l-23.5 -23.5
c-7.33301 -7.66699 -12 -15.834 -14 -24.501h-45c2 10.667 7 20.334 15 29.001s16.5 16.834 25.5 24.501s17.167 15.167 24.5 22.5s12 15 14 23c2.66699 11.333 1.83398 18.833 -2.49902 22.5s-10.833 5.5 -19.5 5.5c-11.333 0 -22.166 -3.66699 -32.499 -11
s-17.166 -13 -20.499 -17l-21 22c7.33301 10.667 18.333 20.834 33 30.501s32.667 14.5 54 14.5c19.333 0 34 -5 44 -15s12.667 -25.667 8 -47z" />
    <glyph glyph-name="uni1EC4" unicode="&#xca;&#x303;" horiz-adv-x="358" 
d="M289 0h-283l101 476h283l-12 -54h-220l-30 -144h196l-12 -54h-196l-36 -170h220zM340 521h-54l-26 71l-55 -71h-55l103 115h35zM392 747c-5.33301 -23.333 -14.1699 -41.8311 -26.5029 -55.498s-28.166 -20.5 -47.499 -20.5c-5.33301 0 -11.5 1.5 -18.5 4.5
s-14.167 6.33301 -21.5 10s-14.5 7 -21.5 10s-12.833 4.5 -17.5 4.5c-5.33301 0 -9.16602 -2.5 -11.499 -7.5s-4.16602 -10.5 -5.49902 -16.5h-44c4.66699 20 13.167 36.833 25.5 50.5s27.5 20.5 45.5 20.5c6 0 12.667 -1.33301 20 -4s14.166 -5.83398 20.499 -9.50098
s12.833 -6.83398 19.5 -9.50098s12.334 -4 17.001 -4c12.667 0 20.667 9 24 27h42z" />
    <glyph glyph-name="uni1EC5" unicode="&#xea;&#x303;" horiz-adv-x="391" 
d="M362 246c0 -34 -17.666 -60.001 -52.999 -78.001c-30 -15.333 -67.333 -23 -112 -23c-40.667 0 -80.667 2.66699 -120 8c-0.666992 -4 -1 -8 -1 -12c0 -30 9.66699 -53.167 29 -69.5s44.666 -24.5 75.999 -24.5c36 0 80.667 8.66699 134 26l-5 -55
c-52 -18 -100 -27 -144 -27c-46 0 -83.167 11.833 -111.5 35.5s-42.5 55.834 -42.5 96.501c0 64 22.667 118.333 68 163s98.333 67 159 67c82 0 123 -35.667 123 -107zM308.001 246.999c0 36 -26.001 54 -78.001 54c-27.333 0 -55.166 -10 -83.499 -30
s-47.833 -44.333 -58.5 -73c18.667 -4.66699 50.667 -7 96 -7c82.667 0 124 18.667 124 56zM327 384.999h-54l-26 71l-55 -71h-55l103 115h35zM375 592.999c-5.33301 -23.333 -14.1699 -41.8311 -26.5029 -55.498s-28.166 -20.5 -47.499 -20.5
c-5.33301 0 -11.5 1.5 -18.5 4.5s-14.167 6.33301 -21.5 10s-14.5 7 -21.5 10s-12.833 4.5 -17.5 4.5c-5.33301 0 -9.16602 -2.5 -11.499 -7.5s-4.16602 -10.5 -5.49902 -16.5h-44c4.66699 20 13.167 36.833 25.5 50.5s27.5 20.5 45.5 20.5c6 0 12.667 -1.33301 20 -4
s14.166 -5.83398 20.499 -9.50098s12.833 -6.83398 19.5 -9.50098s12.334 -4 17.001 -4c12.667 0 20.667 9 24 27h42z" />
    <glyph glyph-name="uni1EC6" unicode="&#xca;&#x323;" horiz-adv-x="358" 
d="M289 0h-283l101 476h283l-12 -54h-220l-30 -144h196l-12 -54h-196l-36 -170h220zM161 -96c-2.66699 -13.333 -9.66602 -24.666 -20.999 -33.999s-23.333 -14 -36 -14s-22.5 4.66699 -29.5 14s-9.16699 20.666 -6.5 33.999s9.5 24.666 20.5 33.999s22.833 14 35.5 14
s22.667 -4.66699 30 -14s9.66602 -20.666 6.99902 -33.999zM340.001 521h-54l-26 71l-55 -71h-55l103 115h35z" />
    <glyph glyph-name="uni1EC7" unicode="&#xea;&#x323;" horiz-adv-x="391" 
d="M362 246c0 -34 -17.666 -60.001 -52.999 -78.001c-30 -15.333 -67.333 -23 -112 -23c-40.667 0 -80.667 2.66699 -120 8c-0.666992 -4 -1 -8 -1 -12c0 -30 9.66699 -53.167 29 -69.5s44.666 -24.5 75.999 -24.5c36 0 80.667 8.66699 134 26l-5 -55
c-52 -18 -100 -27 -144 -27c-46 0 -83.167 11.833 -111.5 35.5s-42.5 55.834 -42.5 96.501c0 64 22.667 118.333 68 163s98.333 67 159 67c82 0 123 -35.667 123 -107zM308.001 246.999c0 36 -26.001 54 -78.001 54c-27.333 0 -55.166 -10 -83.499 -30
s-47.833 -44.333 -58.5 -73c18.667 -4.66699 50.667 -7 96 -7c82.667 0 124 18.667 124 56zM177 -96.001c-2.66699 -13.333 -9.66602 -24.666 -20.999 -33.999s-23.333 -14 -36 -14s-22.5 4.66699 -29.5 14s-9.16699 20.666 -6.5 33.999s9.5 24.666 20.5 33.999
s22.833 14 35.5 14s22.667 -4.66699 30 -14s9.66602 -20.666 6.99902 -33.999zM327.001 384.999h-54l-26 71l-55 -71h-55l103 115h35z" />
    <glyph glyph-name="uni1EC8" unicode="I&#x309;" horiz-adv-x="163" 
d="M69 0h-63l101 476h63zM243 613c-2.66699 -11.333 -7.83594 -21.502 -15.5029 -30.502s-15.667 -17.5 -24 -25.5l-23.5 -23.5c-7.33301 -7.66699 -12 -15.834 -14 -24.501h-45c2 10.667 7 20.334 15 29.001s16.5 16.834 25.5 24.501s17.167 15.167 24.5 22.5s12 15 14 23
c2.66699 11.333 1.83398 18.833 -2.49902 22.5s-10.833 5.5 -19.5 5.5c-11.333 0 -22.166 -3.66699 -32.499 -11s-17.166 -13 -20.499 -17l-21 22c7.33301 10.667 18.333 20.834 33 30.501s32.667 14.5 54 14.5c19.333 0 34 -5 44 -15s12.667 -25.667 8 -47z" />
    <glyph glyph-name="uni1EC9" unicode="i&#x309;" horiz-adv-x="163" 
d="M216 477c-2.66699 -11.333 -7.83594 -21.502 -15.5029 -30.502s-15.667 -17.5 -24 -25.5l-23.5 -23.5c-7.33301 -7.66699 -12 -15.834 -14 -24.501h-45c2 10.667 7 20.334 15 29.001s16.5 16.834 25.5 24.501s17.167 15.167 24.5 22.5s12 15 14 23
c2.66699 11.333 1.83398 18.833 -2.49902 22.5s-10.833 5.5 -19.5 5.5c-11.333 0 -22.166 -3.66699 -32.499 -11s-17.166 -13 -20.499 -17l-21 22c7.33301 10.667 18.333 20.834 33 30.501s32.667 14.5 54 14.5c19.333 0 34 -5 44 -15s12.667 -25.667 8 -47z
M68.998 -0.00195312h-63l72 340h63z" />
    <glyph glyph-name="uni1ECA" unicode="I&#x323;" horiz-adv-x="163" 
d="M69 0h-63l101 476h63zM64 -96c-2.66699 -13.333 -9.66602 -24.666 -20.999 -33.999s-23.333 -14 -36 -14s-22.5 4.66699 -29.5 14s-9.16699 20.666 -6.5 33.999s9.5 24.666 20.5 33.999s22.833 14 35.5 14s22.667 -4.66699 30 -14s9.66602 -20.666 6.99902 -33.999z" />
    <glyph glyph-name="uni1ECB" unicode="i&#x323;" horiz-adv-x="163" 
d="M69 0h-63l72 340h63zM177 440c-2.66699 -13.333 -9.66699 -24.666 -21 -33.999s-23.666 -14 -36.999 -14s-23.666 4.66699 -30.999 14s-9.66602 20.666 -6.99902 33.999s9.66699 24.666 21 33.999s23.666 14 36.999 14s23.666 -4.66699 30.999 -14
s9.66602 -20.666 6.99902 -33.999zM64 -96c-2.66699 -13.333 -9.66602 -24.666 -20.999 -33.999s-23.333 -14 -36 -14s-22.5 4.66699 -29.5 14s-9.16699 20.666 -6.5 33.999s9.5 24.666 20.5 33.999s22.833 14 35.5 14s22.667 -4.66699 30 -14
s9.66602 -20.666 6.99902 -33.999z" />
    <glyph glyph-name="uni1ECC" unicode="O&#x323;" horiz-adv-x="518" 
d="M436 238c12 54.667 6.16992 100.5 -17.4971 137.5s-61.167 55.5 -112.5 55.5s-96.5 -18.5 -135.5 -55.5s-64.5 -82.833 -76.5 -137.5c-11.333 -54.667 -5.33301 -100.5 18 -137.5s60.666 -55.5 111.999 -55.5s96.666 18.5 135.999 55.5s64.666 82.833 75.999 137.5z
M498.003 237c-14.667 -70 -48.834 -128.667 -102.501 -176s-114.834 -71 -183.501 -71s-119.5 23.667 -152.5 71s-42.167 106 -27.5 176s48.834 128.833 102.501 176.5s114.834 71.5 183.501 71.5s119.5 -23.833 152.5 -71.5s42.167 -106.5 27.5 -176.5zM241.003 -96
c-2.66699 -13.333 -9.66602 -24.666 -20.999 -33.999s-23.333 -14 -36 -14s-22.5 4.66699 -29.5 14s-9.16699 20.666 -6.5 33.999s9.5 24.666 20.5 33.999s22.833 14 35.5 14s22.667 -4.66699 30 -14s9.66602 -20.666 6.99902 -33.999z" />
    <glyph glyph-name="uni1ECD" unicode="o&#x323;" horiz-adv-x="412" 
d="M378 172c-10.667 -50.667 -36.667 -93.334 -78 -128.001s-88 -52 -140 -52s-91.333 17.333 -118 52s-34.667 77.334 -24 128.001s36.834 93.5 78.501 128.5s88.5 52.5 140.5 52.5s91.167 -17.5 117.5 -52.5s34.166 -77.833 23.499 -128.5zM316 172
c8 36 3.49902 66.167 -13.501 90.5s-42.833 36.5 -77.5 36.5s-65.5 -12.167 -92.5 -36.5s-44.5 -54.5 -52.5 -90.5c-7.33301 -36 -2.66602 -66.167 14.001 -90.5s42.334 -36.5 77.001 -36.5s65.667 12.167 93 36.5s44.666 54.5 51.999 90.5zM187.999 -96
c-2.66699 -13.333 -9.66602 -24.666 -20.999 -33.999s-23.333 -14 -36 -14s-22.5 4.66699 -29.5 14s-9.16699 20.666 -6.5 33.999s9.5 24.666 20.5 33.999s22.833 14 35.5 14s22.667 -4.66699 30 -14s9.66602 -20.666 6.99902 -33.999z" />
    <glyph glyph-name="uni1ECE" unicode="O&#x309;" horiz-adv-x="518" 
d="M436 238c12 54.667 6.16992 100.5 -17.4971 137.5s-61.167 55.5 -112.5 55.5s-96.5 -18.5 -135.5 -55.5s-64.5 -82.833 -76.5 -137.5c-11.333 -54.667 -5.33301 -100.5 18 -137.5s60.666 -55.5 111.999 -55.5s96.666 18.5 135.999 55.5s64.666 82.833 75.999 137.5z
M498.003 237c-14.667 -70 -48.834 -128.667 -102.501 -176s-114.834 -71 -183.501 -71s-119.5 23.667 -152.5 71s-42.167 106 -27.5 176s48.834 128.833 102.501 176.5s114.834 71.5 183.501 71.5s119.5 -23.833 152.5 -71.5s42.167 -106.5 27.5 -176.5zM416.003 613
c-2.66699 -11.333 -7.83594 -21.502 -15.5029 -30.502s-15.667 -17.5 -24 -25.5l-23.5 -23.5c-7.33301 -7.66699 -12 -15.834 -14 -24.501h-45c2 10.667 7 20.334 15 29.001s16.5 16.834 25.5 24.501s17.167 15.167 24.5 22.5s12 15 14 23
c2.66699 11.333 1.83398 18.833 -2.49902 22.5s-10.833 5.5 -19.5 5.5c-11.333 0 -22.166 -3.66699 -32.499 -11s-17.166 -13 -20.499 -17l-21 22c7.33301 10.667 18.333 20.834 33 30.501s32.667 14.5 54 14.5c19.333 0 34 -5 44 -15s12.667 -25.667 8 -47z" />
    <glyph glyph-name="uni1ECF" unicode="o&#x309;" horiz-adv-x="412" 
d="M378 172c-10.667 -50.667 -36.667 -93.334 -78 -128.001s-88 -52 -140 -52s-91.333 17.333 -118 52s-34.667 77.334 -24 128.001s36.834 93.5 78.501 128.5s88.5 52.5 140.5 52.5s91.167 -17.5 117.5 -52.5s34.166 -77.833 23.499 -128.5zM316 172
c8 36 3.49902 66.167 -13.501 90.5s-42.833 36.5 -77.5 36.5s-65.5 -12.167 -92.5 -36.5s-44.5 -54.5 -52.5 -90.5c-7.33301 -36 -2.66602 -66.167 14.001 -90.5s42.334 -36.5 77.001 -36.5s65.667 12.167 93 36.5s44.666 54.5 51.999 90.5zM334.999 477
c-2.66699 -11.333 -7.83594 -21.502 -15.5029 -30.502s-15.667 -17.5 -24 -25.5l-23.5 -23.5c-7.33301 -7.66699 -12 -15.834 -14 -24.501h-45c2 10.667 7 20.334 15 29.001s16.5 16.834 25.5 24.501s17.167 15.167 24.5 22.5s12 15 14 23
c2.66699 11.333 1.83398 18.833 -2.49902 22.5s-10.833 5.5 -19.5 5.5c-11.333 0 -22.166 -3.66699 -32.499 -11s-17.166 -13 -20.499 -17l-21 22c7.33301 10.667 18.333 20.834 33 30.501s32.667 14.5 54 14.5c19.333 0 34 -5 44 -15s12.667 -25.667 8 -47z" />
    <glyph glyph-name="uni1ED0" unicode="&#xd4;&#x301;" horiz-adv-x="518" 
d="M436 238c12 54.667 6.16992 100.5 -17.4971 137.5s-61.167 55.5 -112.5 55.5s-96.5 -18.5 -135.5 -55.5s-64.5 -82.833 -76.5 -137.5c-11.333 -54.667 -5.33301 -100.5 18 -137.5s60.666 -55.5 111.999 -55.5s96.666 18.5 135.999 55.5s64.666 82.833 75.999 137.5z
M498.003 237c-14.667 -70 -48.834 -128.667 -102.501 -176s-114.834 -71 -183.501 -71s-119.5 23.667 -152.5 71s-42.167 106 -27.5 176s48.834 128.833 102.501 176.5s114.834 71.5 183.501 71.5s119.5 -23.833 152.5 -71.5s42.167 -106.5 27.5 -176.5zM420.003 521h-54
l-26 71l-55 -71h-55l103 115h35zM541.003 706l53 -18l-105 -97h-48z" />
    <glyph glyph-name="uni1ED1" unicode="&#xf4;&#x301;" horiz-adv-x="432" 
d="M388 172c-10.667 -50.667 -36.667 -93.334 -78 -128.001s-88 -52 -140 -52s-91.333 17.333 -118 52s-34.667 77.334 -24 128.001s36.834 93.5 78.501 128.5s88.5 52.5 140.5 52.5s91.167 -17.5 117.5 -52.5s34.166 -77.833 23.499 -128.5zM326 172
c8 36 3.49902 66.167 -13.501 90.5s-42.833 36.5 -77.5 36.5s-65.5 -12.167 -92.5 -36.5s-44.5 -54.5 -52.5 -90.5c-7.33301 -36 -2.66602 -66.167 14.001 -90.5s42.334 -36.5 77.001 -36.5s65.667 12.167 93 36.5s44.666 54.5 51.999 90.5zM347.999 385h-54l-26 71l-55 -71
h-55l103 115h35zM451.999 586l53 -18l-105 -97h-48z" />
    <glyph glyph-name="uni1ED2" unicode="&#xd4;&#x300;" horiz-adv-x="518" 
d="M436 238c12 54.667 6.16992 100.5 -17.4971 137.5s-61.167 55.5 -112.5 55.5s-96.5 -18.5 -135.5 -55.5s-64.5 -82.833 -76.5 -137.5c-11.333 -54.667 -5.33301 -100.5 18 -137.5s60.666 -55.5 111.999 -55.5s96.666 18.5 135.999 55.5s64.666 82.833 75.999 137.5z
M498.003 237c-14.667 -70 -48.834 -128.667 -102.501 -176s-114.834 -71 -183.501 -71s-119.5 23.667 -152.5 71s-42.167 106 -27.5 176s48.834 128.833 102.501 176.5s114.834 71.5 183.501 71.5s119.5 -23.833 152.5 -71.5s42.167 -106.5 27.5 -176.5zM420.003 521h-54
l-26 71l-55 -71h-55l103 115h35zM531.003 591h-48l-63 97l61 18z" />
    <glyph glyph-name="uni1ED3" unicode="&#xf4;&#x300;" horiz-adv-x="432" 
d="M388 172c-10.667 -50.667 -36.667 -93.334 -78 -128.001s-88 -52 -140 -52s-91.333 17.333 -118 52s-34.667 77.334 -24 128.001s36.834 93.5 78.501 128.5s88.5 52.5 140.5 52.5s91.167 -17.5 117.5 -52.5s34.166 -77.833 23.499 -128.5zM326 172
c8 36 3.49902 66.167 -13.501 90.5s-42.833 36.5 -77.5 36.5s-65.5 -12.167 -92.5 -36.5s-44.5 -54.5 -52.5 -90.5c-7.33301 -36 -2.66602 -66.167 14.001 -90.5s42.334 -36.5 77.001 -36.5s65.667 12.167 93 36.5s44.666 54.5 51.999 90.5zM347.999 385h-54l-26 71l-55 -71
h-55l103 115h35zM450.999 471h-48l-63 97l61 18z" />
    <glyph glyph-name="uni1ED4" unicode="&#xd4;&#x309;" horiz-adv-x="518" 
d="M436 238c12 54.667 6.16992 100.5 -17.4971 137.5s-61.167 55.5 -112.5 55.5s-96.5 -18.5 -135.5 -55.5s-64.5 -82.833 -76.5 -137.5c-11.333 -54.667 -5.33301 -100.5 18 -137.5s60.666 -55.5 111.999 -55.5s96.666 18.5 135.999 55.5s64.666 82.833 75.999 137.5z
M498.003 237c-14.667 -70 -48.834 -128.667 -102.501 -176s-114.834 -71 -183.501 -71s-119.5 23.667 -152.5 71s-42.167 106 -27.5 176s48.834 128.833 102.501 176.5s114.834 71.5 183.501 71.5s119.5 -23.833 152.5 -71.5s42.167 -106.5 27.5 -176.5zM421.003 521h-54
l-26 71l-55 -71h-55l103 115h35zM561.003 701c-2.66699 -11.333 -7.83594 -21.502 -15.5029 -30.502s-15.667 -17.5 -24 -25.5l-23.5 -23.5c-7.33301 -7.66699 -12 -15.834 -14 -24.501h-45c2 10.667 7 20.334 15 29.001s16.5 16.834 25.5 24.501s17.167 15.167 24.5 22.5
s12 15 14 23c2.66699 11.333 1.83398 18.833 -2.49902 22.5s-10.833 5.5 -19.5 5.5c-11.333 0 -22.166 -3.66699 -32.499 -11s-17.166 -13 -20.499 -17l-21 22c7.33301 10.667 18.333 20.834 33 30.501s32.667 14.5 54 14.5c19.333 0 34 -5 44 -15s12.667 -25.667 8 -47z
" />
    <glyph glyph-name="uni1ED5" unicode="&#xf4;&#x309;" horiz-adv-x="432" 
d="M388 172c-10.667 -50.667 -36.667 -93.334 -78 -128.001s-88 -52 -140 -52s-91.333 17.333 -118 52s-34.667 77.334 -24 128.001s36.834 93.5 78.501 128.5s88.5 52.5 140.5 52.5s91.167 -17.5 117.5 -52.5s34.166 -77.833 23.499 -128.5zM326 172
c8 36 3.49902 66.167 -13.501 90.5s-42.833 36.5 -77.5 36.5s-65.5 -12.167 -92.5 -36.5s-44.5 -54.5 -52.5 -90.5c-7.33301 -36 -2.66602 -66.167 14.001 -90.5s42.334 -36.5 77.001 -36.5s65.667 12.167 93 36.5s44.666 54.5 51.999 90.5zM347.999 385h-54l-26 71l-55 -71
h-55l103 115h35zM488.999 571c-2.66699 -11.333 -7.83594 -21.502 -15.5029 -30.502s-15.667 -17.5 -24 -25.5l-23.5 -23.5c-7.33301 -7.66699 -12 -15.834 -14 -24.501h-45c2 10.667 7 20.334 15 29.001s16.5 16.834 25.5 24.501s17.167 15.167 24.5 22.5s12 15 14 23
c2.66699 11.333 1.83398 18.833 -2.49902 22.5s-10.833 5.5 -19.5 5.5c-11.333 0 -22.166 -3.66699 -32.499 -11s-17.166 -13 -20.499 -17l-21 22c7.33301 10.667 18.333 20.834 33 30.501s32.667 14.5 54 14.5c19.333 0 34 -5 44 -15s12.667 -25.667 8 -47z" />
    <glyph glyph-name="uni1ED6" unicode="&#xd4;&#x303;" horiz-adv-x="518" 
d="M436 238c12 54.667 6.16992 100.5 -17.4971 137.5s-61.167 55.5 -112.5 55.5s-96.5 -18.5 -135.5 -55.5s-64.5 -82.833 -76.5 -137.5c-11.333 -54.667 -5.33301 -100.5 18 -137.5s60.666 -55.5 111.999 -55.5s96.666 18.5 135.999 55.5s64.666 82.833 75.999 137.5z
M498.003 237c-14.667 -70 -48.834 -128.667 -102.501 -176s-114.834 -71 -183.501 -71s-119.5 23.667 -152.5 71s-42.167 106 -27.5 176s48.834 128.833 102.501 176.5s114.834 71.5 183.501 71.5s119.5 -23.833 152.5 -71.5s42.167 -106.5 27.5 -176.5zM420.003 521h-54
l-26 71l-55 -71h-55l103 115h35zM472.003 748c-5.33301 -23.333 -14.1699 -41.8311 -26.5029 -55.498s-28.166 -20.5 -47.499 -20.5c-5.33301 0 -11.5 1.5 -18.5 4.5s-14.167 6.33301 -21.5 10s-14.5 7 -21.5 10s-12.833 4.5 -17.5 4.5
c-5.33301 0 -9.16602 -2.5 -11.499 -7.5s-4.16602 -10.5 -5.49902 -16.5h-44c4.66699 20 13.167 36.833 25.5 50.5s27.5 20.5 45.5 20.5c6 0 12.667 -1.33301 20 -4s14.166 -5.83398 20.499 -9.50098s12.833 -6.83398 19.5 -9.50098s12.334 -4 17.001 -4
c12.667 0 20.667 9 24 27h42z" />
    <glyph glyph-name="uni1ED7" unicode="&#xf4;&#x303;" horiz-adv-x="432" 
d="M388 172c-10.667 -50.667 -36.667 -93.334 -78 -128.001s-88 -52 -140 -52s-91.333 17.333 -118 52s-34.667 77.334 -24 128.001s36.834 93.5 78.501 128.5s88.5 52.5 140.5 52.5s91.167 -17.5 117.5 -52.5s34.166 -77.833 23.499 -128.5zM326 172
c8 36 3.49902 66.167 -13.501 90.5s-42.833 36.5 -77.5 36.5s-65.5 -12.167 -92.5 -36.5s-44.5 -54.5 -52.5 -90.5c-7.33301 -36 -2.66602 -66.167 14.001 -90.5s42.334 -36.5 77.001 -36.5s65.667 12.167 93 36.5s44.666 54.5 51.999 90.5zM347.999 385h-54l-26 71l-55 -71
h-55l103 115h35zM396.999 600c-5.33301 -23.333 -14.1699 -41.8311 -26.5029 -55.498s-28.166 -20.5 -47.499 -20.5c-5.33301 0 -11.5 1.5 -18.5 4.5s-14.167 6.33301 -21.5 10s-14.5 7 -21.5 10s-12.833 4.5 -17.5 4.5c-5.33301 0 -9.16602 -2.5 -11.499 -7.5
s-4.16602 -10.5 -5.49902 -16.5h-44c4.66699 20 13.167 36.833 25.5 50.5s27.5 20.5 45.5 20.5c6 0 12.667 -1.33301 20 -4s14.166 -5.83398 20.499 -9.50098s12.833 -6.83398 19.5 -9.50098s12.334 -4 17.001 -4c12.667 0 20.667 9 24 27h42z" />
    <glyph glyph-name="uni1ED8" unicode="&#xd4;&#x323;" horiz-adv-x="518" 
d="M436 238c12 54.667 6.16992 100.5 -17.4971 137.5s-61.167 55.5 -112.5 55.5s-96.5 -18.5 -135.5 -55.5s-64.5 -82.833 -76.5 -137.5c-11.333 -54.667 -5.33301 -100.5 18 -137.5s60.666 -55.5 111.999 -55.5s96.666 18.5 135.999 55.5s64.666 82.833 75.999 137.5z
M498.003 237c-14.667 -70 -48.834 -128.667 -102.501 -176s-114.834 -71 -183.501 -71s-119.5 23.667 -152.5 71s-42.167 106 -27.5 176s48.834 128.833 102.501 176.5s114.834 71.5 183.501 71.5s119.5 -23.833 152.5 -71.5s42.167 -106.5 27.5 -176.5zM241.003 -96
c-2.66699 -13.333 -9.66602 -24.666 -20.999 -33.999s-23.333 -14 -36 -14s-22.5 4.66699 -29.5 14s-9.16699 20.666 -6.5 33.999s9.5 24.666 20.5 33.999s22.833 14 35.5 14s22.667 -4.66699 30 -14s9.66602 -20.666 6.99902 -33.999zM420.004 521h-54l-26 71l-55 -71h-55
l103 115h35z" />
    <glyph glyph-name="uni1ED9" unicode="&#xf4;&#x323;" horiz-adv-x="412" 
d="M378 172c-10.667 -50.667 -36.667 -93.334 -78 -128.001s-88 -52 -140 -52s-91.333 17.333 -118 52s-34.667 77.334 -24 128.001s36.834 93.5 78.501 128.5s88.5 52.5 140.5 52.5s91.167 -17.5 117.5 -52.5s34.166 -77.833 23.499 -128.5zM316 172
c8 36 3.49902 66.167 -13.501 90.5s-42.833 36.5 -77.5 36.5s-65.5 -12.167 -92.5 -36.5s-44.5 -54.5 -52.5 -90.5c-7.33301 -36 -2.66602 -66.167 14.001 -90.5s42.334 -36.5 77.001 -36.5s65.667 12.167 93 36.5s44.666 54.5 51.999 90.5zM187.999 -96
c-2.66699 -13.333 -9.66602 -24.666 -20.999 -33.999s-23.333 -14 -36 -14s-22.5 4.66699 -29.5 14s-9.16699 20.666 -6.5 33.999s9.5 24.666 20.5 33.999s22.833 14 35.5 14s22.667 -4.66699 30 -14s9.66602 -20.666 6.99902 -33.999zM338 385h-54l-26 71l-55 -71h-55
l103 115h35z" />
    <glyph glyph-name="uni1EDA" unicode="&#x1a0;&#x301;" horiz-adv-x="518" 
d="M498 237c-14.667 -70 -48.834 -128.667 -102.501 -176s-114.834 -71 -183.501 -71s-119.5 23.667 -152.5 71s-42.167 106 -27.5 176s48.834 128.833 102.501 176.5s114.834 71.5 183.501 71.5c48 0 88 -12.333 120 -37c22 22 36.333 48.333 43 79h54
c-8.66699 -38.667 -31 -75.667 -67 -111c35.333 -47.333 45.333 -107 30 -179zM436 238c12 54.667 6.16992 100.5 -17.4971 137.5s-61.167 55.5 -112.5 55.5s-96.5 -18.5 -135.5 -55.5s-64.5 -82.833 -76.5 -137.5c-11.333 -54.667 -5.33301 -100.5 18 -137.5
s60.666 -55.5 111.999 -55.5s96.666 18.5 135.999 55.5s64.666 82.833 75.999 137.5zM359.003 636l53 -18l-105 -97h-48z" />
    <glyph glyph-name="uni1EDB" unicode="&#x1a1;&#x301;" horiz-adv-x="432" 
d="M378 172c-10.667 -50.667 -36.6689 -93.334 -78.002 -128.001s-88 -52 -140 -52s-91.333 17.333 -118 52s-34.667 77.334 -24 128.001s36.834 93.5 78.501 128.5s88.5 52.5 140.5 52.5c46.667 0 83.334 -15 110.001 -45c18 22 29.667 45.667 35 71h54
c-8 -36.667 -29.667 -73 -65 -109c12.667 -29.333 15 -62 7 -98zM315.998 172c8 36 3.49902 66.167 -13.501 90.5s-42.833 36.5 -77.5 36.5s-65.5 -12.167 -92.5 -36.5s-44.5 -54.5 -52.5 -90.5c-7.33301 -36 -2.66602 -66.167 14.001 -90.5s42.334 -36.5 77.001 -36.5
s65.667 12.167 93 36.5s44.666 54.5 51.999 90.5zM287.997 500l53 -18l-105 -97h-48z" />
    <glyph glyph-name="uni1EDC" unicode="&#x1a0;&#x300;" horiz-adv-x="518" 
d="M498 237c-14.667 -70 -48.834 -128.667 -102.501 -176s-114.834 -71 -183.501 -71s-119.5 23.667 -152.5 71s-42.167 106 -27.5 176s48.834 128.833 102.501 176.5s114.834 71.5 183.501 71.5c48 0 88 -12.333 120 -37c22 22 36.333 48.333 43 79h54
c-8.66699 -38.667 -31 -75.667 -67 -111c35.333 -47.333 45.333 -107 30 -179zM436 238c12 54.667 6.16992 100.5 -17.4971 137.5s-61.167 55.5 -112.5 55.5s-96.5 -18.5 -135.5 -55.5s-64.5 -82.833 -76.5 -137.5c-11.333 -54.667 -5.33301 -100.5 18 -137.5
s60.666 -55.5 111.999 -55.5s96.666 18.5 135.999 55.5s64.666 82.833 75.999 137.5zM391.003 521h-48l-63 97l61 18z" />
    <glyph glyph-name="uni1EDD" unicode="&#x1a1;&#x300;" horiz-adv-x="432" 
d="M378 172c-10.667 -50.667 -36.6689 -93.334 -78.002 -128.001s-88 -52 -140 -52s-91.333 17.333 -118 52s-34.667 77.334 -24 128.001s36.834 93.5 78.501 128.5s88.5 52.5 140.5 52.5c46.667 0 83.334 -15 110.001 -45c18 22 29.667 45.667 35 71h54
c-8 -36.667 -29.667 -73 -65 -109c12.667 -29.333 15 -62 7 -98zM315.998 172c8 36 3.49902 66.167 -13.501 90.5s-42.833 36.5 -77.5 36.5s-65.5 -12.167 -92.5 -36.5s-44.5 -54.5 -52.5 -90.5c-7.33301 -36 -2.66602 -66.167 14.001 -90.5s42.334 -36.5 77.001 -36.5
s65.667 12.167 93 36.5s44.666 54.5 51.999 90.5zM319.997 385h-48l-63 97l61 18z" />
    <glyph glyph-name="uni1EDE" unicode="&#x1a0;&#x309;" horiz-adv-x="518" 
d="M498 237c-14.667 -70 -48.834 -128.667 -102.501 -176s-114.834 -71 -183.501 -71s-119.5 23.667 -152.5 71s-42.167 106 -27.5 176s48.834 128.833 102.501 176.5s114.834 71.5 183.501 71.5c48 0 88 -12.333 120 -37c22 22 36.333 48.333 43 79h54
c-8.66699 -38.667 -31 -75.667 -67 -111c35.333 -47.333 45.333 -107 30 -179zM436 238c12 54.667 6.16992 100.5 -17.4971 137.5s-61.167 55.5 -112.5 55.5s-96.5 -18.5 -135.5 -55.5s-64.5 -82.833 -76.5 -137.5c-11.333 -54.667 -5.33301 -100.5 18 -137.5
s60.666 -55.5 111.999 -55.5s96.666 18.5 135.999 55.5s64.666 82.833 75.999 137.5zM417.003 617c-2.66699 -11.333 -7.83594 -21.502 -15.5029 -30.502s-15.667 -17.5 -24 -25.5l-23.5 -23.5c-7.33301 -7.66699 -12 -15.834 -14 -24.501h-45c2 10.667 7 20.334 15 29.001
s16.5 16.834 25.5 24.501s17.167 15.167 24.5 22.5s12 15 14 23c2.66699 11.333 1.83398 18.833 -2.49902 22.5s-10.833 5.5 -19.5 5.5c-11.333 0 -22.166 -3.66699 -32.499 -11s-17.166 -13 -20.499 -17l-21 22c7.33301 10.667 18.333 20.834 33 30.501
s32.667 14.5 54 14.5c19.333 0 34 -5 44 -15s12.667 -25.667 8 -47z" />
    <glyph glyph-name="uni1EDF" unicode="&#x1a1;&#x309;" horiz-adv-x="432" 
d="M378 172c-10.667 -50.667 -36.6689 -93.334 -78.002 -128.001s-88 -52 -140 -52s-91.333 17.333 -118 52s-34.667 77.334 -24 128.001s36.834 93.5 78.501 128.5s88.5 52.5 140.5 52.5c46.667 0 83.334 -15 110.001 -45c18 22 29.667 45.667 35 71h54
c-8 -36.667 -29.667 -73 -65 -109c12.667 -29.333 15 -62 7 -98zM315.998 172c8 36 3.49902 66.167 -13.501 90.5s-42.833 36.5 -77.5 36.5s-65.5 -12.167 -92.5 -36.5s-44.5 -54.5 -52.5 -90.5c-7.33301 -36 -2.66602 -66.167 14.001 -90.5s42.334 -36.5 77.001 -36.5
s65.667 12.167 93 36.5s44.666 54.5 51.999 90.5zM344.997 481c-2.66699 -11.333 -7.83594 -21.502 -15.5029 -30.502s-15.667 -17.5 -24 -25.5l-23.5 -23.5c-7.33301 -7.66699 -12 -15.834 -14 -24.501h-45c2 10.667 7 20.334 15 29.001s16.5 16.834 25.5 24.501
s17.167 15.167 24.5 22.5s12 15 14 23c2.66699 11.333 1.83398 18.833 -2.49902 22.5s-10.833 5.5 -19.5 5.5c-11.333 0 -22.166 -3.66699 -32.499 -11s-17.166 -13 -20.499 -17l-21 22c7.33301 10.667 18.333 20.834 33 30.501s32.667 14.5 54 14.5c19.333 0 34 -5 44 -15
s12.667 -25.667 8 -47z" />
    <glyph glyph-name="uni1EE0" unicode="&#x1a0;&#x303;" horiz-adv-x="518" 
d="M498 237c-14.667 -70 -48.834 -128.667 -102.501 -176s-114.834 -71 -183.501 -71s-119.5 23.667 -152.5 71s-42.167 106 -27.5 176s48.834 128.833 102.501 176.5s114.834 71.5 183.501 71.5c48 0 88 -12.333 120 -37c22 22 36.333 48.333 43 79h54
c-8.66699 -38.667 -31 -75.667 -67 -111c35.333 -47.333 45.333 -107 30 -179zM436 238c12 54.667 6.16992 100.5 -17.4971 137.5s-61.167 55.5 -112.5 55.5s-96.5 -18.5 -135.5 -55.5s-64.5 -82.833 -76.5 -137.5c-11.333 -54.667 -5.33301 -100.5 18 -137.5
s60.666 -55.5 111.999 -55.5s96.666 18.5 135.999 55.5s64.666 82.833 75.999 137.5zM439.003 592c-5.33301 -23.333 -14.1699 -41.8311 -26.5029 -55.498s-28.166 -20.5 -47.499 -20.5c-5.33301 0 -11.5 1.5 -18.5 4.5s-14.167 6.33301 -21.5 10s-14.5 7 -21.5 10
s-12.833 4.5 -17.5 4.5c-5.33301 0 -9.16602 -2.5 -11.499 -7.5s-4.16602 -10.5 -5.49902 -16.5h-44c4.66699 20 13.167 36.833 25.5 50.5s27.5 20.5 45.5 20.5c6 0 12.667 -1.33301 20 -4s14.166 -5.83398 20.499 -9.50098s12.833 -6.83398 19.5 -9.50098
s12.334 -4 17.001 -4c12.667 0 20.667 9 24 27h42z" />
    <glyph glyph-name="uni1EE1" unicode="&#x1a1;&#x303;" horiz-adv-x="432" 
d="M378 172c-10.667 -50.667 -36.6689 -93.334 -78.002 -128.001s-88 -52 -140 -52s-91.333 17.333 -118 52s-34.667 77.334 -24 128.001s36.834 93.5 78.501 128.5s88.5 52.5 140.5 52.5c46.667 0 83.334 -15 110.001 -45c18 22 29.667 45.667 35 71h54
c-8 -36.667 -29.667 -73 -65 -109c12.667 -29.333 15 -62 7 -98zM315.998 172c8 36 3.49902 66.167 -13.501 90.5s-42.833 36.5 -77.5 36.5s-65.5 -12.167 -92.5 -36.5s-44.5 -54.5 -52.5 -90.5c-7.33301 -36 -2.66602 -66.167 14.001 -90.5s42.334 -36.5 77.001 -36.5
s65.667 12.167 93 36.5s44.666 54.5 51.999 90.5zM367.997 456c-5.33301 -23.333 -14.1699 -41.8311 -26.5029 -55.498s-28.166 -20.5 -47.499 -20.5c-5.33301 0 -11.5 1.5 -18.5 4.5s-14.167 6.33301 -21.5 10s-14.5 7 -21.5 10s-12.833 4.5 -17.5 4.5
c-5.33301 0 -9.16602 -2.5 -11.499 -7.5s-4.16602 -10.5 -5.49902 -16.5h-44c4.66699 20 13.167 36.833 25.5 50.5s27.5 20.5 45.5 20.5c6 0 12.667 -1.33301 20 -4s14.166 -5.83398 20.499 -9.50098s12.833 -6.83398 19.5 -9.50098s12.334 -4 17.001 -4
c12.667 0 20.667 9 24 27h42z" />
    <glyph glyph-name="uni1EE2" unicode="&#x1a0;&#x323;" horiz-adv-x="518" 
d="M498 237c-14.667 -70 -48.834 -128.667 -102.501 -176s-114.834 -71 -183.501 -71s-119.5 23.667 -152.5 71s-42.167 106 -27.5 176s48.834 128.833 102.501 176.5s114.834 71.5 183.501 71.5c48 0 88 -12.333 120 -37c22 22 36.333 48.333 43 79h54
c-8.66699 -38.667 -31 -75.667 -67 -111c35.333 -47.333 45.333 -107 30 -179zM436 238c12 54.667 6.16992 100.5 -17.4971 137.5s-61.167 55.5 -112.5 55.5s-96.5 -18.5 -135.5 -55.5s-64.5 -82.833 -76.5 -137.5c-11.333 -54.667 -5.33301 -100.5 18 -137.5
s60.666 -55.5 111.999 -55.5s96.666 18.5 135.999 55.5s64.666 82.833 75.999 137.5zM241.003 -96c-2.66699 -13.333 -9.66602 -24.666 -20.999 -33.999s-23.333 -14 -36 -14s-22.5 4.66699 -29.5 14s-9.16699 20.666 -6.5 33.999s9.5 24.666 20.5 33.999s22.833 14 35.5 14
s22.667 -4.66699 30 -14s9.66602 -20.666 6.99902 -33.999z" />
    <glyph glyph-name="uni1EE3" unicode="&#x1a1;&#x323;" horiz-adv-x="432" 
d="M378 172c-10.667 -50.667 -36.6689 -93.334 -78.002 -128.001s-88 -52 -140 -52s-91.333 17.333 -118 52s-34.667 77.334 -24 128.001s36.834 93.5 78.501 128.5s88.5 52.5 140.5 52.5c46.667 0 83.334 -15 110.001 -45c18 22 29.667 45.667 35 71h54
c-8 -36.667 -29.667 -73 -65 -109c12.667 -29.333 15 -62 7 -98zM315.998 172c8 36 3.49902 66.167 -13.501 90.5s-42.833 36.5 -77.5 36.5s-65.5 -12.167 -92.5 -36.5s-44.5 -54.5 -52.5 -90.5c-7.33301 -36 -2.66602 -66.167 14.001 -90.5s42.334 -36.5 77.001 -36.5
s65.667 12.167 93 36.5s44.666 54.5 51.999 90.5zM197.997 -96c-2.66699 -13.333 -9.66602 -24.666 -20.999 -33.999s-23.333 -14 -36 -14s-22.5 4.66699 -29.5 14s-9.16699 20.666 -6.5 33.999s9.5 24.666 20.5 33.999s22.833 14 35.5 14s22.667 -4.66699 30 -14
s9.66602 -20.666 6.99902 -33.999z" />
    <glyph glyph-name="uni1EE4" unicode="U&#x323;" horiz-adv-x="482" 
d="M431 203c-30 -141.333 -108.668 -212 -236.001 -212s-176 70.667 -146 212l58 273h64l-58 -273c-22.667 -105.333 8.33301 -158 93 -158s138.334 52.667 161.001 158l58 273h64zM222.999 -96c-2.66699 -13.333 -9.66602 -24.666 -20.999 -33.999s-23.333 -14 -36 -14
s-22.5 4.66699 -29.5 14s-9.16699 20.666 -6.5 33.999s9.5 24.666 20.5 33.999s22.833 14 35.5 14s22.667 -4.66699 30 -14s9.66602 -20.666 6.99902 -33.999z" />
    <glyph glyph-name="uni1EE5" unicode="u&#x323;" horiz-adv-x="418" 
d="M354 4l-62.999 -11.999c-8 10.667 -13 30 -15 58c-48.667 -39.333 -92.334 -59 -131.001 -59c-76 0 -114 35 -114 105c0 17.333 2.33301 36.666 7 57.999l24 111c2 9.33301 3 19 3 29c0 14.667 -2 29.334 -6 44.001l60 12c6 -18 9 -36 9 -54
c0 -12.667 -1.33301 -25.334 -4 -38.001l-21 -98c-4 -18.667 -6 -33.667 -6 -45c0 -45.333 22.333 -68 67 -68c24.667 0 50.5 9.5 77.5 28.5s43.167 40.167 48.5 63.5l43 201h63l-53 -249c-1.33301 -6 -2 -13 -2 -21c0 -20 4.33301 -42 13 -66zM191.001 -95.999
c-2.66699 -13.333 -9.66602 -24.666 -20.999 -33.999s-23.333 -14 -36 -14s-22.5 4.66699 -29.5 14s-9.16699 20.666 -6.5 33.999s9.5 24.666 20.5 33.999s22.833 14 35.5 14s22.667 -4.66699 30 -14s9.66602 -20.666 6.99902 -33.999z" />
    <glyph glyph-name="uni1EE6" unicode="U&#x309;" horiz-adv-x="482" 
d="M431 203c-30 -141.333 -108.668 -212 -236.001 -212s-176 70.667 -146 212l58 273h64l-58 -273c-22.667 -105.333 8.33301 -158 93 -158s138.334 52.667 161.001 158l58 273h64zM397.999 613c-2.66699 -11.333 -7.83594 -21.502 -15.5029 -30.502
s-15.667 -17.5 -24 -25.5l-23.5 -23.5c-7.33301 -7.66699 -12 -15.834 -14 -24.501h-45c2 10.667 7 20.334 15 29.001s16.5 16.834 25.5 24.501s17.167 15.167 24.5 22.5s12 15 14 23c2.66699 11.333 1.83398 18.833 -2.49902 22.5s-10.833 5.5 -19.5 5.5
c-11.333 0 -22.166 -3.66699 -32.499 -11s-17.166 -13 -20.499 -17l-21 22c7.33301 10.667 18.333 20.834 33 30.501s32.667 14.5 54 14.5c19.333 0 34 -5 44 -15s12.667 -25.667 8 -47z" />
    <glyph glyph-name="uni1EE7" unicode="u&#x309;" horiz-adv-x="418" 
d="M354 4l-62.999 -11.999c-8 10.667 -13 30 -15 58c-48.667 -39.333 -92.334 -59 -131.001 -59c-76 0 -114 35 -114 105c0 17.333 2.33301 36.666 7 57.999l24 111c2 9.33301 3 19 3 29c0 14.667 -2 29.334 -6 44.001l60 12c6 -18 9 -36 9 -54
c0 -12.667 -1.33301 -25.334 -4 -38.001l-21 -98c-4 -18.667 -6 -33.667 -6 -45c0 -45.333 22.333 -68 67 -68c24.667 0 50.5 9.5 77.5 28.5s43.167 40.167 48.5 63.5l43 201h63l-53 -249c-1.33301 -6 -2 -13 -2 -21c0 -20 4.33301 -42 13 -66zM338.001 477.001
c-2.66699 -11.333 -7.83594 -21.502 -15.5029 -30.502s-15.667 -17.5 -24 -25.5l-23.5 -23.5c-7.33301 -7.66699 -12 -15.834 -14 -24.501h-45c2 10.667 7 20.334 15 29.001s16.5 16.834 25.5 24.501s17.167 15.167 24.5 22.5s12 15 14 23
c2.66699 11.333 1.83398 18.833 -2.49902 22.5s-10.833 5.5 -19.5 5.5c-11.333 0 -22.166 -3.66699 -32.499 -11s-17.166 -13 -20.499 -17l-21 22c7.33301 10.667 18.333 20.834 33 30.501s32.667 14.5 54 14.5c19.333 0 34 -5 44 -15s12.667 -25.667 8 -47z" />
    <glyph glyph-name="uni1EE8" unicode="&#x1af;&#x301;" horiz-adv-x="482" 
d="M431 203c-30 -141.333 -108.669 -212 -236.002 -212s-176 70.667 -146 212l58 273h64l-58 -273c-22.667 -105.333 8.33301 -158 93 -158s138.334 52.667 161.001 158l58 273h64l-9 -40c16.667 8 31.334 20.833 44.001 38.5s21 35.167 25 52.5h54
c-8.66699 -31.333 -26 -61.5 -52 -90.5s-53.667 -48.5 -83 -58.5zM339.998 636l53 -18l-105 -97h-48z" />
    <glyph glyph-name="uni1EE9" unicode="&#x1b0;&#x301;" horiz-adv-x="414" 
d="M354 4l-62.999 -11.999c-8 10.667 -13 30 -15 58c-48.667 -39.333 -92.334 -59 -131.001 -59c-76 0 -114 35 -114 105c0 17.333 2.33301 36.666 7 57.999l24 111c2 9.33301 3 19 3 29c0 14.667 -2 29.334 -6 44.001l60 12c6 -18 9 -36 9 -54
c0 -12.667 -1.33301 -25.334 -4 -38.001l-21 -98c-4 -18.667 -6 -33.667 -6 -45c0 -45.333 22.333 -68 67 -68c24.667 0 50.5 9.5 77.5 28.5s43.167 40.167 48.5 63.5l43 201h63l-13 -60c13.333 8 26.666 20.333 39.999 37c14.667 18.667 23.667 36.667 27 54h54
c-5.33301 -26 -20.666 -54 -45.999 -84c-28 -32 -57 -53.333 -87 -64l-28 -132c-1.33301 -6 -2 -13 -2 -21c0 -20 4.33301 -42 13 -66zM279.001 500.001l53 -18l-105 -97h-48z" />
    <glyph glyph-name="uni1EEA" unicode="&#x1af;&#x300;" horiz-adv-x="482" 
d="M431 203c-30 -141.333 -108.669 -212 -236.002 -212s-176 70.667 -146 212l58 273h64l-58 -273c-22.667 -105.333 8.33301 -158 93 -158s138.334 52.667 161.001 158l58 273h64l-9 -40c16.667 8 31.334 20.833 44.001 38.5s21 35.167 25 52.5h54
c-8.66699 -31.333 -26 -61.5 -52 -90.5s-53.667 -48.5 -83 -58.5zM372.998 521h-48l-63 97l61 18z" />
    <glyph glyph-name="uni1EEB" unicode="&#x1b0;&#x300;" horiz-adv-x="414" 
d="M354 4l-62.999 -11.999c-8 10.667 -13 30 -15 58c-48.667 -39.333 -92.334 -59 -131.001 -59c-76 0 -114 35 -114 105c0 17.333 2.33301 36.666 7 57.999l24 111c2 9.33301 3 19 3 29c0 14.667 -2 29.334 -6 44.001l60 12c6 -18 9 -36 9 -54
c0 -12.667 -1.33301 -25.334 -4 -38.001l-21 -98c-4 -18.667 -6 -33.667 -6 -45c0 -45.333 22.333 -68 67 -68c24.667 0 50.5 9.5 77.5 28.5s43.167 40.167 48.5 63.5l43 201h63l-13 -60c13.333 8 26.666 20.333 39.999 37c14.667 18.667 23.667 36.667 27 54h54
c-5.33301 -26 -20.666 -54 -45.999 -84c-28 -32 -57 -53.333 -87 -64l-28 -132c-1.33301 -6 -2 -13 -2 -21c0 -20 4.33301 -42 13 -66zM311.001 385.001h-48l-63 97l61 18z" />
    <glyph glyph-name="uni1EEC" unicode="&#x1af;&#x309;" horiz-adv-x="482" 
d="M431 203c-30 -141.333 -108.669 -212 -236.002 -212s-176 70.667 -146 212l58 273h64l-58 -273c-22.667 -105.333 8.33301 -158 93 -158s138.334 52.667 161.001 158l58 273h64l-9 -40c16.667 8 31.334 20.833 44.001 38.5s21 35.167 25 52.5h54
c-8.66699 -31.333 -26 -61.5 -52 -90.5s-53.667 -48.5 -83 -58.5zM397.998 613c-2.66699 -11.333 -7.83594 -21.502 -15.5029 -30.502s-15.667 -17.5 -24 -25.5l-23.5 -23.5c-7.33301 -7.66699 -12 -15.834 -14 -24.501h-45c2 10.667 7 20.334 15 29.001
s16.5 16.834 25.5 24.501s17.167 15.167 24.5 22.5s12 15 14 23c2.66699 11.333 1.83398 18.833 -2.49902 22.5s-10.833 5.5 -19.5 5.5c-11.333 0 -22.166 -3.66699 -32.499 -11s-17.166 -13 -20.499 -17l-21 22c7.33301 10.667 18.333 20.834 33 30.501
s32.667 14.5 54 14.5c19.333 0 34 -5 44 -15s12.667 -25.667 8 -47z" />
    <glyph glyph-name="uni1EED" unicode="&#x1b0;&#x309;" horiz-adv-x="414" 
d="M354 4l-62.999 -11.999c-8 10.667 -13 30 -15 58c-48.667 -39.333 -92.334 -59 -131.001 -59c-76 0 -114 35 -114 105c0 17.333 2.33301 36.666 7 57.999l24 111c2 9.33301 3 19 3 29c0 14.667 -2 29.334 -6 44.001l60 12c6 -18 9 -36 9 -54
c0 -12.667 -1.33301 -25.334 -4 -38.001l-21 -98c-4 -18.667 -6 -33.667 -6 -45c0 -45.333 22.333 -68 67 -68c24.667 0 50.5 9.5 77.5 28.5s43.167 40.167 48.5 63.5l43 201h63l-13 -60c13.333 8 26.666 20.333 39.999 37c14.667 18.667 23.667 36.667 27 54h54
c-5.33301 -26 -20.666 -54 -45.999 -84c-28 -32 -57 -53.333 -87 -64l-28 -132c-1.33301 -6 -2 -13 -2 -21c0 -20 4.33301 -42 13 -66zM336.001 477.001c-2.66699 -11.333 -7.83594 -21.502 -15.5029 -30.502s-15.667 -17.5 -24 -25.5l-23.5 -23.5
c-7.33301 -7.66699 -12 -15.834 -14 -24.501h-45c2 10.667 7 20.334 15 29.001s16.5 16.834 25.5 24.501s17.167 15.167 24.5 22.5s12 15 14 23c2.66699 11.333 1.83398 18.833 -2.49902 22.5s-10.833 5.5 -19.5 5.5c-11.333 0 -22.166 -3.66699 -32.499 -11
s-17.166 -13 -20.499 -17l-21 22c7.33301 10.667 18.333 20.834 33 30.501s32.667 14.5 54 14.5c19.333 0 34 -5 44 -15s12.667 -25.667 8 -47z" />
    <glyph glyph-name="uni1EEE" unicode="&#x1af;&#x303;" horiz-adv-x="482" 
d="M431 203c-30 -141.333 -108.669 -212 -236.002 -212s-176 70.667 -146 212l58 273h64l-58 -273c-22.667 -105.333 8.33301 -158 93 -158s138.334 52.667 161.001 158l58 273h64l-9 -40c16.667 8 31.334 20.833 44.001 38.5s21 35.167 25 52.5h54
c-8.66699 -31.333 -26 -61.5 -52 -90.5s-53.667 -48.5 -83 -58.5zM420.998 592c-5.33301 -23.333 -14.1699 -41.8311 -26.5029 -55.498s-28.166 -20.5 -47.499 -20.5c-5.33301 0 -11.5 1.5 -18.5 4.5s-14.167 6.33301 -21.5 10s-14.5 7 -21.5 10s-12.833 4.5 -17.5 4.5
c-5.33301 0 -9.16602 -2.5 -11.499 -7.5s-4.16602 -10.5 -5.49902 -16.5h-44c4.66699 20 13.167 36.833 25.5 50.5s27.5 20.5 45.5 20.5c6 0 12.667 -1.33301 20 -4s14.166 -5.83398 20.499 -9.50098s12.833 -6.83398 19.5 -9.50098s12.334 -4 17.001 -4
c12.667 0 20.667 9 24 27h42z" />
    <glyph glyph-name="uni1EEF" unicode="&#x1b0;&#x303;" horiz-adv-x="414" 
d="M354 4l-62.999 -11.999c-8 10.667 -13 30 -15 58c-48.667 -39.333 -92.334 -59 -131.001 -59c-76 0 -114 35 -114 105c0 17.333 2.33301 36.666 7 57.999l24 111c2 9.33301 3 19 3 29c0 14.667 -2 29.334 -6 44.001l60 12c6 -18 9 -36 9 -54
c0 -12.667 -1.33301 -25.334 -4 -38.001l-21 -98c-4 -18.667 -6 -33.667 -6 -45c0 -45.333 22.333 -68 67 -68c24.667 0 50.5 9.5 77.5 28.5s43.167 40.167 48.5 63.5l43 201h63l-13 -60c13.333 8 26.666 20.333 39.999 37c14.667 18.667 23.667 36.667 27 54h54
c-5.33301 -26 -20.666 -54 -45.999 -84c-28 -32 -57 -53.333 -87 -64l-28 -132c-1.33301 -6 -2 -13 -2 -21c0 -20 4.33301 -42 13 -66zM359.001 456.001c-5.33301 -23.333 -14.1699 -41.8311 -26.5029 -55.498s-28.166 -20.5 -47.499 -20.5c-5.33301 0 -11.5 1.5 -18.5 4.5
s-14.167 6.33301 -21.5 10s-14.5 7 -21.5 10s-12.833 4.5 -17.5 4.5c-5.33301 0 -9.16602 -2.5 -11.499 -7.5s-4.16602 -10.5 -5.49902 -16.5h-44c4.66699 20 13.167 36.833 25.5 50.5s27.5 20.5 45.5 20.5c6 0 12.667 -1.33301 20 -4s14.166 -5.83398 20.499 -9.50098
s12.833 -6.83398 19.5 -9.50098s12.334 -4 17.001 -4c12.667 0 20.667 9 24 27h42z" />
    <glyph glyph-name="uni1EF0" unicode="&#x1af;&#x323;" horiz-adv-x="482" 
d="M431 203c-30 -141.333 -108.669 -212 -236.002 -212s-176 70.667 -146 212l58 273h64l-58 -273c-22.667 -105.333 8.33301 -158 93 -158s138.334 52.667 161.001 158l58 273h64l-9 -40c16.667 8 31.334 20.833 44.001 38.5s21 35.167 25 52.5h54
c-8.66699 -31.333 -26 -61.5 -52 -90.5s-53.667 -48.5 -83 -58.5zM222.998 -96c-2.66699 -13.333 -9.66602 -24.666 -20.999 -33.999s-23.333 -14 -36 -14s-22.5 4.66699 -29.5 14s-9.16699 20.666 -6.5 33.999s9.5 24.666 20.5 33.999s22.833 14 35.5 14
s22.667 -4.66699 30 -14s9.66602 -20.666 6.99902 -33.999z" />
    <glyph glyph-name="uni1EF1" unicode="&#x1b0;&#x323;" horiz-adv-x="414" 
d="M354 4l-62.999 -11.999c-8 10.667 -13 30 -15 58c-48.667 -39.333 -92.334 -59 -131.001 -59c-76 0 -114 35 -114 105c0 17.333 2.33301 36.666 7 57.999l24 111c2 9.33301 3 19 3 29c0 14.667 -2 29.334 -6 44.001l60 12c6 -18 9 -36 9 -54
c0 -12.667 -1.33301 -25.334 -4 -38.001l-21 -98c-4 -18.667 -6 -33.667 -6 -45c0 -45.333 22.333 -68 67 -68c24.667 0 50.5 9.5 77.5 28.5s43.167 40.167 48.5 63.5l43 201h63l-13 -60c13.333 8 26.666 20.333 39.999 37c14.667 18.667 23.667 36.667 27 54h54
c-5.33301 -26 -20.666 -54 -45.999 -84c-28 -32 -57 -53.333 -87 -64l-28 -132c-1.33301 -6 -2 -13 -2 -21c0 -20 4.33301 -42 13 -66zM189.001 -95.999c-2.66699 -13.333 -9.66602 -24.666 -20.999 -33.999s-23.333 -14 -36 -14s-22.5 4.66699 -29.5 14
s-9.16699 20.666 -6.5 33.999s9.5 24.666 20.5 33.999s22.833 14 35.5 14s22.667 -4.66699 30 -14s9.66602 -20.666 6.99902 -33.999z" />
    <glyph glyph-name="Ygrave" unicode="Y&#x300;" horiz-adv-x="396" 
d="M186 0h-62l44 208l-117 268h73l86 -214l177 214h72l-229 -267zM330 521h-48l-63 97l61 18z" />
    <glyph glyph-name="ygrave" unicode="y&#x300;" horiz-adv-x="361" 
d="M165 7c-60.667 -88.667 -130.333 -141.332 -209 -157.999l-5 52c62 13.333 114.333 54.666 157 123.999l-84 315h69l64 -252l166 252h69zM284.001 385.002h-48l-63 97l61 18z" />
    <glyph glyph-name="uni1EF4" unicode="Y&#x323;" horiz-adv-x="396" 
d="M186 0h-62l44 208l-117 268h73l86 -214l177 214h72l-229 -267zM180 -96c-2.66699 -13.333 -9.66602 -24.666 -20.999 -33.999s-23.333 -14 -36 -14s-22.5 4.66699 -29.5 14s-9.16699 20.666 -6.5 33.999s9.5 24.666 20.5 33.999s22.833 14 35.5 14
s22.667 -4.66699 30 -14s9.66602 -20.666 6.99902 -33.999z" />
    <glyph glyph-name="uni1EF5" unicode="y&#x323;" horiz-adv-x="361" 
d="M165 7c-60.667 -88.667 -130.333 -141.332 -209 -157.999l-5 52c62 13.333 114.333 54.666 157 123.999l-84 315h69l64 -252l166 252h69zM271.001 -95.998c-2.66699 -13.333 -9.66602 -24.666 -20.999 -33.999s-23.333 -14 -36 -14s-22.5 4.66699 -29.5 14
s-9.16699 20.666 -6.5 33.999s9.5 24.666 20.5 33.999s22.833 14 35.5 14s22.667 -4.66699 30 -14s9.66602 -20.666 6.99902 -33.999z" />
    <glyph glyph-name="uni1EF6" unicode="Y&#x309;" horiz-adv-x="396" 
d="M186 0h-62l44 208l-117 268h73l86 -214l177 214h72l-229 -267zM354 613c-2.66699 -11.333 -7.83594 -21.502 -15.5029 -30.502s-15.667 -17.5 -24 -25.5l-23.5 -23.5c-7.33301 -7.66699 -12 -15.834 -14 -24.501h-45c2 10.667 7 20.334 15 29.001
s16.5 16.834 25.5 24.501s17.167 15.167 24.5 22.5s12 15 14 23c2.66699 11.333 1.83398 18.833 -2.49902 22.5s-10.833 5.5 -19.5 5.5c-11.333 0 -22.166 -3.66699 -32.499 -11s-17.166 -13 -20.499 -17l-21 22c7.33301 10.667 18.333 20.834 33 30.501
s32.667 14.5 54 14.5c19.333 0 34 -5 44 -15s12.667 -25.667 8 -47z" />
    <glyph glyph-name="uni1EF7" unicode="y&#x309;" horiz-adv-x="361" 
d="M165 7c-60.667 -88.667 -130.333 -141.332 -209 -157.999l-5 52c62 13.333 114.333 54.666 157 123.999l-84 315h69l64 -252l166 252h69zM309.001 477.002c-2.66699 -11.333 -7.83594 -21.502 -15.5029 -30.502s-15.667 -17.5 -24 -25.5l-23.5 -23.5
c-7.33301 -7.66699 -12 -15.834 -14 -24.501h-45c2 10.667 7 20.334 15 29.001s16.5 16.834 25.5 24.501s17.167 15.167 24.5 22.5s12 15 14 23c2.66699 11.333 1.83398 18.833 -2.49902 22.5s-10.833 5.5 -19.5 5.5c-11.333 0 -22.166 -3.66699 -32.499 -11
s-17.166 -13 -20.499 -17l-21 22c7.33301 10.667 18.333 20.834 33 30.501s32.667 14.5 54 14.5c19.333 0 34 -5 44 -15s12.667 -25.667 8 -47z" />
    <glyph glyph-name="uni1EF8" unicode="Y&#x303;" horiz-adv-x="396" 
d="M186 0h-62l44 208l-117 268h73l86 -214l177 214h72l-229 -267zM378 592c-5.33301 -23.333 -14.1699 -41.8311 -26.5029 -55.498s-28.166 -20.5 -47.499 -20.5c-5.33301 0 -11.5 1.5 -18.5 4.5s-14.167 6.33301 -21.5 10s-14.5 7 -21.5 10s-12.833 4.5 -17.5 4.5
c-5.33301 0 -9.16602 -2.5 -11.499 -7.5s-4.16602 -10.5 -5.49902 -16.5h-44c4.66699 20 13.167 36.833 25.5 50.5s27.5 20.5 45.5 20.5c6 0 12.667 -1.33301 20 -4s14.166 -5.83398 20.499 -9.50098s12.833 -6.83398 19.5 -9.50098s12.334 -4 17.001 -4
c12.667 0 20.667 9 24 27h42z" />
    <glyph glyph-name="uni1EF9" unicode="y&#x303;" horiz-adv-x="361" 
d="M165 7c-60.667 -88.667 -130.333 -141.332 -209 -157.999l-5 52c62 13.333 114.333 54.666 157 123.999l-84 315h69l64 -252l166 252h69zM332.001 456.002c-5.33301 -23.333 -14.1699 -41.8311 -26.5029 -55.498s-28.166 -20.5 -47.499 -20.5
c-5.33301 0 -11.5 1.5 -18.5 4.5s-14.167 6.33301 -21.5 10s-14.5 7 -21.5 10s-12.833 4.5 -17.5 4.5c-5.33301 0 -9.16602 -2.5 -11.499 -7.5s-4.16602 -10.5 -5.49902 -16.5h-44c4.66699 20 13.167 36.833 25.5 50.5s27.5 20.5 45.5 20.5c6 0 12.667 -1.33301 20 -4
s14.166 -5.83398 20.499 -9.50098s12.833 -6.83398 19.5 -9.50098s12.334 -4 17.001 -4c12.667 0 20.667 9 24 27h42z" />
    <glyph glyph-name="uni0E4F.liga" unicode="&#xe4f;&#x22;" horiz-adv-x="449" 
d="M279 163c4 17.333 1.16699 32.333 -8.5 45s-23.5 19 -41.5 19s-34.5 -6.33301 -49.5 -19s-24.5 -27.667 -28.5 -45c-4 -18 -1 -33.167 9 -45.5s24 -18.5 42 -18.5s34.333 6.16699 49 18.5s24 27.5 28 45.5zM314 163c-6 -27.333 -20.667 -50.833 -44 -70.5
s-48.666 -29.5 -75.999 -29.5s-48.666 9.83301 -63.999 29.5s-20 43.167 -14 70.5s20.667 50.666 44 69.999s48.666 29 75.999 29s48.666 -9.66699 63.999 -29s20 -42.666 14 -69.999zM349 163c8 37.333 1.83105 68.998 -18.502 94.998s-49.166 39 -86.499 39
c-36.667 0 -71 -13 -103 -39s-52 -57.667 -60 -95s-1.66699 -69.166 19 -95.499s49.334 -39.5 86.001 -39.5s71 13.333 103 40s52 58.334 60 95.001zM383.998 162.998c-10 -46.667 -35 -86.5 -75 -119.5s-83.333 -49.5 -130 -49.5s-83 16.5 -109 49.5s-34 72.833 -24 119.5
s35 86.5 75 119.5s83.333 49.5 130 49.5c45.333 0 81.333 -16.833 108 -50.5s35 -73.167 25 -118.5zM324.995 366.394h-36.7998l22.3994 154.398h56.7998zM227.396 366.394h-36l22.4004 154.398h56.7988z" />
    <glyph glyph-name="uni0E24.liga" unicode="&#xe24;&#xe32;" horiz-adv-x="598" 
d="M273 -107c-8 -38 -23.665 -62.666 -46.998 -73.999l-49 27c19.333 11.333 32.333 34.666 39 69.999l74 349c6 27.333 2.33301 49 -11 65s-33.666 24 -60.999 24c-40 0 -74 -17 -102 -51c30 -6 49 -21 57 -45c-38 -20 -60 -44 -66 -72l-10 -47c5.33301 2.66699 12 4 20 4
c20.667 0 36.667 -7.16699 48 -21.5s14.666 -32.166 9.99902 -53.499s-15.834 -39.333 -33.501 -54s-37.167 -22 -58.5 -22c-22 0 -39 7.66699 -51 23s-15.667 34.666 -11 57.999l25 117c6 28 24.333 50 55 66c-14 11.333 -33.667 15.333 -59 12
c10.667 41.333 34 75.333 70 102c33.333 24.667 71.666 37 114.999 37c48 0 83.167 -12.833 105.5 -38.5s28.833 -60.5 19.5 -104.5zM135.002 67.001c2 9.33301 0.333008 17.333 -5 24s-12.666 10 -21.999 10s-18 -3.33301 -26 -10s-13 -14.667 -15 -24
s-0.333008 -17.333 5 -24s12.666 -10 21.999 -10s18 3.33301 26 10s13 14.667 15 24zM480.002 -106.999c-8 -38 -23.667 -62.666 -47 -73.999l-49 27c19.333 11.333 32.333 34.666 39 69.999l79 375c4 18.667 1 33.834 -9 45.501s-26 17.5 -48 17.5
s-41.5 -7.33301 -58.5 -22s-28.167 -33.334 -33.5 -56.001h-60c10.667 40 30.5 71.833 59.5 95.5s63.5 35.5 103.5 35.5c37.333 0 66.833 -9.5 88.5 -28.5s28.5 -47.833 20.5 -86.5z" />
    <glyph glyph-name="uni0E26.liga" unicode="&#xe26;&#xe32;" horiz-adv-x="629" 
d="M88 68c2 9.33301 0.333008 17.333 -5 24s-12.666 10 -21.999 10s-18 -3.33301 -26 -10s-13 -14.667 -15 -24s-0.333008 -17.333 5 -24s12.666 -10 21.999 -10s18 3.33301 26 10s13 14.667 15 24zM307 -107c-8 -38 -23.6689 -62.666 -47.002 -73.999l-49 27
c19.333 11.333 32.333 34.666 39 69.999l74 349c5.33301 26.667 1 48.167 -13 64.5s-34.333 24.5 -61 24.5c-40.667 0 -74 -17 -100 -51c31.333 -6.66699 50.333 -21.667 57 -45c-20 -10 -33.667 -18.333 -41 -25c-10.667 -10.667 -18 -25 -22 -43
c-3.33301 -14.667 -6.16602 -35.834 -8.49902 -63.501s-4.83301 -47.167 -7.5 -58.5c-4.66699 -21.333 -15.667 -39.333 -33 -54s-36.333 -22 -57 -22c-21.333 0 -37.666 7.33301 -48.999 22s-14.666 32.667 -9.99902 54c4.66699 20.667 15.667 38.334 33 53.001
s36 22 56 22c8 0 12.667 -1 14 -3l7 62c5.33301 23.333 20.666 41.333 45.999 54c-16 8 -35.667 11.667 -59 11c10 42 32.667 76.333 68 103c34 24.667 72.667 37 116 37c46.667 0 81.5 -13 104.5 -39s30.167 -60.667 21.5 -104zM510.998 -106.999
c-8 -38 -23.667 -62.666 -47 -73.999l-49 27c19.333 11.333 32.333 34.666 39 69.999l79 375c4 18.667 1 33.834 -9 45.501s-26 17.5 -48 17.5s-41.5 -7.33301 -58.5 -22s-28.167 -33.334 -33.5 -56.001h-60c10.667 40 30.5 71.833 59.5 95.5s63.5 35.5 103.5 35.5
c37.333 0 66.833 -9.5 88.5 -28.5s28.5 -47.833 20.5 -86.5z" />
    <glyph glyph-name="fi" unicode="fi" horiz-adv-x="405" 
d="M314 0h-62.999l61 288h-158l-57 -267c-24.667 -114 -81.334 -171 -170.001 -171c-28 0 -50 7.33301 -66 22l28 47c20.667 -10 37.667 -15 51 -15c46 0 77.333 39 94 117l57 267h-57l11 52h58c11.333 54 34.5 96 69.5 126s75.5 45 121.5 45c48 0 83.667 -18 107 -54
l-43 -45c-19.333 30 -45 45 -77 45c-24 0 -47 -10 -69 -30c-24 -22 -39.667 -51 -47 -87h221z" />
    <glyph glyph-name="fl" unicode="fl" horiz-adv-x="455" 
d="M417 49l-18.9971 -57.001c-98.667 4.66699 -135.334 65.667 -110.001 183l54 257c-16 16.667 -36.333 25 -61 25c-24 0 -47 -10 -69 -30c-24 -22 -39.667 -51 -47 -87h118l-11 -52h-118l-57 -267c-24.667 -114 -81.334 -171 -170.001 -171c-28 0 -50 7.33301 -66 22
l28 47c20.667 -10 37.667 -15 51 -15c46 0 77.333 39 94 117l57 267h-57l11 52h58c11.333 54 34.5 96 69.5 126s75.5 45 121.5 45c53.333 0 91.666 -21.333 114.999 -64l-55 -258c-11.333 -51.333 -11 -87.666 1 -108.999c10 -18 30.667 -28.333 62 -31z" />
    <glyph glyph-name="PSK" unicode="PSK&#x2e;Design&#x28;c&#x29;" horiz-adv-x="954" 
d="M212 520c0 18.667 -14.667 28 -44 28h-38v-57h38c29.333 0 44 9.66699 44 29zM271 519c0 -48.667 -33.333 -73 -100 -73h-41v-80h-58v225h110c59.333 0 89 -24 89 -72zM779 366l-82 114v-114h-60v225h60v-96l82 96h70l-89 -100l96 -125h-77zM916 666
c-3.33301 -17.333 -13.333 -26 -30 -26c-20.667 0 -31 12 -31 36s10.333 36 31 36c18 0 27.667 -8 29 -24h-16c-2 6.66699 -6.33301 10 -13 10c-8.66699 0 -13 -7 -13 -21c0 -16 4.66699 -24 14 -24c7.33301 0 11.333 4.33301 12 13h17zM237 120
c0 17.333 -8.33301 26 -25 26c-18 0 -27 -8.33301 -27 -25s9 -25 27 -25c16.667 0 25 8 25 24zM261 121c0 -28 -17 -42 -51 -42c-32 0 -48 14 -48 42c0 27.333 16.667 41 50 41c32.667 0 49 -13.667 49 -41zM325 135c0 6.66699 -5.66699 10 -17 10h-15v-21h15
c11.333 0 17 3.66699 17 11zM348 135c0 -18 -12.667 -27 -38 -27h-17v-25h-21v79h41c23.333 0 35 -9 35 -27zM404 83h-23v28l-36 51h26l24 -34c2 2.66699 9.33301 14 22 34h23l-36 -52v-27zM196 17l-7 17l-8 -17h15zM215 0h-13l-4 9h-20l-4 -9h-12l20 43h15zM689 0h-34v43
h34v-9h-23v-8h21v-8h-21v-9h23v-9zM774 43l-17 -43h-12l-18 43h12l12 -32l12 32h11zM847 21c0 8.66699 -4.33301 13 -13 13h-8v-24h8c8.66699 0 13 3.66699 13 11zM858 21c0 -14 -8 -21 -24 -21h-20v43h20c16 0 24 -7.33301 24 -22zM249 0h-32v43h10v-34h22v-9zM332 30
c0 3.33301 -2.66699 5 -8 5h-6v-9h6c5.33301 0 8 1.33301 8 4zM345 32c0 -5.33301 -2.66699 -9.00098 -8 -11.001c4 -1.33301 7.33301 -8.33301 10 -21h-13c0 2.66699 -0.333008 5.33398 -1 8.00098c-2 6 -5 9 -9 9h-6v-17h-11v43h21c11.333 0 17 -3.66699 17 -11z
M361 42.999v-43h-9v43h9zM412 2.99902c-6 -2.66699 -12.334 -4 -19.001 -4c-17.333 0 -26 7.33301 -26 22c0 15.333 8.33301 23 25 23c12.667 0 19.334 -5.33301 20.001 -16h-11c-0.666992 4.66699 -3.66699 7 -9 7c-8.66699 0 -13 -4.33301 -13 -13
c0 -9.33301 4.66699 -14 14 -14c3.33301 0 6 0.333008 8 1v7h-9v8h20v-21zM461.999 -0.000976562h-11v18h-22v-18h-11v43h11v-17h22v17h11v-43zM505.999 33.999h-14v-34h-12v34h-15v9h41v-9zM564.999 82.999h-25v79h25v-79zM667.999 85.999c-12 -3.33301 -25.667 -5 -41 -5
c-34 0 -51 13.667 -51 41s16.333 41 49 41c26.667 0 41 -9 43 -27h-26c-1.33301 7.33301 -7.33301 11 -18 11c-16 0 -24 -8 -24 -24c0 -17.333 9 -26 27 -26l16 2v14h-19v13h44v-40zM767.999 82.999h-23v32h-40v-32h-24v79h24v-31h40v31h23v-79zM863.999 143.999h-33v-61
h-23v61h-31v18h87v-18zM505.999 136.999c0 5.33301 -6 8 -18 8h-15v-19h15c12 0 18 3.66699 18 11zM530.999 82.999h-21.999l-5 20c-0.666992 6.66699 -6.33398 10 -17.001 10h-14v-30h-23v79h45c22.667 0 34 -7 34 -21c0 -8.66699 -5.66699 -15 -17 -19
c10 -2 15 -8.33301 15 -19zM650 12.999c0 -9.33301 -6.66699 -14 -20 -14c-12 0 -18 5.33301 -18 16h11c0 -4.66699 2.66699 -7 8 -7c4.66699 0 7 1.33301 7 4c0 0.666992 -4.16699 2.5 -12.5 5.5s-12.5 7.16699 -12.5 12.5c0 9.33301 6 14 18 14s18 -4.66699 18 -14h-11
c0 4 -2.33301 6 -7 6s-7 -1.66699 -7 -5c0 -2.66699 4.33301 -5 13 -7s13 -5.66699 13 -11zM809 -0.000976562h-33v43h33v-9h-21v-8h20v-8h-20v-9h21v-9zM608 8.99902v-9h-34v43h33v-9h-22v-8h21v-8h-21v-9h23zM156 108.999c-2 -20 -16.333 -30 -43 -30
c-31.333 0 -47 14.333 -47 43c0 28 16.333 42 49 42c24.667 0 38.334 -10 41.001 -30h-26c-0.666992 8.66699 -6.33398 13 -17.001 13c-15.333 0 -23 -8.33301 -23 -25s7.33301 -25 22 -25c11.333 0 17.333 4 18 12h26zM867 198.999h-809v25h809v-25zM562 405.999
c0 -52.667 -19.332 -91.3291 -57.999 -115.996c-30.667 -20 -70 -30 -118 -30c-40.667 0 -72.5 8.66699 -95.5 26s-34.5 41.666 -34.5 72.999c0 10.667 1.33301 21 4 31h38c-0.666992 -4.66699 -1 -10.334 -1 -17.001c0 -52.667 33 -79 99 -79c29.333 0 55.666 7 78.999 21
c30 18 45 43.667 45 77c0 25.333 -17.333 44.666 -52 57.999l-95 32c-34.667 14.667 -52 36 -52 64c0 45.333 17.333 80 52 104c30.667 20.667 70.334 31 119.001 31c33.333 0 59.833 -7 79.5 -21s29.5 -33.667 29.5 -59c0 -10 -1.66699 -21 -5 -33h-36
c1.33301 9.33301 2 15.666 2 18.999c0 40 -22 60 -66 60c-40 0 -71.833 -7.66699 -95.5 -23s-35.5 -36 -35.5 -62c0 -17.333 6 -30.333 18 -39s37.167 -18.5 75.5 -29.5s65.166 -23 80.499 -36s23 -30.167 23 -51.5zM947.001 675.004c0 -17.333 -5.66699 -31.333 -17 -42
s-25.666 -16 -42.999 -16c-16.667 0 -30.5 5.33301 -41.5 16s-16.5 24.667 -16.5 42s5.5 31.5 16.5 42.5s24.833 16.5 41.5 16.5c17.333 0 31.666 -5.5 42.999 -16.5s17 -25.167 17 -42.5zM938.001 674.004c0 14 -5 25.833 -15 35.5s-22 14.5 -36 14.5
c-13.333 0 -24.666 -4.83301 -33.999 -14.5s-14 -21.5 -14 -35.5s4.66699 -25.667 14 -35s20.666 -14 33.999 -14c14 0 26 4.66699 36 14s15 21 15 35zM557.001 30.0039c0 3.33301 -2.33301 5 -7 5h-7v-9h7c4.66699 0 7 1.33301 7 4zM569.001 32.0039
c0 -5.33301 -2.66699 -9.00098 -8 -11.001c4 -1.33301 7.33301 -8.33301 10 -21h-12c0 2.66699 -0.333008 5.33398 -1 8.00098c-2 6 -4.66699 9 -8 9h-7v-17h-12v43h22c10.667 0 16 -3.66699 16 -11zM702.001 26.0029h7c4.66699 0 7 1.33301 7 4c0 3.33301 -2.33301 5 -7 5
h-7v-9zM730.001 0.00292969l-12 -0.000976562c0 2.66699 -0.333008 5.33398 -1 8.00098c-2 6 -4.66699 9 -8 9h-7v-17h-10v43h21c10 0 15 -3.66699 15 -11c0 -5.33301 -2.66699 -9 -8 -11c4 -1.33301 7.33301 -8.33301 10 -21zM284.001 0.00195312h-32v43h10v-34h22v-9z" />
    <glyph glyph-name=".notdef" horiz-adv-x="698" 
d="M645 0h-592v809h592v-809zM609 31v747h-520v-747h520z" />
    <glyph glyph-name="space" unicode=" " horiz-adv-x="226" 
 />
    <glyph glyph-name="exclam" unicode="!" horiz-adv-x="168" 
d="M96 139h-56l65 337h72zM96 39c-2.66699 -13.333 -9.66504 -24.666 -20.998 -33.999s-23.666 -14 -36.999 -14s-23.5 4.66699 -30.5 14s-9.5 20.666 -7.5 33.999c2.66699 13.333 9.66699 24.666 21 33.999s23.666 14 36.999 14s23.666 -4.66699 30.999 -14
s9.66602 -20.666 6.99902 -33.999z" />
    <glyph glyph-name="quotedbl" unicode="&#x22;" horiz-adv-x="291" 
d="M255 333h-46l28 193h71zM133 333h-45l28 193h71z" />
    <glyph glyph-name="numbersign" unicode="#" horiz-adv-x="462" 
d="M278 0h-59l50 142h-129l-47 -142h-59l47 142h-62l11 53h69l31 89h-68l11 54h74l48 137h57l-46 -137h127l46 137h59l-46 -137h63l-11 -54h-71l-30 -89h67l-11 -53h-72zM285 195l31 89h-128l-30 -89h127z" />
    <glyph glyph-name="dollar" unicode="$" horiz-adv-x="367" 
d="M309 138c-6 -28 -21.5049 -53.335 -46.5049 -76.002s-55.167 -37.667 -90.5 -45l-15 -72h-59l15 70c-43.333 4 -77.666 17.667 -102.999 41l38 48c24 -23.333 56.333 -35 97 -35c26.667 0 49.334 6.16699 68.001 18.5s30 28.5 34 48.5
c6.66699 31.333 -14.333 58.333 -63 81c-77.333 36 -110.666 78.333 -99.999 127c6 28.667 20.667 53.334 44 74.001s52.333 34.334 87 41.001l16 74h58l-16 -73c30.667 -4 60.334 -15 89.001 -33l-40 -49c-18.667 19.333 -47.667 29 -87 29
c-22 0 -41.5 -5.16699 -58.5 -15.5s-27.167 -24.5 -30.5 -42.5c-5.33301 -25.333 18.334 -51 71.001 -77c40 -19.333 66.833 -39 80.5 -59s17.5 -45 11.5 -75z" />
    <glyph glyph-name="percent" unicode="%" horiz-adv-x="688" 
d="M171 -9h-61l408 485h61zM303 338c-20.667 -97.333 -70.667 -146 -150 -146c-78.667 0 -107.667 48.667 -87 146c21.333 98 71.333 147 150 147c79.333 0 108.333 -49 87 -147zM244 338c13.333 62.667 0 94 -40 94c-38.667 0 -64.667 -31.333 -78 -94
c-12.667 -61.333 0.333008 -92 39 -92c40 0 66.333 30.667 79 92zM634 139c-20.667 -98 -71.001 -147 -151.001 -147c-79.333 0 -108.666 49 -87.999 147c20.667 97.333 70.667 146 150 146c80 0 109.667 -48.667 89 -146zM573.999 139
c13.333 62.667 -0.000976562 94 -40.001 94c-39.333 0 -65.666 -31.333 -78.999 -94c-13.333 -62 -0.333008 -93 39 -93c40 0 66.667 31 80 93z" />
    <glyph glyph-name="ampersand" unicode="&#x26;" horiz-adv-x="486" 
d="M373 -14l-55.001 62c-60.667 -38 -118 -57 -172 -57c-45.333 0 -80 14 -104 42s-31.667 61.667 -23 101c12.667 59.333 54.334 106.333 125.001 141c-18 32 -23.667 63 -17 93c7.33301 34.667 25.666 64 54.999 88s63 36 101 36c32.667 0 57.5 -9.83301 74.5 -29.5
s22.167 -44.834 15.5 -75.501c-11.333 -52.667 -58.666 -96.667 -141.999 -132c22.667 -33.333 55.667 -76.333 99 -129c42 42.667 70.667 89.334 86 140.001h53c-24.667 -72 -59.667 -131 -105 -177l68 -75zM313.999 384c8 38 -7 56.998 -45 56.998
c-20 0 -37.333 -6.66699 -52 -20s-24 -29.666 -28 -48.999c-4.66699 -19.333 2.33301 -44 21 -74c63.333 28.667 98 57.334 104 86.001zM285.999 84.998l-114 147.999c-51.333 -26 -81 -57.667 -89 -95c-6 -27.333 -1.16699 -49.666 14.5 -66.999s38.167 -26 67.5 -26
c44 0 84.333 13.333 121 40z" />
    <glyph glyph-name="quotesingle" unicode="'" horiz-adv-x="169" 
d="M133 333h-45l28 193h71z" />
    <glyph glyph-name="parenleft" unicode="(" horiz-adv-x="244" 
d="M106 -55c-61.333 81.333 -80.333 178.001 -57 290.001c22.667 104.667 82 203 178 295h74c-104 -92.667 -167.333 -191 -190 -295c-20.667 -98.667 1 -195.334 65 -290.001h-70z" />
    <glyph glyph-name="parenright" unicode=")" horiz-adv-x="244" 
d="M205 238c-23.333 -109.333 -83.334 -207 -180.001 -293h-68c103.333 99.333 165.333 197 186 293c20.667 96.667 -0.666016 194 -63.999 292h69c61.333 -84.667 80.333 -182 57 -292z" />
    <glyph glyph-name="asterisk" unicode="*" horiz-adv-x="343" 
d="M280 277l-57 -30l-26 86l-62 -86l-45 30l79 77l-101 -9l11 52l97 -8l-45 77l57 30l26 -86l62 86l45 -30l-79 -77l101 8l-11 -51l-97 8z" />
    <glyph glyph-name="plus" unicode="+" horiz-adv-x="417" 
d="M196 0h-63l33 157h-148l12 55h148l32 151h63l-32 -151h148l-12 -55h-148z" />
    <glyph glyph-name="comma" unicode="," horiz-adv-x="172" 
d="M100 37c-14 -66 -54 -113.999 -120 -143.999l-15 29c39.333 21.333 64.333 44.666 75 69.999c-31.333 2 -44 18.667 -38 50c3.33301 14 10.833 25.833 22.5 35.5s24.167 14.5 37.5 14.5c14 0 24.667 -5.16699 32 -15.5s9.33301 -23.5 6 -39.5z" />
    <glyph glyph-name="hyphen" unicode="-" horiz-adv-x="226" 
d="M191 157h-198l21 54h199z" />
    <glyph glyph-name="hyphen" unicode="&#xad;" horiz-adv-x="226" 
d="M191 157h-198l21 54h199z" />
    <glyph glyph-name="period" unicode="." horiz-adv-x="172" 
d="M98 39c-2.66699 -13.333 -9.66504 -24.666 -20.998 -33.999s-23.666 -14 -36.999 -14s-23.5 4.66699 -30.5 14s-9.5 20.666 -7.5 33.999c2.66699 13.333 9.66699 24.666 21 33.999s23.666 14 36.999 14s23.666 -4.66699 30.999 -14s9.66602 -20.666 6.99902 -33.999z" />
    <glyph glyph-name="slash" unicode="/" horiz-adv-x="276" 
d="M-15 -28h-64l376 520h64z" />
    <glyph glyph-name="zero" unicode="0" horiz-adv-x="378" 
d="M354 235c-14 -67.333 -40 -124.833 -78 -172.5s-83 -71.5 -135 -71.5c-50 0 -84 23.833 -102 71.5s-20 105.167 -6 172.5c14.667 67.333 41 124.833 79 172.5s82 71.5 132 71.5c52 0 87 -23.833 105 -71.5s19.667 -105.167 5 -172.5zM290 235
c12 56 13.833 101.5 5.5 136.5s-28.5 52.5 -60.5 52.5c-32.667 0 -60.834 -17.5 -84.501 -52.5s-41.5 -80.5 -53.5 -136.5c-11.333 -56 -12.833 -101.5 -4.5 -136.5s28.5 -52.5 60.5 -52.5c32.667 0 60.834 17.5 84.501 52.5s41.167 80.5 52.5 136.5z" />
    <glyph glyph-name="one" unicode="1" horiz-adv-x="378" 
d="M263 0h-211l10 51h74l71 332l-74 -53l-29 41l150 107c24.667 0 33.667 -16 27 -48l-81 -379h73z" />
    <glyph glyph-name="two" unicode="2" horiz-adv-x="378" 
d="M304 0h-324c12 29.333 22.667 53.333 32 72c22 21.333 86 73.333 192 156c65.333 51.333 101.666 93.333 108.999 126c9.33301 44 -12 66 -64 66c-51.333 0 -88.333 -29.667 -111 -89l-56 15c14 42.667 37.667 75.667 71 99c31.333 22 67.666 33 108.999 33
c40.667 0 71.834 -12 93.501 -36s28.5 -54.333 20.5 -91c-6.66699 -32.667 -31.667 -69.667 -75 -111c-26.667 -24.667 -69.667 -59 -129 -103c-53.333 -39.333 -86.666 -66.333 -99.999 -81h255z" />
    <glyph glyph-name="three" unicode="3" horiz-adv-x="378" 
d="M336 165c-11.333 -52 -38.833 -93.833 -82.5 -125.5s-95.5 -47.5 -155.5 -47.5c-45.333 0 -81.333 14 -108 42l38 51c25.333 -21.333 56.333 -32 93 -32c34.667 0 67 11 97 33s48 47.667 54 77c4.66699 21.333 1.66699 39.333 -9 54s-26.334 22 -47.001 22
c-24.667 0 -50.334 -9.66699 -77.001 -29l-18 44c36.667 18.667 70.334 39.667 101.001 63c36 28 55.667 50.667 59 68c6 26 -9.33301 39 -46 39c-24 0 -47.833 -7.66699 -71.5 -23s-42.167 -33.333 -55.5 -54l-40 23c20 33.333 46.167 59.666 78.5 78.999s66.5 29 102.5 29
c32 0 56.833 -8.33301 74.5 -25s23.834 -39 18.501 -67c-6 -27.333 -33.333 -58.666 -82 -93.999c30 -6 51.833 -20.333 65.5 -43s17.167 -50.667 10.5 -84z" />
    <glyph glyph-name="four" unicode="4" horiz-adv-x="378" 
d="M219 160l51.001 244.002c-36 -20.667 -71.833 -54.334 -107.5 -101.001s-62.834 -94.334 -81.501 -143.001h138zM249.001 0.00195312h-64l22 106h-201c18 83.333 62.167 166.5 132.5 249.5s141.5 127.5 213.5 133.5l-69 -329h64l-19 -54h-57z" />
    <glyph glyph-name="five" unicode="5" horiz-adv-x="378" 
d="M337 168c-10.667 -52 -37.8369 -94.334 -81.5039 -127.001s-94.5 -49 -152.5 -49c-49.333 0 -87 14.333 -113 43l36 46c32 -23.333 63.667 -35 95 -35c34.667 0 66.834 11.5 96.501 34.5s48.167 51.833 55.5 86.5c6 28.667 1.33301 50.834 -14 66.501
s-38.666 23.5 -69.999 23.5s-54 -11 -68 -33l-40 -2l71 254h238l-23 -54h-166l-31 -116c12.667 5.33301 27.334 8 44.001 8c44 0 77.833 -13.667 101.5 -41s30.834 -62.333 21.501 -105z" />
    <glyph glyph-name="six" unicode="6" horiz-adv-x="378" 
d="M328 150c-9.33301 -44.667 -30.668 -82.167 -64.001 -112.5s-71 -45.5 -113 -45.5c-46.667 0 -81.667 16.333 -105 49s-29.333 76 -18 130c16 76.667 55.667 144.334 119 203.001s137.333 96 222 112l-5 -50c-44 -11.333 -88.167 -31.833 -132.5 -61.5
s-78.833 -62.834 -103.5 -99.501c25.333 20.667 56 31 92 31c40 0 70.333 -15 91 -45s26.334 -67 17.001 -111zM269.998 150c6 26.667 2.50098 50.333 -10.499 71s-31.5 31 -55.5 31c-25.333 0 -48.833 -9.83301 -70.5 -29.5s-35.834 -43.834 -42.501 -72.501
c-6 -28 -2.16699 -52 11.5 -72s33.167 -30 58.5 -30c24 0 46.833 10.333 68.5 31s35.167 44.334 40.5 71.001z" />
    <glyph glyph-name="seven" unicode="7" horiz-adv-x="378" 
d="M153 0l-65.001 -0.000976562c44.667 186 121.334 326.667 230.001 422h-245l27 54h311l-21 -54c-64.667 -64 -114.334 -125.333 -149.001 -184c-39.333 -67.333 -68.666 -146.666 -87.999 -237.999z" />
    <glyph glyph-name="eight" unicode="8" horiz-adv-x="378" 
d="M269 131c5.33301 24.667 1.83203 47 -10.501 67s-33.833 31 -64.5 33c-32 -2 -58.5 -13 -79.5 -33s-34.167 -42.333 -39.5 -67c-5.33301 -26 -0.666016 -46.667 14.001 -62s36.334 -23 65.001 -23s53.667 7.66699 75 23s34.666 36 39.999 62zM302.999 355
c4 20 -0.166016 36.667 -12.499 50s-30.833 20 -55.5 20s-46.167 -6.66699 -64.5 -20s-29.5 -30 -33.5 -50c-6.66699 -32.667 15.666 -56.667 66.999 -72c59.333 15.333 92.333 39.333 99 72zM331 134c-9.33301 -44 -31 -78.667 -65 -104s-75.333 -38 -124 -38
c-48 0 -83.5 12.667 -106.5 38s-29.833 60 -20.5 104c5.33301 26.667 18 51.334 38 74.001s42.667 39.334 68 50.001c-38 23.333 -53 54.666 -45 93.999c8 36.667 28 67 60 91s68.667 36 110 36s73 -12 95 -36s29 -54.333 21 -91c-8 -39.333 -36.333 -70.666 -85 -93.999
c21.333 -10.667 37 -27.334 47 -50.001s12.333 -47.334 7 -74.001z" />
    <glyph glyph-name="nine" unicode="9" horiz-adv-x="378" 
d="M360 299c-16 -76.667 -55.666 -144.333 -118.999 -203s-137.333 -96 -222 -112l5 50c42.667 10.667 87.667 32 135 64s82.333 64.667 105 98c-24 -21.333 -56 -32 -96 -32s-70.5 15 -91.5 45s-26.5 67 -16.5 111c9.33301 44.667 30.666 82.167 63.999 112.5
s71 45.5 113 45.5c46.667 0 81.667 -16.333 105 -49s29.333 -76 18 -130zM297.001 320.001c5.33301 28 1.33105 52.001 -12.002 72.001s-32.666 30 -57.999 30c-24 0 -46.833 -10.333 -68.5 -31s-35.167 -44.334 -40.5 -71.001c-6 -26.667 -2.5 -50.334 10.5 -71.001
s31.5 -31 55.5 -31c25.333 0 48.833 9.83301 70.5 29.5s35.834 43.834 42.501 72.501z" />
    <glyph glyph-name="colon" unicode=":" horiz-adv-x="172" 
d="M98 39c-2.66699 -13.333 -9.66504 -24.666 -20.998 -33.999s-23.666 -14 -36.999 -14s-23.5 4.66699 -30.5 14s-9.5 20.666 -7.5 33.999c2.66699 13.333 9.66699 24.666 21 33.999s23.666 14 36.999 14s23.666 -4.66699 30.999 -14s9.66602 -20.666 6.99902 -33.999z
M150.002 285c-2.66699 -13.333 -9.66699 -24.666 -21 -33.999s-23.666 -14 -36.999 -14s-23.666 4.66699 -30.999 14s-9.66602 20.666 -6.99902 33.999s9.66699 24.666 21 33.999s23.666 14 36.999 14s23.666 -4.66699 30.999 -14s9.66602 -20.666 6.99902 -33.999z" />
    <glyph glyph-name="semicolon" unicode=";" horiz-adv-x="172" 
d="M150 285c-2.66699 -13.333 -9.66699 -24.666 -21 -33.999s-23.666 -14 -36.999 -14s-23.666 4.66699 -30.999 14s-9.66602 20.666 -6.99902 33.999s9.66699 24.666 21 33.999s23.666 14 36.999 14s23.666 -4.66699 30.999 -14s9.66602 -20.666 6.99902 -33.999zM100 37
c-14 -66 -54 -113.999 -120 -143.999l-15 29c39.333 21.333 64.333 44.666 75 69.999c-31.333 2 -44 18.667 -38 50c3.33301 14 10.833 25.833 22.5 35.5s24.167 14.5 37.5 14.5c14 0 24.667 -5.16699 32 -15.5s9.33301 -23.5 6 -39.5z" />
    <glyph glyph-name="less" unicode="&#x3c;" horiz-adv-x="417" 
d="M334 -10l-306 180l8 41l383 179l-13 -63l-294 -137l236 -137z" />
    <glyph glyph-name="equal" unicode="=" horiz-adv-x="417" 
d="M374 223h-325l11 52h325zM347 97h-325l11 53h325z" />
    <glyph glyph-name="greater" unicode="&#x3e;" horiz-adv-x="417" 
d="M373 170l-383 -180l13 63l295 138l-237 136l13 63l307 -179z" />
    <glyph glyph-name="question" unicode="?" horiz-adv-x="289" 
d="M299 371c-7.33301 -36 -37.667 -76.333 -91 -121c-36.667 -30 -58.667 -60.333 -66 -91c-2 -10 -2.66699 -24 -2 -42h-57c-2 20 -2 35 0 45c6.66699 32.667 32.667 70 78 112s70.333 73.667 75 95c8 38 -11.333 57 -58 57c-28.667 0 -58.334 -9.66699 -89.001 -29l-15 49
c44.667 24.667 85.667 37 123 37c38 0 66.333 -10.167 85 -30.5s24.334 -47.5 17.001 -81.5zM146.999 39c-2.66699 -13.333 -9.66699 -24.666 -21 -33.999s-23.666 -14 -36.999 -14s-23.666 4.66699 -30.999 14s-9.66602 20.666 -6.99902 33.999s9.66699 24.666 21 33.999
s23.666 14 36.999 14s23.666 -4.66699 30.999 -14s9.66602 -20.666 6.99902 -33.999z" />
    <glyph glyph-name="at" unicode="@" horiz-adv-x="572" 
d="M533 177c-11.333 -53.333 -39.668 -95.999 -85.001 -127.999c-40 -28 -83.333 -42 -130 -42l2 36c-37.333 -28 -76 -42 -116 -42c-28.667 0 -51.5 8.16699 -68.5 24.5s-22.833 36.833 -17.5 61.5c15.333 72.667 89.666 110.667 222.999 114c10.667 50.667 -8 76 -56 76
c-26 0 -51.333 -7 -76 -21l-10 35c36 18.667 73 28 111 28c35.333 0 60 -11.667 74 -35s17 -55 9 -95l-22 -104c-3.33301 -15.333 -5.33301 -26 -6 -32h12c24.667 6.66699 47.5 21.834 68.5 45.501s34.5 49.167 40.5 76.5c10.667 51.333 2.33398 94.166 -24.999 128.499
s-70 51.5 -128 51.5c-65.333 0 -123 -20.833 -173 -62.5s-81.667 -93.834 -95 -156.501c-11.333 -54.667 -2.66602 -100 26.001 -136s69.667 -54 123 -54c40.667 0 83.667 10.667 129 32l10 -40c-51.333 -22 -101.666 -33 -150.999 -33c-65.333 0 -116 21.333 -152 64
c-37.333 43.333 -49.333 98 -36 164c16 75.333 55.667 138 119 188s134.666 75 213.999 75c68 0 119.5 -20.5 154.5 -61.5s45.5 -93.5 31.5 -157.5zM323.998 107.001l11.999 56c-102 -4 -157.667 -27.667 -167 -71c-6.66699 -31.333 8.33301 -47 45 -47
c24.667 0 47.334 5.33301 68.001 16c24 12 38 27.333 42 46z" />
    <glyph glyph-name="A" unicode="A" horiz-adv-x="451" 
d="M408 0h-69l-30 159h-191l-95 -159h-68l302 483h54zM297 213l-28 198l-116 -198h144z" />
    <glyph glyph-name="B" unicode="B" horiz-adv-x="396" 
d="M351 138c-20.667 -96 -101.667 -143.999 -243 -143.999c-30 0 -63.667 4.33301 -101 13l98 460c43.333 10 82.333 15 117 15c122 0 174 -42 156 -126c-8.66699 -42.667 -35.667 -76.334 -81 -101.001c47.333 -24.667 65.333 -63.667 54 -117zM315 355.001
c10 48 -24.998 72 -104.998 72c-14 0 -31 -1 -51 -3l-31 -146h71c29.333 0 54.666 6.83301 75.999 20.5s34.666 32.5 39.999 56.5zM289.002 137.001c6.66699 32 -3.66602 55.667 -30.999 71c-21.333 11.333 -49.333 17 -84 17h-58l-37 -174c11.333 -2 28 -3 50 -3
c43.333 0 79.166 7.66699 107.499 23s45.833 37.333 52.5 66z" />
    <glyph glyph-name="C" unicode="C" horiz-adv-x="432" 
d="M371 25c-53.333 -21.333 -113.665 -31.999 -180.998 -31.999c-63.333 0 -109.333 22.5 -138 67.5s-35.334 103.833 -20.001 176.5c15.333 72 46.333 130 93 174c51.333 48 114 72 188 72c56.667 0 106.334 -9.66699 149.001 -29l-31 -50c-36 16.667 -78.333 25 -127 25
c-61.333 0 -111.333 -22.667 -150 -68c-28 -33.333 -47.667 -75.333 -59 -126c-9.33301 -46.667 -6 -87.334 10 -122.001c19.333 -44 55.666 -66 108.999 -66c55.333 0 105.666 10 150.999 30z" />
    <glyph glyph-name="D" unicode="D" horiz-adv-x="459" 
d="M441 248c-15.333 -72 -45 -129.668 -89 -173.001c-53.333 -52.667 -124.333 -79 -213 -79c-27.333 0 -71.333 3.33301 -132 10l98 462c78 8.66699 130.333 13 157 13c81.333 0 136.333 -24.333 165 -73c24 -39.333 28.667 -92.666 14 -159.999zM377 247.999
c25.333 119.333 -17.999 179 -129.999 179c-18.667 0 -48.334 -2 -89.001 -6l-78 -368c21.333 -2 48.666 -3 81.999 -3c64.667 0 116.667 23 156 69c28.667 34 48.334 77 59.001 129z" />
    <glyph glyph-name="E" unicode="E" horiz-adv-x="358" 
d="M289 0h-283l101 476h283l-12 -54h-220l-30 -144h196l-12 -54h-196l-36 -170h220z" />
    <glyph glyph-name="F" unicode="F" horiz-adv-x="358" 
d="M69 0h-63l101 476h293l-12 -54h-230l-32 -150h216l-11 -53h-216z" />
    <glyph glyph-name="G" unicode="G" horiz-adv-x="454" 
d="M372 11l-29.9971 8.00098c-42.667 -17.333 -93.334 -26 -152.001 -26c-63.333 0 -109.333 22.5 -138 67.5s-35.334 103.833 -20.001 176.5c15.333 72 46.333 130 93 174c51.333 48 114 72 188 72c56.667 0 106.334 -9.66699 149.001 -29l-31 -50
c-36 16.667 -78.333 25 -127 25c-61.333 0 -111.333 -22.667 -150 -68c-28 -33.333 -47.667 -75.333 -59 -126c-9.33301 -46.667 -6 -87.334 10 -122.001c19.333 -44 55.666 -66 108.999 -66c39.333 0 74.666 5.33301 105.999 16l29 135h-120l11 53h183z" />
    <glyph glyph-name="H" unicode="H" horiz-adv-x="472" 
d="M378 0h-63l48 226h-246l-48 -226h-63l101 476h63l-42 -196h246l42 196h63z" />
    <glyph glyph-name="I" unicode="I" horiz-adv-x="163" 
d="M69 0h-63l101 476h63z" />
    <glyph glyph-name="J" unicode="J" horiz-adv-x="282" 
d="M222 160c-24 -112.667 -86.999 -169 -188.999 -169c-25.333 0 -52 6.33301 -80 19l28 52c16 -11.333 37 -17 63 -17c31.333 0 56.166 9.33301 74.499 28s32.5 51 42.5 97l65 306h63z" />
    <glyph glyph-name="K" unicode="K" horiz-adv-x="411" 
d="M377 15l-65 -22l-156 236l-47 -38l-40 -191h-63l101 476h63l-45 -210l273 218l58 -16l-248 -197z" />
    <glyph glyph-name="L" unicode="L" horiz-adv-x="359" 
d="M302 0h-296l101 476h63l-90 -422h233z" />
    <glyph glyph-name="M" unicode="M" horiz-adv-x="574" 
d="M501 0h-61l52 369l-228 -369h-42l-72 369l-104 -369h-61l135 476h66l74 -396l242 396h66z" />
    <glyph glyph-name="N" unicode="N" horiz-adv-x="472" 
d="M378 0h-60l-167 386l-82 -386h-63l101 476h63l166 -376l80 376h63z" />
    <glyph glyph-name="O" unicode="O" horiz-adv-x="518" 
d="M436 238c12 54.667 6.16992 100.5 -17.4971 137.5s-61.167 55.5 -112.5 55.5s-96.5 -18.5 -135.5 -55.5s-64.5 -82.833 -76.5 -137.5c-11.333 -54.667 -5.33301 -100.5 18 -137.5s60.666 -55.5 111.999 -55.5s96.666 18.5 135.999 55.5s64.666 82.833 75.999 137.5z
M498.003 237c-14.667 -70 -48.834 -128.667 -102.501 -176s-114.834 -71 -183.501 -71s-119.5 23.667 -152.5 71s-42.167 106 -27.5 176s48.834 128.833 102.501 176.5s114.834 71.5 183.501 71.5s119.5 -23.833 152.5 -71.5s42.167 -106.5 27.5 -176.5z" />
    <glyph glyph-name="P" unicode="P" horiz-adv-x="390" 
d="M393 339c-10 -46 -36.501 -83.167 -79.501 -111.5s-94.833 -42.5 -155.5 -42.5c-15.333 0 -32 1 -50 3l-39 -188h-63l99 469c50 8 93.333 12 130 12c58.667 0 101.834 -13.167 129.501 -39.5s37.167 -60.5 28.5 -102.5zM328.999 336
c12.667 60.667 -22.999 91 -106.999 91c-22.667 0 -43.667 -1 -63 -3l-38 -179c21.333 -4 39.666 -6 54.999 -6c88 0 139 32.333 153 97z" />
    <glyph glyph-name="Q" unicode="Q" horiz-adv-x="518" 
d="M436 238c12 54.667 6.16992 100.5 -17.4971 137.5s-61.167 55.5 -112.5 55.5s-96.5 -18.5 -135.5 -55.5s-64.5 -82.833 -76.5 -137.5c-11.333 -54.667 -5.33301 -100.5 18 -137.5s60.666 -55.5 111.999 -55.5s96.666 18.5 135.999 55.5s64.666 82.833 75.999 137.5z
M498.003 237c-11.333 -53.333 -33.6709 -99.499 -67.0039 -138.499s-73.666 -66.167 -120.999 -81.5l-1 -4c50.667 -13.333 97 -23.333 139 -30l-32 -54c-47.333 13.333 -106.666 32.333 -177.999 57c-3.33301 1.33301 -12 2.66602 -26 3.99902
c-68.667 0 -119.5 23.667 -152.5 71s-42.167 106 -27.5 176s48.834 128.833 102.501 176.5s114.834 71.5 183.501 71.5s119.5 -23.833 152.5 -71.5s42.167 -106.5 27.5 -176.5z" />
    <glyph glyph-name="R" unicode="R" horiz-adv-x="395" 
d="M336 0h-63.001c10.667 138 -16.333 207 -81 207h-80l-43 -207h-63l99 468c50 8.66699 94 13 132 13c56.667 0 99 -12 127 -36s37.667 -56.667 29 -98c-11.333 -54.667 -45.666 -94 -102.999 -118c21.333 -16.667 35.333 -41 42 -73s8 -84 4 -156zM330.999 343
c12 55.333 -23.332 83 -105.999 83c-26.667 0 -49 -1 -67 -3l-34 -164h77c75.333 0 118.666 28 129.999 84z" />
    <glyph glyph-name="S" unicode="S" horiz-adv-x="365" 
d="M322 130c-8.66699 -41.333 -32.1709 -74.8311 -70.5039 -100.498s-82.166 -38.5 -131.499 -38.5c-52.667 0 -98.334 14.333 -137.001 43l38 57c32 -28.667 70.333 -43 115 -43c32.667 0 59.834 7.16699 81.501 21.5s34.834 33.5 39.501 57.5
c8.66699 40 -16.666 70.333 -75.999 91c-88 30 -125.333 76 -112 138c8 37.333 29.5 68.166 64.5 92.499s76.167 36.5 123.5 36.5s86 -10.667 116 -32l-38 -50c-30 16.667 -60.667 25 -92 25c-28.667 0 -53.167 -6.5 -73.5 -19.5s-32.5 -28.833 -36.5 -47.5
c-7.33301 -36.667 18.667 -65.334 78 -86.001c48.667 -16.667 81.334 -36 98.001 -58s21 -51 13 -87z" />
    <glyph glyph-name="T" unicode="T" horiz-adv-x="421" 
d="M199 0h-63l89 422h-176l12 54h413l-12 -54h-174z" />
    <glyph glyph-name="U" unicode="U" horiz-adv-x="482" 
d="M431 203c-30 -141.333 -108.668 -212 -236.001 -212s-176 70.667 -146 212l58 273h64l-58 -273c-22.667 -105.333 8.33301 -158 93 -158s138.334 52.667 161.001 158l58 273h64z" />
    <glyph glyph-name="V" unicode="V" horiz-adv-x="422" 
d="M196 0h-58l-82 476h68l61 -390l227 390h68z" />
    <glyph glyph-name="W" unicode="W" horiz-adv-x="612" 
d="M440 0h-58l-38 389l-202 -389h-58l-31 476h69l12 -380l199 380h60l37 -380l174 380h69z" />
    <glyph glyph-name="X" unicode="X" horiz-adv-x="426" 
d="M384 0h-75l-97 193l-181 -193h-76l228 244l-120 232h77l92 -186l169 186h78l-220 -232z" />
    <glyph glyph-name="Y" unicode="Y" horiz-adv-x="396" 
d="M186 0h-62l44 208l-117 268h73l86 -214l177 214h72l-229 -267z" />
    <glyph glyph-name="Z" unicode="Z" horiz-adv-x="451" 
d="M382 0h-399l9 40l389 382h-293l23 54h369l-9 -41l-390 -381h324z" />
    <glyph glyph-name="bracketleft" unicode="[" horiz-adv-x="234" 
d="M143 -77h-157l128 605h158l-11 -52h-99l-107 -502h99z" />
    <glyph glyph-name="backslash" unicode="\" horiz-adv-x="268" 
d="M252 -27h-64l-152 510h65z" />
    <glyph glyph-name="bracketright" unicode="]" horiz-adv-x="234" 
d="M127 -77h-157l11 51h98l107 502h-99l11 52h158z" />
    <glyph glyph-name="asciicircum" unicode="^" horiz-adv-x="418" 
d="M382 152h-65l-62 253l-170 -253h-65l226 328h51z" />
    <glyph glyph-name="underscore" unicode="_" horiz-adv-x="376" 
d="M294 -175h-375l12 53h375z" />
    <glyph glyph-name="grave" unicode="`" horiz-adv-x="210" 
d="M201 375h-48l-63 97l61 18z" />
    <glyph glyph-name="a" unicode="a" horiz-adv-x="431" 
d="M366 4l-63.001 -12c-8 10.667 -13 30 -15 58c-32.667 -39.333 -76 -59 -130 -59c-42 0 -76.5 12.667 -103.5 38s-40.5 59 -40.5 101c0 60 20.5 112.167 61.5 156.5s91.5 66.5 151.5 66.5c74 0 130.667 -21 170 -63l-42 -199c-5.33301 -32 -1.66602 -61 11.001 -87z
M303.999 142l25 119.999c-26 26 -62 39 -108 39c-39.333 0 -73.5 -16.167 -102.5 -48.5s-43.5 -70.166 -43.5 -113.499c0 -62 32 -93 96 -93c31.333 0 60 9.5 86 28.5s41.667 41.5 47 67.5z" />
    <glyph glyph-name="b" unicode="b" horiz-adv-x="435" 
d="M406 215c0 -60 -21.001 -112.168 -63.001 -156.501s-92 -66.5 -150 -66.5c-104.667 0 -157 37.333 -157 112c0 10.667 1.33301 22.334 4 35.001l74 349h63l-37 -175c35.333 27.333 76 41 122 41c42.667 0 77.334 -12.833 104.001 -38.5s40 -59.167 40 -100.5z
M344.999 205.999c0 62 -32 93 -96 93c-30 0 -58.667 -8.83301 -86 -26.5s-43 -40.834 -47 -69.501l-17 -73c-2 -8.66699 -3 -17 -3 -25c0 -17.333 9 -31.833 27 -43.5s43.333 -17.5 76 -17.5c39.333 0 73.5 16.333 102.5 49s43.5 70.334 43.5 113.001z" />
    <glyph glyph-name="c" unicode="c" horiz-adv-x="347" 
d="M282 21c-36 -20 -76.999 -30 -122.999 -30c-54 0 -93.833 16.833 -119.5 50.5s-32.834 77.167 -21.501 130.5c11.333 54 37 97.667 77 131s87 50 141 50c45.333 0 82 -10 110 -30l-33 -52c-27.333 19.333 -57.666 29 -90.999 29c-34 0 -63.833 -11.833 -89.5 -35.5
s-42.5 -54.5 -50.5 -92.5c-8 -38.667 -4.16699 -69.667 11.5 -93s40.5 -35 74.5 -35c33.333 0 67.666 9.66699 102.999 29z" />
    <glyph glyph-name="d" unicode="d" horiz-adv-x="435" 
d="M356 91c-3.33301 -30.667 0.330078 -59.667 10.9971 -87l-63 -12c-8 10.667 -13 30 -15 58c-40 -39.333 -84.667 -59 -134 -59s-87.166 17.5 -113.499 52.5s-33.833 79.5 -22.5 133.5c10.667 50 35.834 91.833 75.501 125.5s83.834 50.5 132.501 50.5
c50 0 87.333 -15.667 112 -47l42 198h63zM300.996 129l16 78c6 25.333 -1.5 47.333 -22.5 66s-45.5 28 -73.5 28c-34.667 0 -64.667 -11.667 -90 -35s-42 -53 -50 -89c-8.66699 -40.667 -5.16699 -72.667 10.5 -96s42.167 -35 79.5 -35c33.333 0 62 7.5 86 22.5
s38.667 35.167 44 60.5z" />
    <glyph glyph-name="e" unicode="e" horiz-adv-x="391" 
d="M362 246c0 -34 -17.666 -60.001 -52.999 -78.001c-30 -15.333 -67.333 -23 -112 -23c-40.667 0 -80.667 2.66699 -120 8c-0.666992 -4 -1 -8 -1 -12c0 -30 9.66699 -53.167 29 -69.5s44.666 -24.5 75.999 -24.5c36 0 80.667 8.66699 134 26l-5 -55
c-52 -18 -100 -27 -144 -27c-46 0 -83.167 11.833 -111.5 35.5s-42.5 55.834 -42.5 96.501c0 64 22.667 118.333 68 163s98.333 67 159 67c82 0 123 -35.667 123 -107zM308.001 246.999c0 36 -26.001 54 -78.001 54c-27.333 0 -55.166 -10 -83.499 -30
s-47.833 -44.333 -58.5 -73c18.667 -4.66699 50.667 -7 96 -7c82.667 0 124 18.667 124 56z" />
    <glyph glyph-name="f" unicode="f" horiz-adv-x="254" 
d="M97 21c-24.667 -114 -81.333 -171 -170 -171c-28 0 -50 7.33301 -66 22l28 47c20.667 -10 37.667 -15 51 -15c46 0 77.333 39 94 117l57 267h-57l11 52h58c24 114 80.333 171 169 171c28 0 50 -7.33301 66 -22l-28 -47c-20.667 10 -37.667 15 -51 15
c-46 0 -77.333 -39 -94 -117h97l-11 -52h-97z" />
    <glyph glyph-name="g" unicode="g" horiz-adv-x="332" 
d="M238 -45c-6.66699 -31.333 -23.334 -56.6689 -50.001 -76.002s-61.667 -29 -105 -29c-36 0 -70.333 11.333 -103 34l31 50c31.333 -20.667 60.333 -31 87 -31c20.667 0 38.834 4.83301 54.501 14.5s24.834 21.167 27.501 34.5c4.66699 20 -10 37.667 -44 53
c-26 11.333 -50.5 24 -73.5 38s-32.167 32.333 -27.5 55c2.66699 10.667 8.66699 24.334 18 41.001c-18.667 26 -24.667 53.667 -18 83c7.33301 36.667 25.833 66.667 55.5 90s61.834 35 96.501 35h144l-9 -43h-50c20.667 -15.333 28 -40.333 22 -75
c-8 -39.333 -25.333 -70.5 -52 -93.5s-60.334 -34.5 -101.001 -34.5c-14.667 0 -28.667 2.33301 -42 7c-4 -3.33301 -6.33301 -7.66602 -7 -12.999c-2 -10 19.333 -21.667 64 -35c65.333 -19.333 92.666 -54.333 81.999 -105zM240 223.997c4 20 0.333008 37 -11 51
s-27 21 -47 21s-38.667 -7 -56 -21s-28 -31 -32 -51s-0.333008 -36.833 11 -50.5s27 -20.5 47 -20.5c24 0 43.667 6.83301 59 20.5s25 30.5 29 50.5z" />
    <glyph glyph-name="h" unicode="h" horiz-adv-x="423" 
d="M369 192l-23 -113c-2.66699 -13.333 -4 -23.333 -4 -30c0 -11.333 3.66699 -25.333 11 -42l-60 -22c-10.667 15.333 -16 33 -16 53c0 11.333 2.33301 28 7 50l22 103c2 9.33301 3 19 3 29c0 22.667 -6.33301 40.834 -19 54.501s-30.334 20.5 -53.001 20.5
c-26.667 0 -53 -9.83301 -79 -29.5s-41.667 -41.834 -47 -66.501l-42 -199h-63l107 504h63l-43 -201c36.667 30.667 78.334 46 125.001 46c77.333 0 116 -37 116 -111c0 -14 -1.66699 -29.333 -5 -46z" />
    <glyph glyph-name="i" unicode="i" horiz-adv-x="163" 
d="M69 0h-63l72 340h63zM177 440c-2.66699 -13.333 -9.66699 -24.666 -21 -33.999s-23.666 -14 -36.999 -14s-23.666 4.66699 -30.999 14s-9.66602 20.666 -6.99902 33.999s9.66699 24.666 21 33.999s23.666 14 36.999 14s23.666 -4.66699 30.999 -14
s9.66602 -20.666 6.99902 -33.999z" />
    <glyph glyph-name="j" unicode="j" horiz-adv-x="171" 
d="M80 18c-22 -103.333 -86.667 -156.334 -194 -159.001l3 51c46 3.33301 77 13.333 93 30s29.667 51.334 41 104.001l63 296h63zM186 439.999c-2.66699 -13.333 -9.66699 -24.666 -21 -33.999s-23.666 -14 -36.999 -14s-23.666 4.66699 -30.999 14
s-9.66602 20.666 -6.99902 33.999s9.66699 24.666 21 33.999s23.666 14 36.999 14s23.666 -4.66699 30.999 -14s9.66602 -20.666 6.99902 -33.999z" />
    <glyph glyph-name="k" unicode="k" horiz-adv-x="340" 
d="M315 6l-69 -16l-119 174l-28 -20l-30 -144h-63l107 504h63l-61 -287l179 130l67 -12l-182 -135z" />
    <glyph glyph-name="l" unicode="l" horiz-adv-x="213" 
d="M153 -8c-98 5.33301 -134.667 66.332 -110 182.999l70 329h63l-67 -315c-11.333 -51.333 -11 -87.666 1 -108.999c10 -18 30.667 -28.333 62 -31z" />
    <glyph glyph-name="m" unicode="m" horiz-adv-x="636" 
d="M558 76c-2.66699 -16.667 -3.33398 -30.167 -2.00098 -40.5s4.66602 -19.833 9.99902 -28.5l-60 -22c-6 8.66699 -10.167 22.167 -12.5 40.5s-1.16602 39.166 3.50098 62.499l21 100c6.66699 30.667 5.33398 56 -3.99902 76c-11.333 22 -30 33 -56 33
c-22 0 -44.333 -8.66699 -67 -26s-36.334 -36 -41.001 -56l-45 -215h-63l43 205c13.333 61.333 -5.66699 92 -57 92c-22.667 0 -46.5 -10.167 -71.5 -30.5s-39.833 -41.5 -44.5 -63.5l-43 -203h-63l53 250c3.33301 16.667 6 31.334 8 44.001c2 14 0 28.667 -6 44l55 11
c8.66699 -16 11.334 -35 8.00098 -57c14.667 20 33.667 34.667 57 44s45.333 14 66 14c44 0 75.333 -18.667 94 -56c43.333 37.333 90 56 140 56c39.333 0 68.5 -14.833 87.5 -44.5s23.5 -68.5 13.5 -116.5z" />
    <glyph glyph-name="n" unicode="n" horiz-adv-x="423" 
d="M345 76c-2 -16.667 -2.33398 -30.167 -1.00098 -40.5s4.66602 -19.833 9.99902 -28.5l-60 -22c-6 8.66699 -10.167 22.167 -12.5 40.5s-1.16602 39.166 3.50098 62.499l22 105c14.667 69.333 -9.66602 104 -72.999 104c-23.333 0 -48.5 -10.5 -75.5 -31.5
s-42.5 -41.833 -46.5 -62.5l-43 -203h-63l53 250c3.33301 16.667 6 31.334 8 44.001c2 14 0 28.667 -6 44l55 11c8.66699 -16 11.334 -35 8.00098 -57c41.333 38.667 84.666 58 129.999 58s78.5 -14 99.5 -42s26.5 -66.333 16.5 -115z" />
    <glyph glyph-name="o" unicode="o" horiz-adv-x="412" 
d="M378 172c-10.667 -50.667 -36.667 -93.334 -78 -128.001s-88 -52 -140 -52s-91.333 17.333 -118 52s-34.667 77.334 -24 128.001s36.834 93.5 78.501 128.5s88.5 52.5 140.5 52.5s91.167 -17.5 117.5 -52.5s34.166 -77.833 23.499 -128.5zM316 172
c8 36 3.49902 66.167 -13.501 90.5s-42.833 36.5 -77.5 36.5s-65.5 -12.167 -92.5 -36.5s-44.5 -54.5 -52.5 -90.5c-7.33301 -36 -2.66602 -66.167 14.001 -90.5s42.334 -36.5 77.001 -36.5s65.667 12.167 93 36.5s44.666 54.5 51.999 90.5z" />
    <glyph glyph-name="p" unicode="p" horiz-adv-x="431" 
d="M337 178c7.33301 34.667 2.66797 63.832 -13.999 87.499s-41.667 35.5 -75 35.5c-26.667 0 -54.834 -10.667 -84.501 -32s-47.167 -45 -52.5 -71l-12 -56c-6 -26 -0.166992 -48.5 17.5 -67.5s42.167 -28.5 73.5 -28.5c37.333 0 69 11.833 95 35.5
s43.333 55.834 52 96.501zM399.002 178.998c-12 -55.333 -38.668 -100.501 -80.001 -135.501s-87.333 -52.5 -138 -52.5c-46.667 0 -82 13.667 -106 41l-37 -175h-62l91 434c2 16 0 31.667 -6 47l55 11c8.66699 -16 11.334 -35 8.00098 -57c40.667 40.667 88 61 142 61
c49.333 0 86.333 -16.667 111 -50s32 -74.666 22 -123.999z" />
    <glyph glyph-name="q" unicode="q" horiz-adv-x="431" 
d="M306 -143h-63l37 175c-35.333 -27.333 -76 -41 -122 -41c-42 0 -76.5 12.667 -103.5 38s-40.5 59 -40.5 101c0 60 20.5 112.167 61.5 156.5s91.5 66.5 151.5 66.5c74 0 130.667 -21 170 -63zM304 142l25 119.999c-26 26 -62 39 -108 39
c-39.333 0 -73.5 -16.167 -102.5 -48.5s-43.5 -70.166 -43.5 -113.499c0 -62 32 -93 96 -93c31.333 0 60 9.5 86 28.5s41.667 41.5 47 67.5z" />
    <glyph glyph-name="r" unicode="r" horiz-adv-x="246" 
d="M249 293c-5.33301 1.33301 -12.998 2 -22.998 2c-63.333 0 -103 -38 -119 -114l-38 -181h-63l47 225c5.33301 24 9.33301 47 12 69c2 14 0 28.667 -6 44l55 11c8.66699 -16 9.66699 -37 3 -63c13.333 20 30.666 35.667 51.999 47s41.333 17 60 17
c13.333 0 23.666 -1 30.999 -3z" />
    <glyph glyph-name="s" unicode="s" horiz-adv-x="296" 
d="M247 97c-6.66699 -31.333 -24.1709 -56.834 -52.5039 -76.501s-63.166 -29.5 -104.499 -29.5c-34 0 -68 11 -102 33l34 50c23.333 -18.667 50.666 -28 81.999 -28c46.667 0 73.334 16 80.001 48c5.33301 24.667 -13 44 -55 58
c-62.667 20.667 -89.334 52.334 -80.001 95.001c6 28.667 22.333 52.834 49 72.501s59 29.5 97 29.5c38.667 0 69.334 -9.66699 92.001 -29l-33 -46c-20 17.333 -44.667 26 -74 26c-17.333 0 -32.666 -4.5 -45.999 -13.5s-21.666 -20.5 -24.999 -34.5
c-3.33301 -17.333 17.334 -34.333 62.001 -51c60.667 -22.667 86 -57.334 76 -104.001z" />
    <glyph glyph-name="t" unicode="t" horiz-adv-x="258" 
d="M199 5c-24 -9.33301 -47.001 -14 -69.001 -14c-30.667 0 -52.667 10.333 -66 31s-16.333 49 -9 85l39 181h-68l11 52h68l20 93l68 27l-25 -120h109l-11 -52h-109l-39 -180c-8.66699 -40.667 0 -61 26 -61c16.667 0 36.334 3.66699 59.001 11z" />
    <glyph glyph-name="u" unicode="u" horiz-adv-x="418" 
d="M354 4l-62.999 -11.999c-8 10.667 -13 30 -15 58c-48.667 -39.333 -92.334 -59 -131.001 -59c-76 0 -114 35 -114 105c0 17.333 2.33301 36.666 7 57.999l24 111c2 9.33301 3 19 3 29c0 14.667 -2 29.334 -6 44.001l60 12c6 -18 9 -36 9 -54
c0 -12.667 -1.33301 -25.334 -4 -38.001l-21 -98c-4 -18.667 -6 -33.667 -6 -45c0 -45.333 22.333 -68 67 -68c24.667 0 50.5 9.5 77.5 28.5s43.167 40.167 48.5 63.5l43 201h63l-53 -249c-1.33301 -6 -2 -13 -2 -21c0 -20 4.33301 -42 13 -66z" />
    <glyph glyph-name="v" unicode="v" horiz-adv-x="358" 
d="M160 0h-50l-86 340h66l61 -262l173 262h66z" />
    <glyph glyph-name="w" unicode="w" horiz-adv-x="480" 
d="M355 0h-53l-48 273l-164 -273h-53l-13 340h65l-4 -257l157 257h52l47 -257l106 257h65z" />
    <glyph glyph-name="x" unicode="x" horiz-adv-x="349" 
d="M316 0h-77l-82 131l-135 -131h-77l184 174l-103 166h76l75 -120l126 120h76l-175 -166z" />
    <glyph glyph-name="y" unicode="y" horiz-adv-x="361" 
d="M165 7c-60.667 -88.667 -130.333 -141.332 -209 -157.999l-5 52c62 13.333 114.333 54.666 157 123.999l-84 315h69l64 -252l166 252h69z" />
    <glyph glyph-name="z" unicode="z" horiz-adv-x="358" 
d="M286 0h-310l9 38l278 249h-216l23 53h290l-9 -41l-277 -246h232z" />
    <glyph glyph-name="braceleft" unicode="{" horiz-adv-x="255" 
d="M158 -88l-23 0.000976562c-80 0 -113 34 -99 102c3.33301 13.333 10.5 34.833 21.5 64.5s17.5 50.5 19.5 62.5c5.33301 24 -12.334 36.667 -53.001 38l11 52c41.333 1.33301 64.333 13.666 69 36.999c3.33301 14 5.83301 35.833 7.5 65.5s3.83398 50.5 6.50098 62.5
c14 68 61 102 141 102h23l-11 -52h-26c-36.667 0 -59.667 -17.333 -69 -52c-2.66699 -56.667 -6.66699 -97.667 -12 -123c-3.33301 -14.667 -10.5 -28.5 -21.5 -41.5s-22.5 -21.167 -34.5 -24.5c25.333 -11.333 34.666 -33.666 27.999 -66.999
c-5.33301 -24.667 -18.666 -65.334 -39.999 -122.001c-6 -35.333 9.66699 -53 47 -53h26z" />
    <glyph glyph-name="bar" unicode="|" horiz-adv-x="177" 
d="M37 -166h-56l146 692h57z" />
    <glyph glyph-name="braceright" unicode="}" horiz-adv-x="255" 
d="M222 179c-42 -1.33301 -65.666 -14 -70.999 -38c-2 -12 -3.83301 -32.833 -5.5 -62.5s-4.16699 -51.167 -7.5 -64.5c-14 -68 -60.667 -102 -140 -102h-23l11 51h25c38.667 0 61.334 16.333 68.001 49c3.33301 15.333 5.66602 36.833 6.99902 64.5s3.33301 48.167 6 61.5
c6.66699 33.333 25.334 55.666 56.001 66.999c-10.667 3.33301 -18.834 11.5 -24.501 24.5s-6.83398 26.833 -3.50098 41.5s10.333 36 21 64s17.334 49 20.001 63c6.66699 32 -9.33301 48 -48 48h-26l11 52h23c80 0 113 -34 99 -102c-2.66699 -12 -9.5 -32.833 -20.5 -62.5
s-18.167 -51.5 -21.5 -65.5c-4.66699 -23.333 13.666 -35.666 54.999 -36.999z" />
    <glyph glyph-name="asciitilde" unicode="~" horiz-adv-x="422" 
d="M415 243c-6.66699 -30.667 -20.168 -54.832 -40.501 -72.499s-43.833 -26.5 -70.5 -26.5c-16 0 -49 10.333 -99 31s-80.667 31 -92 31c-23.333 0 -40 -20.667 -50 -62h-55l4 19c6 29.333 19.833 52.666 41.5 69.999s45.5 26 71.5 26c18 0 51.5 -9.83301 100.5 -29.5
s79.833 -29.5 92.5 -29.5c20.667 0 36.334 19.667 47.001 59h54z" />
    <glyph glyph-name="nonbreakingspace" unicode="&#xa0;" horiz-adv-x="226" 
 />
    <glyph glyph-name="exclamdown" unicode="&#xa1;" horiz-adv-x="168" 
d="M46 -141h-71l77 337h56zM150 296c-2.66699 -13.333 -9.66699 -24.666 -21 -33.999s-23.666 -14 -36.999 -14s-23.666 4.66699 -30.999 14s-9.66602 20.666 -6.99902 33.999c3.33301 13.333 10.666 24.666 21.999 33.999s23.666 14 36.999 14s23.666 -4.66699 30.999 -14
s9.33301 -20.666 6 -33.999z" />
    <glyph glyph-name="cent" unicode="&#xa2;" horiz-adv-x="480" 
d="M385 52c-40 -19.333 -86.668 -29.666 -140.001 -30.999l-16 -77h-55l17 80c-50 9.33301 -86.333 32.166 -109 68.499s-28.334 81.833 -17.001 136.5c12 54.667 37 100.167 75 136.5s84 59.166 138 68.499l17 80h55l-17 -77
c53.333 -1.33301 95.666 -11.666 126.999 -30.999l-31 -48c-15.333 7.33301 -31.666 13 -48.999 17s-35.666 6 -54.999 6c-52.667 0 -96.667 -13.333 -132 -40s-58 -64 -68 -112s-3 -85.333 21 -112s62.333 -40 115 -40c19.333 0 38.333 2 57 6s37.334 9.66699 56.001 17z
" />
    <glyph glyph-name="sterling" unicode="&#xa3;" horiz-adv-x="480" 
d="M347 0h-302.002l7 37c62 34 98.333 75.333 109 124c0.666992 5.33301 1.66699 12.333 3 21s2.33301 17.667 3 27h-77l10 46h71c1.33301 14 2.83301 26.833 4.5 38.5s3.5 23.167 5.5 34.5c20 93.333 73.667 140 161 140c26.667 0 55.334 -7.66699 86.001 -23l-27 -42
c-26.667 12 -50.334 18 -71.001 18c-53.333 0 -86.666 -31 -99.999 -93c-5.33301 -25.333 -8 -49.666 -8 -72.999h111l-10 -46h-103c-0.666992 -5.33301 -1.66699 -11.833 -3 -19.5s-2.66602 -14.834 -3.99902 -21.501c-10 -48.667 -32.667 -89 -68 -121h211z" />
    <glyph glyph-name="currency" unicode="&#xa4;" horiz-adv-x="480" 
d="M431 226c-8.66699 -39.333 -27.667 -74.666 -57 -105.999l29 -39l-53 -46l-30 41c-34.667 -23.333 -73.667 -35 -117 -35c-42 0 -75 11.667 -99 35l-48 -41l-33 46l45 39c-16 31.333 -19.667 66.666 -11 105.999c8 39.333 26.667 74.666 56 105.999l-29 39l53 46l30 -41
c34.667 23.333 73 35 115 35c43.333 0 77 -11.667 101 -35l48 41l33 -46l-45 -39c16 -31.333 20 -66.666 12 -105.999zM369 226c6.66699 34 0.332031 63.333 -19.001 88s-46 37 -80 37c-35.333 0 -67.666 -12.333 -96.999 -37s-47.333 -54 -54 -88
c-8 -35.333 -2.5 -65 16.5 -89s46.167 -36 81.5 -36c34 0 65.833 12 95.5 36s48.5 53.667 56.5 89z" />
    <glyph glyph-name="yen" unicode="&#xa5;" horiz-adv-x="480" 
d="M359 91h-115l-16 -73h-58l16 73h-115l10 50h115l7 32h-115l11 50h105l-95 238h70l73 -190l154 190h71l-196 -237h106l-11 -51h-115l-7 -32h115z" />
    <glyph glyph-name="brokenbar" unicode="&#xa6;" horiz-adv-x="161" 
d="M106 220h-48l55 256h48zM34 -119h-47l54 257h48z" />
    <glyph glyph-name="section" unicode="&#xa7;" horiz-adv-x="380" 
d="M278 71c-7.33301 -34 -25.3369 -60.666 -54.0039 -79.999s-61.667 -29 -99 -29c-42 0 -75.667 12.667 -101 38l31 42c10.667 -12.667 22.834 -21.667 36.501 -27s28.834 -8 45.501 -8c24 0 44.333 5.5 61 16.5s27 25.167 31 42.5c4.66699 23.333 -7.33301 43 -36 59
l-47.5 20.5c-16.333 7 -32.166 14.167 -47.499 21.5c-31.333 17.333 -43.333 44.666 -36 81.999c6.66699 28.667 25.334 54.667 56.001 78c-8.66699 15.333 -11 32.666 -7 51.999c6.66699 30 23.334 54.333 50.001 73s58.667 28 96 28c17.333 0 34.166 -2.66699 50.499 -8
s32.166 -12.666 47.499 -21.999l-34 -43c-22.667 19.333 -49 29 -79 29c-19.333 0 -36.666 -4.83301 -51.999 -14.5s-24.666 -21.834 -27.999 -36.501c-1.33301 -7.33301 -0.5 -14 2.5 -20s7.5 -11.667 13.5 -17c4.66699 -3.33301 12.5 -7.5 23.5 -12.5
s24.167 -10.167 39.5 -15.5c31.333 -12 54.5 -27.167 69.5 -45.5s20.167 -39.166 15.5 -62.499c-3.33301 -15.333 -9.83301 -29.833 -19.5 -43.5s-21.5 -26.834 -35.5 -39.501c9.33301 -15.333 11.666 -34.666 6.99902 -57.999zM272.996 207.001
c2.66699 11.333 -1.16504 22.835 -11.498 34.502s-24.833 21.167 -43.5 28.5c-16 6 -30 11.667 -42 17s-22 10 -30 14c-19.333 -14.667 -31 -31.334 -35 -50.001c-2 -8 -1 -15.167 3 -21.5s10 -12.833 18 -19.5c6 -3.33301 14 -7.5 24 -12.5s23 -10.5 39 -16.5
c11.333 -4.66699 21 -8.83398 29 -12.501s14.667 -7.5 20 -11.5c9.33301 8.66699 16.166 17 20.499 25s7.16602 16.333 8.49902 25z" />
    <glyph glyph-name="dieresis" unicode="&#xa8;" horiz-adv-x="341" 
d="M186 425c-2.66699 -12.667 -9.33301 -23.167 -20 -31.5s-21.667 -12.5 -33 -12.5c-12 0 -21.333 4.16699 -28 12.5s-8.66699 18.833 -6 31.5c2.66699 12 9.16699 22.333 19.5 31s21.5 13 33.5 13c11.333 0 20.5 -4.33301 27.5 -13s9.16699 -19 6.5 -31zM334.001 425
c-2.66699 -12.667 -9.33398 -23.167 -20.001 -31.5s-21.667 -12.5 -33 -12.5s-20.5 4.16699 -27.5 12.5s-9.16699 18.833 -6.5 31.5c2.66699 12 9.33398 22.333 20.001 31s21.667 13 33 13s20.5 -4.33301 27.5 -13s9.16699 -19 6.5 -31z" />
    <glyph glyph-name="copyright" unicode="&#xa9;" horiz-adv-x="540" 
d="M385 117c-25.333 -19.333 -59.666 -29 -102.999 -29c-44.667 0 -80 14 -106 42s-39 62.333 -39 103c0 46.667 13.667 83.5 41 110.5s63.666 40.5 108.999 40.5c40.667 0 71.667 -8 93 -24l-12 -36c-25.333 14.667 -52.333 22 -81 22c-69.333 0 -104 -36 -104 -108
c0 -72.667 35 -109 105 -109c32.667 0 60.667 8.33301 84 25zM527 240c0 -66.667 -23.833 -123.834 -71.5 -171.501s-104.834 -71.5 -171.501 -71.5s-123.834 23.833 -171.501 71.5s-71.5 104.834 -71.5 171.501s23.833 123.834 71.5 171.501s104.834 71.5 171.501 71.5
s123.834 -23.833 171.501 -71.5s71.5 -104.834 71.5 -171.501zM485 240c0 55.333 -19.667 102.666 -59 141.999s-86.666 59 -141.999 59s-102.666 -19.667 -141.999 -59s-59 -86.666 -59 -141.999s19.667 -102.666 59 -141.999s86.666 -59 141.999 -59
s102.666 19.667 141.999 59s59 86.666 59 141.999z" />
    <glyph glyph-name="ordfeminine" unicode="&#xaa;" horiz-adv-x="289" 
d="M294 443l-33 -149.001c-1.33301 -6 -2 -12.667 -2 -20c0 -10.667 1.66699 -19 5 -25l-34 -8c-2.66699 7.33301 -4 15.333 -4 24c0 6.66699 0.333008 12.334 1 17.001c-28.667 -27.333 -59 -41 -91 -41c-26 0 -46.5 7.66699 -61.5 23s-22.5 35.333 -22.5 60
c0 39.333 13 74.833 39 106.5s58.667 47.5 98 47.5c41.333 0 76.333 -11.667 105 -35zM229 344.999l16.998 79c-18 11.333 -36.667 17 -56 17c-27.333 0 -49.666 -11.5 -66.999 -34.5s-26 -48.167 -26 -75.5c0 -35.333 17 -53 51 -53c18 0 34.833 6.83301 50.5 20.5
s25.834 29.167 30.501 46.5z" />
    <glyph glyph-name="guillemotleft" unicode="&#xab;" horiz-adv-x="356" 
d="M291 47h-60l-85 132l142 135h59l-141 -134zM169 47h-61l-84 132l139 136h62l-142 -136z" />
    <glyph glyph-name="logicalnot" unicode="&#xac;" horiz-adv-x="448" 
d="M403 88h-48v146h-321v45h369v-191z" />
    <glyph glyph-name="registered" unicode="&#xae;" horiz-adv-x="540" 
d="M393 89l-39 0.000976562c-12 87.333 -38 131 -78 131h-50v-131h-41v295c30.667 5.33301 58 8 82 8c35.333 0 63.5 -7.5 84.5 -22.5s31.5 -35.5 31.5 -61.5c0 -34.667 -16.333 -59.334 -49 -74.001c16 -11.333 28.167 -27 36.5 -47s15.833 -52.667 22.5 -98zM346 305.001
c0 34.667 -26.332 52 -78.999 52c-16.667 0 -30.334 -0.666992 -41.001 -2v-102h47c48.667 0 73 17.333 73 52zM527.001 240.001c0 -66.667 -23.833 -123.834 -71.5 -171.501s-104.834 -71.5 -171.501 -71.5s-123.834 23.833 -171.501 71.5s-71.5 104.834 -71.5 171.501
s23.833 123.834 71.5 171.501s104.834 71.5 171.501 71.5s123.834 -23.833 171.501 -71.5s71.5 -104.834 71.5 -171.501zM485.001 240.001c0 55.333 -19.667 102.666 -59 141.999s-86.666 59 -141.999 59s-102.666 -19.667 -141.999 -59s-59 -86.666 -59 -141.999
s19.667 -102.666 59 -141.999s86.666 -59 141.999 -59s102.666 19.667 141.999 59s59 86.666 59 141.999z" />
    <glyph glyph-name="macron" unicode="&#xaf;" horiz-adv-x="376" 
d="M444 528h-376l11 53h376z" />
    <glyph glyph-name="degree" unicode="&#xb0;" horiz-adv-x="277" 
d="M267 397c-5.33301 -24.667 -18.5 -45.667 -39.5 -63s-43.833 -26 -68.5 -26s-43.834 8.66699 -57.501 26s-17.834 38.333 -12.501 63s18.5 45.667 39.5 63s43.833 26 68.5 26s43.834 -8.66699 57.501 -26s17.834 -38.333 12.501 -63zM235 397
c3.33301 15.333 0.5 28.666 -8.5 39.999s-21.167 17 -36.5 17s-29.833 -5.66699 -43.5 -17s-22.167 -24.666 -25.5 -39.999s-0.5 -28.666 8.5 -39.999s21.167 -17 36.5 -17s29.833 5.66699 43.5 17s22.167 24.666 25.5 39.999z" />
    <glyph glyph-name="plusminus" unicode="&#xb1;" horiz-adv-x="440" 
d="M361 0h-369l11 55h369zM402 217h-148l-30 -139h-63l30 139h-148l11 55h148l32 151h63l-32 -151h148z" />
    <glyph glyph-name="twosuperior" unicode="&#xb2;" horiz-adv-x="260" 
d="M213 190l-190 0.000976562c4 20.667 15.667 40.5 35 59.5s39.666 37.167 60.999 54.5l59.5 50.5c18.333 16.333 29.166 32.166 32.499 47.499c2.66699 11.333 1.33398 20 -3.99902 26s-13 9 -23 9c-12.667 0 -25 -4.66699 -37 -14s-20.333 -23 -25 -41l-41 8
c10 30 24.667 52.833 44 68.5s41.333 23.5 66 23.5c25.333 0 44.333 -7.16699 57 -21.5s16.334 -33.833 11.001 -58.5c-3.33301 -14 -11 -29.333 -23 -46s-29.333 -34.667 -52 -54l-80 -67h124z" />
    <glyph glyph-name="threesuperior" unicode="&#xb3;" horiz-adv-x="260" 
d="M246 294c-6.66699 -32 -22.6689 -57.666 -48.002 -76.999s-56 -29.333 -92 -30c-27.333 0 -50.333 8.33301 -69 25l28 42c8 -8 16.333 -13.333 25 -16s17.667 -4 27 -4c21.333 0 39.333 5.5 54 16.5s24 25.167 28 42.5c2 11.333 0.166992 20 -5.5 26s-13.167 9 -22.5 9
c-8 0 -16.333 -1.5 -25 -4.5s-16 -6.5 -22 -10.5l-10 30c28.667 12 51 24.5 67 37.5s25 24.833 27 35.5c3.33301 14.667 -4.33398 22 -23.001 22c-11.333 0 -23.166 -3.83301 -35.499 -11.5s-22.833 -19.167 -31.5 -34.5l-33 19c30.667 48 68 72 112 72
c46 0 65 -19.667 57 -59c-5.33301 -22.667 -20.666 -43.334 -45.999 -62.001c32.667 -10 45.334 -32.667 38.001 -68z" />
    <glyph glyph-name="acute" unicode="&#xb4;" horiz-adv-x="259" 
d="M133 366h-47l100 115h78z" />
    <glyph glyph-name="mu" unicode="&#xb5;" horiz-adv-x="414" 
d="M342 4l-63.001 -11.998c-2 7.33301 -3.33301 14.833 -4 22.5s-1 16.167 -1 25.5c-22 -14.667 -43.667 -26.5 -65 -35.5s-43.666 -13.5 -66.999 -13.5c-15.333 0 -29.333 2.66699 -42 8s-22.334 13.666 -29.001 24.999l-35 -165h-62l101 483h63l-38 -182
c-16.667 -75.333 3.66602 -113 60.999 -113c24.667 0 50.334 8.5 77.001 25.5s43 39.167 49 66.5l43 203h63l-53 -251c-2.66699 -12 -3.66699 -25.333 -3 -40s2.33398 -30.334 5.00098 -47.001z" />
    <glyph glyph-name="paragraph" unicode="&#xb6;" horiz-adv-x="380" 
d="M266 -63h-34l108 506h-48l-108 -506h-35l52 243h-4c-40 0 -73.167 12.5 -99.5 37.5s-34.833 59.5 -25.5 103.5c21.333 102.667 98 154 230 154c35.333 0 61 -1.66699 77 -5z" />
    <glyph glyph-name="periodcentered" unicode="&#xb7;" horiz-adv-x="172" 
d="M128 182c-2.66699 -13.333 -9.66699 -24.666 -21 -33.999s-23.666 -14 -36.999 -14s-23.666 4.66699 -30.999 14s-9.66602 20.666 -6.99902 33.999s9.66699 24.666 21 33.999s23.666 14 36.999 14s23.666 -4.66699 30.999 -14s9.66602 -20.666 6.99902 -33.999z" />
    <glyph glyph-name="cedilla" unicode="&#xb8;" horiz-adv-x="249" 
d="M132 -90c-4 -21.333 -14.333 -38.168 -31 -50.501s-37.667 -18.5 -63 -18.5c-9.33301 0 -19.166 1.5 -29.499 4.5s-19.833 7.5 -28.5 13.5l20 32c8 -4.66699 16.5 -8.33398 25.5 -11.001s16.167 -4 21.5 -4c21.333 0 34.333 10 39 30
c3.33301 18.667 -15.334 31.667 -56.001 39l57 66h43l-36 -39c16.667 -5.33301 28 -13.166 34 -23.499s7.33301 -23.166 4 -38.499z" />
    <glyph glyph-name="onesuperior" unicode="&#xb9;" horiz-adv-x="260" 
d="M207 195h-134l8 39h43l38 180l-48 -38l-17 34l98 74c10 0 17 -3.16699 21 -9.5s5 -14.5 3 -24.5l-46 -216h42z" />
    <glyph glyph-name="ordmasculine" unicode="&#xba;" horiz-adv-x="294" 
d="M306 359c-8 -36 -27.001 -66.167 -57.001 -90.5s-62.667 -36.5 -98 -36.5c-36 0 -63.667 12.167 -83 36.5s-25 54.5 -17 90.5c7.33301 35.333 25.833 65.5 55.5 90.5s62.5 37.5 98.5 37.5c35.333 0 62.833 -12.5 82.5 -37.5s25.834 -55.167 18.501 -90.5zM261.999 359
c4.66699 22.667 0.499023 42.334 -12.501 59.001s-30.833 25 -53.5 25s-44 -8.33301 -64 -25s-32.333 -36.334 -37 -59.001s-0.666992 -42.167 12 -58.5s30.334 -24.5 53.001 -24.5s44.167 8.16699 64.5 24.5s32.833 35.833 37.5 58.5z" />
    <glyph glyph-name="guillemotright" unicode="&#xbb;" horiz-adv-x="356" 
d="M55 47h-59l142 133l-85 134h59l86 -135zM178 47h-61l144 132l-86 136h62l83 -136z" />
    <glyph glyph-name="onequarter" unicode="&#xbc;" horiz-adv-x="542" 
d="M390 108l26.001 117.999c-16.667 -13.333 -32.834 -31.166 -48.501 -53.499s-27.167 -43.833 -34.5 -64.5h57zM420.001 -0.000976562l-51.999 -0.000976562l12 60h-109c4.66699 21.333 13.167 45.333 25.5 72s27.666 51.834 45.999 75.501s39.333 43.667 63 60
s49.167 24.833 76.5 25.5l-40 -185h42l-12 -48h-40zM173.002 175.998h-134l8 39h43l37 174l-45 -33l-20 36l100 74c20 -1.33301 27.667 -13 23 -35l-46 -216h42zM112.002 -9.00195h-50l389 483h50z" />
    <glyph glyph-name="onehalf" unicode="&#xbd;" horiz-adv-x="542" 
d="M476 0l-190.002 0.00390625c7.33301 25.333 20.5 47.666 39.5 66.999s38.5 36.666 58.5 51.999c9.33301 8 19 15.833 29 23.5s19.167 15.5 27.5 23.5s15.5 15.833 21.5 23.5s10 15.167 12 22.5c2 9.33301 0.833008 17.333 -3.5 24s-12.166 10 -23.499 10
c-27.333 0 -47.333 -18 -60 -54l-43 8c9.33301 30 23.833 52.833 43.5 68.5s41.834 23.5 66.501 23.5c25.333 0 44.5 -7 57.5 -21s16.833 -33.667 11.5 -59c-4 -16.667 -12.333 -32.334 -25 -47.001s-27 -28.834 -43 -42.501l-48 -39.5c-16 -12.667 -29.333 -25 -40 -37h124
zM111.998 -8.99609h-50l389 483h50zM172.998 176.004h-134l8 39h43l37 174l-45 -33l-20 36l100 74c20 -1.33301 27.667 -13 23 -35l-46 -216h42z" />
    <glyph glyph-name="threequarters" unicode="&#xbe;" horiz-adv-x="542" 
d="M390 108l25.998 118.002c-17.333 -16.667 -33.666 -35.334 -48.999 -56.001s-26.666 -41.334 -33.999 -62.001h57zM419.998 0.00195312h-52l12 60h-109c6.66699 24.667 16.167 50.5 28.5 77.5s27.5 52 45.5 75s38.5 42 61.5 57s48.167 22.833 75.5 23.5l-40 -185h42
l-12 -48h-40zM111.998 -8.99805h-50l389 483h50zM238.998 285.002c-3.33301 -17.333 -9.83203 -32.6621 -19.499 -45.9951s-20.834 -24.5 -33.501 -33.5s-26.667 -15.833 -42 -20.5s-30.333 -7 -45 -7c-27.333 0 -50.333 8.33301 -69 25l29 43
c7.33301 -7.33301 15.333 -12.833 24 -16.5s17.667 -5.5 27 -5.5c21.333 0 39.333 5.66699 54 17s24 25.666 28 42.999c4.66699 23.333 -4 35 -26 35c-16.667 0 -33.334 -6 -50.001 -18l-9 30c32.667 15.333 55.334 29 68.001 41s20.667 24.667 24 38
c0.666992 5.33301 -0.5 9.83301 -3.5 13.5s-8.83301 5.5 -17.5 5.5c-26.667 0 -49.334 -16.333 -68.001 -49l-33 19c30.667 48 68.334 72 113.001 72c23.333 0 39.333 -5.33301 48 -16s11.334 -23.334 8.00098 -38.001c-4.66699 -22.667 -19.334 -43.334 -44.001 -62.001
c17.333 -2.66699 28.833 -10.334 34.5 -23.001s6.5 -28.334 2.5 -47.001z" />
    <glyph glyph-name="questiondown" unicode="&#xbf;" horiz-adv-x="289" 
d="M196 -114c-44.667 -24.667 -85.6699 -36.998 -123.003 -36.998c-38 0 -66.167 10.167 -84.5 30.5s-23.833 47.5 -16.5 81.5c7.33301 35.333 37.666 75.666 90.999 120.999c18.667 15.333 33.334 30.833 44.001 46.5s17.667 30.5 21 44.5
c2.66699 11.333 3.33398 25.333 2.00098 42h57c1.33301 -9.33301 2 -17.833 2 -25.5s-0.333008 -14.167 -1 -19.5c-8 -36.667 -35.667 -75.334 -83 -116.001c-41.333 -36 -64.666 -66.333 -69.999 -91c-8 -38 11.333 -57 58 -57c28.667 0 58.334 9.66699 89.001 29z
M218.997 293.002c-2.66699 -13.333 -9.66699 -24.666 -21 -33.999s-23.333 -14 -36 -14s-22.667 4.66699 -30 14s-9.66602 20.666 -6.99902 33.999s9.66699 24.666 21 33.999s23.333 14 36 14s22.667 -4.66699 30 -14s9.66602 -20.666 6.99902 -33.999z" />
    <glyph glyph-name="Acircumflex" unicode="&#xc2;" horiz-adv-x="451" 
d="M408 0h-69l-30 159h-191l-95 -159h-68l302 483h54zM297 213l-28 198l-116 -198h144zM386 521h-54l-26 71l-55 -71h-55l103 115h35z" />
    <glyph glyph-name="Adieresis" unicode="&#xc4;" horiz-adv-x="451" 
d="M408 0h-69l-30 159h-191l-95 -159h-68l302 483h54zM297 213l-28 198l-116 -198h144zM270 561c-2.66699 -12.667 -9.33301 -23.167 -20 -31.5s-21.667 -12.5 -33 -12.5c-12 0 -21.333 4.16699 -28 12.5s-8.66699 18.833 -6 31.5c2.66699 12 9.16699 22.333 19.5 31
s21.5 13 33.5 13c11.333 0 20.5 -4.33301 27.5 -13s9.16699 -19 6.5 -31zM418.001 561c-2.66699 -12.667 -9.33398 -23.167 -20.001 -31.5s-21.667 -12.5 -33 -12.5s-20.5 4.16699 -27.5 12.5s-9.16699 18.833 -6.5 31.5c2.66699 12 9.33398 22.333 20.001 31
s21.667 13 33 13s20.5 -4.33301 27.5 -13s9.16699 -19 6.5 -31z" />
    <glyph glyph-name="Aring" unicode="&#xc5;" horiz-adv-x="451" 
d="M408 0h-69l-30 159h-191l-95 -159h-68l302 483h54zM297 213l-28 198l-116 -198h144zM388 600c-4.66699 -22 -16.5 -40.833 -35.5 -56.5s-39.5 -23.5 -61.5 -23.5s-39.167 7.83301 -51.5 23.5s-16.166 34.5 -11.499 56.5s16.5 40.833 35.5 56.5s39.5 23.5 61.5 23.5
s39.167 -7.83301 51.5 -23.5s16.166 -34.5 11.499 -56.5zM346 600c2.66699 10.667 1 19.667 -5 27s-14.333 11 -25 11s-20.5 -3.66699 -29.5 -11s-14.833 -16.333 -17.5 -27c-2 -10.667 0 -19.834 6 -27.501s14.333 -11.5 25 -11.5s20.5 3.83301 29.5 11.5
s14.5 16.834 16.5 27.501z" />
    <glyph glyph-name="AE" unicode="&#xc6;" horiz-adv-x="583" 
d="M511 0h-229l13 190h-140l-141 -190h-68l361 483h294l-12 -55h-218l-12 -147h189l-11 -55h-180l-11 -171h176zM298 244l16 161l-121 -161h105z" />
    <glyph glyph-name="Ccedilla" unicode="&#xc7;" horiz-adv-x="432" 
d="M371 25c-53.333 -21.333 -113.665 -31.999 -180.998 -31.999c-63.333 0 -109.333 22.5 -138 67.5s-35.334 103.833 -20.001 176.5c15.333 72 46.333 130 93 174c51.333 48 114 72 188 72c56.667 0 106.334 -9.66699 149.001 -29l-31 -50c-36 16.667 -78.333 25 -127 25
c-61.333 0 -111.333 -22.667 -150 -68c-28 -33.333 -47.667 -75.333 -59 -126c-9.33301 -46.667 -6 -87.334 10 -122.001c19.333 -44 55.666 -66 108.999 -66c55.333 0 105.666 10 150.999 30zM223.001 -89.999c-4 -21.333 -14.333 -38.168 -31 -50.501
s-37.667 -18.5 -63 -18.5c-9.33301 0 -19.166 1.5 -29.499 4.5s-19.833 7.5 -28.5 13.5l20 32c8 -4.66699 16.5 -8.33398 25.5 -11.001s16.167 -4 21.5 -4c21.333 0 34.333 10 39 30c3.33301 18.667 -15.334 31.667 -56.001 39l57 66h43l-36 -39
c16.667 -5.33301 28 -13.166 34 -23.499s7.33301 -23.166 4 -38.499z" />
    <glyph glyph-name="Ecircumflex" unicode="&#xca;" horiz-adv-x="358" 
d="M289 0h-283l101 476h283l-12 -54h-220l-30 -144h196l-12 -54h-196l-36 -170h220zM340 521h-54l-26 71l-55 -71h-55l103 115h35z" />
    <glyph glyph-name="Edieresis" unicode="&#xcb;" horiz-adv-x="358" 
d="M289 0h-283l101 476h283l-12 -54h-220l-30 -144h196l-12 -54h-196l-36 -170h220zM223 561c-2.66699 -12.667 -9.33301 -23.167 -20 -31.5s-21.667 -12.5 -33 -12.5c-12 0 -21.333 4.16699 -28 12.5s-8.66699 18.833 -6 31.5c2.66699 12 9.16699 22.333 19.5 31
s21.5 13 33.5 13c11.333 0 20.5 -4.33301 27.5 -13s9.16699 -19 6.5 -31zM371.001 561c-2.66699 -12.667 -9.33398 -23.167 -20.001 -31.5s-21.667 -12.5 -33 -12.5s-20.5 4.16699 -27.5 12.5s-9.16699 18.833 -6.5 31.5c2.66699 12 9.33398 22.333 20.001 31
s21.667 13 33 13s20.5 -4.33301 27.5 -13s9.16699 -19 6.5 -31z" />
    <glyph glyph-name="Icircumflex" unicode="&#xce;" horiz-adv-x="163" 
d="M69 0h-63l101 476h63zM243 521h-54l-26 71l-55 -71h-55l103 115h35z" />
    <glyph glyph-name="Idieresis" unicode="&#xcf;" horiz-adv-x="163" 
d="M69 0h-63l101 476h63zM131 561c-2.66699 -12.667 -9.33301 -23.167 -20 -31.5s-21.667 -12.5 -33 -12.5c-12 0 -21.333 4.16699 -28 12.5s-8.66699 18.833 -6 31.5c2.66699 12 9.16699 22.333 19.5 31s21.5 13 33.5 13c11.333 0 20.5 -4.33301 27.5 -13
s9.16699 -19 6.5 -31zM279.001 561c-2.66699 -12.667 -9.33398 -23.167 -20.001 -31.5s-21.667 -12.5 -33 -12.5s-20.5 4.16699 -27.5 12.5s-9.16699 18.833 -6.5 31.5c2.66699 12 9.33398 22.333 20.001 31s21.667 13 33 13s20.5 -4.33301 27.5 -13s9.16699 -19 6.5 -31z
" />
    <glyph glyph-name="Eth" unicode="&#xd0;" horiz-adv-x="459" 
d="M441 248c-15.333 -72 -45 -129.668 -89 -173.001c-53.333 -52.667 -124.333 -79 -213 -79c-27.333 0 -71.333 3.33301 -132 10l42 200h-41l12 54h41l44 208c78 8.66699 130.333 13 157 13c81.333 0 136.333 -24.333 165 -73c24 -39.333 28.667 -92.666 14 -159.999z
M377 247.999c25.333 119.333 -17.999 179 -129.999 179c-18.667 0 -48.334 -2 -89.001 -6l-34 -161h160l-12 -54h-160l-32 -153c21.333 -2 48.666 -3 81.999 -3c64.667 0 116.667 23 156 69c28.667 34 48.334 77 59.001 129z" />
    <glyph glyph-name="Ntilde" unicode="&#xd1;" horiz-adv-x="472" 
d="M378 0h-60l-167 386l-82 -386h-63l101 476h63l166 -376l80 376h63zM416 592c-5.33301 -23.333 -14.1699 -41.8311 -26.5029 -55.498s-28.166 -20.5 -47.499 -20.5c-5.33301 0 -11.5 1.5 -18.5 4.5s-14.167 6.33301 -21.5 10s-14.5 7 -21.5 10s-12.833 4.5 -17.5 4.5
c-5.33301 0 -9.16602 -2.5 -11.499 -7.5s-4.16602 -10.5 -5.49902 -16.5h-44c4.66699 20 13.167 36.833 25.5 50.5s27.5 20.5 45.5 20.5c6 0 12.667 -1.33301 20 -4s14.166 -5.83398 20.499 -9.50098s12.833 -6.83398 19.5 -9.50098s12.334 -4 17.001 -4
c12.667 0 20.667 9 24 27h42z" />
    <glyph glyph-name="Ocircumflex" unicode="&#xd4;" horiz-adv-x="518" 
d="M436 238c12 54.667 6.16992 100.5 -17.4971 137.5s-61.167 55.5 -112.5 55.5s-96.5 -18.5 -135.5 -55.5s-64.5 -82.833 -76.5 -137.5c-11.333 -54.667 -5.33301 -100.5 18 -137.5s60.666 -55.5 111.999 -55.5s96.666 18.5 135.999 55.5s64.666 82.833 75.999 137.5z
M498.003 237c-14.667 -70 -48.834 -128.667 -102.501 -176s-114.834 -71 -183.501 -71s-119.5 23.667 -152.5 71s-42.167 106 -27.5 176s48.834 128.833 102.501 176.5s114.834 71.5 183.501 71.5s119.5 -23.833 152.5 -71.5s42.167 -106.5 27.5 -176.5zM420.003 521h-54
l-26 71l-55 -71h-55l103 115h35z" />
    <glyph glyph-name="Odieresis" unicode="&#xd6;" horiz-adv-x="518" 
d="M436 238c12 54.667 6.16992 100.5 -17.4971 137.5s-61.167 55.5 -112.5 55.5s-96.5 -18.5 -135.5 -55.5s-64.5 -82.833 -76.5 -137.5c-11.333 -54.667 -5.33301 -100.5 18 -137.5s60.666 -55.5 111.999 -55.5s96.666 18.5 135.999 55.5s64.666 82.833 75.999 137.5z
M498.003 237c-14.667 -70 -48.834 -128.667 -102.501 -176s-114.834 -71 -183.501 -71s-119.5 23.667 -152.5 71s-42.167 106 -27.5 176s48.834 128.833 102.501 176.5s114.834 71.5 183.501 71.5s119.5 -23.833 152.5 -71.5s42.167 -106.5 27.5 -176.5zM303.003 561
c-2.66699 -12.667 -9.33301 -23.167 -20 -31.5s-21.667 -12.5 -33 -12.5c-12 0 -21.333 4.16699 -28 12.5s-8.66699 18.833 -6 31.5c2.66699 12 9.16699 22.333 19.5 31s21.5 13 33.5 13c11.333 0 20.5 -4.33301 27.5 -13s9.16699 -19 6.5 -31zM451.004 561
c-2.66699 -12.667 -9.33398 -23.167 -20.001 -31.5s-21.667 -12.5 -33 -12.5s-20.5 4.16699 -27.5 12.5s-9.16699 18.833 -6.5 31.5c2.66699 12 9.33398 22.333 20.001 31s21.667 13 33 13s20.5 -4.33301 27.5 -13s9.16699 -19 6.5 -31z" />
    <glyph glyph-name="multiply" unicode="&#xd7;" horiz-adv-x="417" 
d="M353 34l-49 -39l-110 148l-86.5 -74l-86.5 -74l-30 39l172 148l-54.5 75.5l-55.5 75.5l49 39l110 -148l87 74.5l86 73.5l31 -39l-175 -150z" />
    <glyph glyph-name="Oslash" unicode="&#xd8;" horiz-adv-x="518" 
d="M498 237c-14.667 -70 -48.833 -128.667 -102.5 -176s-114.834 -71 -183.501 -71c-31.333 0 -59 4.66699 -83 14l-22 -32h-64l42 59c-9.33301 8.66699 -18 18.667 -26 30c-32.667 47.333 -41.667 106 -27 176s48.834 128.833 102.501 176.5s114.834 71.5 183.501 71.5
c32.667 0 61 -5.33301 85 -16l17 23h64l-38 -52c8.66699 -8 16.667 -17 24 -27c33.333 -47.333 42.666 -106 27.999 -176zM368.001 419c-18 8 -38.667 12 -62 12c-51.333 0 -96.5 -18.5 -135.5 -55.5s-64.5 -82.833 -76.5 -137.5c-11.333 -54.667 -5.33301 -100.667 18 -138
c3.33301 -6 7 -11.333 11 -16zM436.001 238c12 54.667 6.00195 100.333 -17.998 137c-2.66699 4.66699 -5.66699 9 -9 13l-243 -333c16.667 -6.66699 36 -10 58 -10c51.333 0 96.666 18.5 135.999 55.5s64.666 82.833 75.999 137.5z" />
    <glyph glyph-name="Ucircumflex" unicode="&#xdb;" horiz-adv-x="482" 
d="M431 203c-30 -141.333 -108.668 -212 -236.001 -212s-176 70.667 -146 212l58 273h64l-58 -273c-22.667 -105.333 8.33301 -158 93 -158s138.334 52.667 161.001 158l58 273h64zM401.999 521h-54l-26 71l-55 -71h-55l103 115h35z" />
    <glyph glyph-name="Udieresis" unicode="&#xdc;" horiz-adv-x="482" 
d="M431 203c-30 -141.333 -108.668 -212 -236.001 -212s-176 70.667 -146 212l58 273h64l-58 -273c-22.667 -105.333 8.33301 -158 93 -158s138.334 52.667 161.001 158l58 273h64zM284.999 561c-2.66699 -12.667 -9.33301 -23.167 -20 -31.5s-21.667 -12.5 -33 -12.5
c-12 0 -21.333 4.16699 -28 12.5s-8.66699 18.833 -6 31.5c2.66699 12 9.16699 22.333 19.5 31s21.5 13 33.5 13c11.333 0 20.5 -4.33301 27.5 -13s9.16699 -19 6.5 -31zM433 561c-2.66699 -12.667 -9.33398 -23.167 -20.001 -31.5s-21.667 -12.5 -33 -12.5
s-20.5 4.16699 -27.5 12.5s-9.16699 18.833 -6.5 31.5c2.66699 12 9.33398 22.333 20.001 31s21.667 13 33 13s20.5 -4.33301 27.5 -13s9.16699 -19 6.5 -31z" />
    <glyph glyph-name="Thorn" unicode="&#xde;" horiz-adv-x="394" 
d="M365 249c-10.667 -51.333 -35.832 -90.5 -75.499 -117.5s-89.834 -40.5 -150.501 -40.5c-21.333 0 -38.333 1.33301 -51 4l-20 -95h-59l101 476h59l-16 -73c14 2.66699 31.667 4 53 4c60.667 0 105.167 -13.5 133.5 -40.5s36.833 -66.167 25.5 -117.5zM307.002 249
c15.333 70.667 -21.333 106 -110 106c-20.667 0 -39.334 -2.66699 -56.001 -8l-41 -196c14 -5.33301 31.333 -8 52 -8c88.667 0 140.334 35.333 155.001 106z" />
    <glyph glyph-name="germandbls" unicode="&#xdf;" horiz-adv-x="425" 
d="M355 109c-8 -36.667 -25.668 -65.5 -53.001 -86.5s-60.333 -31.5 -99 -31.5c-17.333 0 -33.5 2.16699 -48.5 6.5s-29.167 10.5 -42.5 18.5l31 54c26.667 -16 50.667 -24 72 -24s39.166 5.5 53.499 16.5s23.166 24.5 26.499 40.5
c3.33301 14.667 1.16602 27.667 -6.50098 39s-16.5 22.5 -26.5 33.5s-18.667 22.5 -26 34.5s-9.33301 26 -6 42c2 8.66699 7.33301 18.167 16 28.5s18.334 20.666 29.001 30.999s20.334 20.333 29.001 30s14 18.5 16 26.5c9.33301 44.667 -10 67 -58 67
c-56 0 -95 -51.333 -117 -154l-68 -321c-4 -17.333 -10 -34.666 -18 -51.999s-18.333 -34.333 -31 -51l-53 15c12.667 16.667 22.167 32.167 28.5 46.5s10.833 28.166 13.5 41.499l72 337c27.333 130 91.333 195 192 195c36 0 63.167 -10.833 81.5 -32.5
s23.5 -51.5 15.5 -89.5c-3.33301 -15.333 -9.66602 -29.166 -18.999 -41.499s-18.833 -23.5 -28.5 -33.5s-18.667 -18.667 -27 -26s-13.166 -14 -14.499 -20c-1.33301 -6.66699 2.16699 -14.5 10.5 -23.5s17 -19.5 26 -31.5s17 -25 24 -39s8.83301 -29.333 5.5 -46z" />
    <glyph glyph-name="acircumflex" unicode="&#xe2;" horiz-adv-x="431" 
d="M366 4l-63.001 -12c-8 10.667 -13 30 -15 58c-32.667 -39.333 -76 -59 -130 -59c-42 0 -76.5 12.667 -103.5 38s-40.5 59 -40.5 101c0 60 20.5 112.167 61.5 156.5s91.5 66.5 151.5 66.5c74 0 130.667 -21 170 -63l-42 -199c-5.33301 -32 -1.66602 -61 11.001 -87z
M303.999 142l25 119.999c-26 26 -62 39 -108 39c-39.333 0 -73.5 -16.167 -102.5 -48.5s-43.5 -70.166 -43.5 -113.499c0 -62 32 -93 96 -93c31.333 0 60 9.5 86 28.5s41.667 41.5 47 67.5zM354.999 384.999h-54l-26 71l-55 -71h-55l103 115h35z" />
    <glyph glyph-name="adieresis" unicode="&#xe4;" horiz-adv-x="431" 
d="M366 4l-63.001 -12c-8 10.667 -13 30 -15 58c-32.667 -39.333 -76 -59 -130 -59c-42 0 -76.5 12.667 -103.5 38s-40.5 59 -40.5 101c0 60 20.5 112.167 61.5 156.5s91.5 66.5 151.5 66.5c74 0 130.667 -21 170 -63l-42 -199c-5.33301 -32 -1.66602 -61 11.001 -87z
M303.999 142l25 119.999c-26 26 -62 39 -108 39c-39.333 0 -73.5 -16.167 -102.5 -48.5s-43.5 -70.166 -43.5 -113.499c0 -62 32 -93 96 -93c31.333 0 60 9.5 86 28.5s41.667 41.5 47 67.5zM242.999 424.999c-2.66699 -12.667 -9.33301 -23.167 -20 -31.5
s-21.667 -12.5 -33 -12.5c-12 0 -21.333 4.16699 -28 12.5s-8.66699 18.833 -6 31.5c2.66699 12 9.16699 22.333 19.5 31s21.5 13 33.5 13c11.333 0 20.5 -4.33301 27.5 -13s9.16699 -19 6.5 -31zM391 424.999c-2.66699 -12.667 -9.33398 -23.167 -20.001 -31.5
s-21.667 -12.5 -33 -12.5s-20.5 4.16699 -27.5 12.5s-9.16699 18.833 -6.5 31.5c2.66699 12 9.33398 22.333 20.001 31s21.667 13 33 13s20.5 -4.33301 27.5 -13s9.16699 -19 6.5 -31z" />
    <glyph glyph-name="aring" unicode="&#xe5;" horiz-adv-x="431" 
d="M366 4l-63.001 -12c-8 10.667 -13 30 -15 58c-32.667 -39.333 -76 -59 -130 -59c-42 0 -76.5 12.667 -103.5 38s-40.5 59 -40.5 101c0 60 20.5 112.167 61.5 156.5s91.5 66.5 151.5 66.5c74 0 130.667 -21 170 -63l-42 -199c-5.33301 -32 -1.66602 -61 11.001 -87z
M303.999 142l25 119.999c-26 26 -62 39 -108 39c-39.333 0 -73.5 -16.167 -102.5 -48.5s-43.5 -70.166 -43.5 -113.499c0 -62 32 -93 96 -93c31.333 0 60 9.5 86 28.5s41.667 41.5 47 67.5zM352.999 463.999c-4.66699 -22 -16.5 -40.833 -35.5 -56.5
s-39.5 -23.5 -61.5 -23.5s-39.167 7.83301 -51.5 23.5s-16.166 34.5 -11.499 56.5s16.5 40.833 35.5 56.5s39.5 23.5 61.5 23.5s39.167 -7.83301 51.5 -23.5s16.166 -34.5 11.499 -56.5zM310.999 463.999c2.66699 10.667 1 19.667 -5 27s-14.333 11 -25 11
s-20.5 -3.66699 -29.5 -11s-14.833 -16.333 -17.5 -27c-2 -10.667 0 -19.834 6 -27.501s14.333 -11.5 25 -11.5s20.5 3.83301 29.5 11.5s14.5 16.834 16.5 27.501z" />
    <glyph glyph-name="ae" unicode="&#xe6;" horiz-adv-x="621" 
d="M539 18c-48.667 -18 -97.0059 -27.002 -145.006 -27.002c-65.333 0 -110.666 23.333 -135.999 70c-34 -46.667 -86.333 -70 -157 -70c-16.667 0 -31.834 2.33301 -45.501 7s-25.167 11.334 -34.5 20.001s-15.666 19.334 -18.999 32.001s-3.66602 27 -0.999023 43
c18.667 86.667 104 130.667 256 132c4 22.667 0.5 41.167 -10.5 55.5s-29.167 21.5 -54.5 21.5c-21.333 0 -62.666 -8.66699 -123.999 -26l4 57c50 14 95 21 135 21c30 0 53.833 -4.5 71.5 -13.5s29.834 -24.833 36.501 -47.5c40.667 40.667 91.334 61 152.001 61
c102.667 0 142 -64.667 118 -194h-279c-4.66699 -36.667 2.33301 -64.667 21 -84s46 -29 82 -29c38.667 0 84.334 8.66699 137.001 26zM245.994 169.998c-57.333 -0.666992 -100 -6.83301 -128 -18.5s-44.333 -29.167 -49 -52.5c-4 -17.333 -1.5 -30.5 7.5 -39.5
s21.5 -13.5 37.5 -13.5c32 0 59.5 9 82.5 27s37.833 43 44.5 75zM533.994 212.999c0.666992 24.667 -5.83398 45.667 -19.501 63s-34.5 26 -62.5 26c-29.333 0 -55.166 -7.83301 -77.499 -23.5s-39.5 -37.5 -51.5 -65.5h211z" />
    <glyph glyph-name="ccedilla" unicode="&#xe7;" horiz-adv-x="347" 
d="M282 21c-36 -20 -76.999 -30 -122.999 -30c-54 0 -93.833 16.833 -119.5 50.5s-32.834 77.167 -21.501 130.5c11.333 54 37 97.667 77 131s87 50 141 50c45.333 0 82 -10 110 -30l-33 -52c-27.333 19.333 -57.666 29 -90.999 29c-34 0 -63.833 -11.833 -89.5 -35.5
s-42.5 -54.5 -50.5 -92.5c-8 -38.667 -4.16699 -69.667 11.5 -93s40.5 -35 74.5 -35c33.333 0 67.666 9.66699 102.999 29zM181.001 -90c-4 -21.333 -14.333 -38.168 -31 -50.501s-37.667 -18.5 -63 -18.5c-9.33301 0 -19.166 1.5 -29.499 4.5s-19.833 7.5 -28.5 13.5l20 32
c8 -4.66699 16.5 -8.33398 25.5 -11.001s16.167 -4 21.5 -4c21.333 0 34.333 10 39 30c3.33301 18.667 -15.334 31.667 -56.001 39l57 66h43l-36 -39c16.667 -5.33301 28 -13.166 34 -23.499s7.33301 -23.166 4 -38.499z" />
    <glyph glyph-name="ecircumflex" unicode="&#xea;" horiz-adv-x="391" 
d="M362 246c0 -34 -17.666 -60.001 -52.999 -78.001c-30 -15.333 -67.333 -23 -112 -23c-40.667 0 -80.667 2.66699 -120 8c-0.666992 -4 -1 -8 -1 -12c0 -30 9.66699 -53.167 29 -69.5s44.666 -24.5 75.999 -24.5c36 0 80.667 8.66699 134 26l-5 -55
c-52 -18 -100 -27 -144 -27c-46 0 -83.167 11.833 -111.5 35.5s-42.5 55.834 -42.5 96.501c0 64 22.667 118.333 68 163s98.333 67 159 67c82 0 123 -35.667 123 -107zM308.001 246.999c0 36 -26.001 54 -78.001 54c-27.333 0 -55.166 -10 -83.499 -30
s-47.833 -44.333 -58.5 -73c18.667 -4.66699 50.667 -7 96 -7c82.667 0 124 18.667 124 56zM327 384.999h-54l-26 71l-55 -71h-55l103 115h35z" />
    <glyph glyph-name="edieresis" unicode="&#xeb;" horiz-adv-x="391" 
d="M362 246c0 -34 -17.666 -60.001 -52.999 -78.001c-30 -15.333 -67.333 -23 -112 -23c-40.667 0 -80.667 2.66699 -120 8c-0.666992 -4 -1 -8 -1 -12c0 -30 9.66699 -53.167 29 -69.5s44.666 -24.5 75.999 -24.5c36 0 80.667 8.66699 134 26l-5 -55
c-52 -18 -100 -27 -144 -27c-46 0 -83.167 11.833 -111.5 35.5s-42.5 55.834 -42.5 96.501c0 64 22.667 118.333 68 163s98.333 67 159 67c82 0 123 -35.667 123 -107zM308.001 246.999c0 36 -26.001 54 -78.001 54c-27.333 0 -55.166 -10 -83.499 -30
s-47.833 -44.333 -58.5 -73c18.667 -4.66699 50.667 -7 96 -7c82.667 0 124 18.667 124 56zM211 424.999c-2.66699 -12.667 -9.33301 -23.167 -20 -31.5s-21.667 -12.5 -33 -12.5c-12 0 -21.333 4.16699 -28 12.5s-8.66699 18.833 -6 31.5
c2.66699 12 9.16699 22.333 19.5 31s21.5 13 33.5 13c11.333 0 20.5 -4.33301 27.5 -13s9.16699 -19 6.5 -31zM359.001 424.999c-2.66699 -12.667 -9.33398 -23.167 -20.001 -31.5s-21.667 -12.5 -33 -12.5s-20.5 4.16699 -27.5 12.5s-9.16699 18.833 -6.5 31.5
c2.66699 12 9.33398 22.333 20.001 31s21.667 13 33 13s20.5 -4.33301 27.5 -13s9.16699 -19 6.5 -31z" />
    <glyph glyph-name="icircumflex" unicode="&#xee;" horiz-adv-x="163" 
d="M69 0h-63l72 340h63zM219 385h-54l-26 71l-55 -71h-55l103 115h35z" />
    <glyph glyph-name="idieresis" unicode="&#xef;" horiz-adv-x="163" 
d="M69 0h-63l72 340h63zM102 425c-2.66699 -12.667 -9.33301 -23.167 -20 -31.5s-21.667 -12.5 -33 -12.5c-12 0 -21.333 4.16699 -28 12.5s-8.66699 18.833 -6 31.5c2.66699 12 9.16699 22.333 19.5 31s21.5 13 33.5 13c11.333 0 20.5 -4.33301 27.5 -13
s9.16699 -19 6.5 -31zM250.001 425c-2.66699 -12.667 -9.33398 -23.167 -20.001 -31.5s-21.667 -12.5 -33 -12.5s-20.5 4.16699 -27.5 12.5s-9.16699 18.833 -6.5 31.5c2.66699 12 9.33398 22.333 20.001 31s21.667 13 33 13s20.5 -4.33301 27.5 -13s9.16699 -19 6.5 -31z
" />
    <glyph glyph-name="eth" unicode="&#xf0;" horiz-adv-x="378" 
d="M331 163c-11.333 -54 -35.665 -97.334 -72.998 -130.001s-79.333 -49 -126 -49c-42 0 -73.333 15.167 -94 45.5s-26 67.833 -16 112.5c9.33301 44 30.833 81 64.5 111s70.5 45 110.5 45s67.333 -10.667 82 -32c-8.66699 33.333 -30 66 -64 98
c-0.666992 0.666992 -1.33398 1 -2.00098 1l-112 -52l-18 44l89 41c-21.333 13.333 -43 23.333 -65 30l17 50c44.667 -9.33301 83 -25.666 115 -48.999l101 47l12 -46l-76 -35c55.333 -66.667 73.666 -144 54.999 -232zM259.001 141.999
c6 28.667 2.16699 52.835 -11.5 72.502s-33.167 29.5 -58.5 29.5c-24 0 -46.833 -10.333 -68.5 -31s-35.167 -44.334 -40.5 -71.001c-6 -26.667 -2.5 -50.334 10.5 -71.001s31.5 -31 55.5 -31c25.333 0 49 10 71 30s36 44 42 72z" />
    <glyph glyph-name="ntilde" unicode="&#xf1;" horiz-adv-x="423" 
d="M345 76c-2 -16.667 -2.33398 -30.167 -1.00098 -40.5s4.66602 -19.833 9.99902 -28.5l-60 -22c-6 8.66699 -10.167 22.167 -12.5 40.5s-1.16602 39.166 3.50098 62.499l22 105c14.667 69.333 -9.66602 104 -72.999 104c-23.333 0 -48.5 -10.5 -75.5 -31.5
s-42.5 -41.833 -46.5 -62.5l-43 -203h-63l53 250c3.33301 16.667 6 31.334 8 44.001c2 14 0 28.667 -6 44l55 11c8.66699 -16 11.334 -35 8.00098 -57c41.333 38.667 84.666 58 129.999 58s78.5 -14 99.5 -42s26.5 -66.333 16.5 -115zM362.999 456
c-5.33301 -23.333 -14.1699 -41.8311 -26.5029 -55.498s-28.166 -20.5 -47.499 -20.5c-5.33301 0 -11.5 1.5 -18.5 4.5s-14.167 6.33301 -21.5 10s-14.5 7 -21.5 10s-12.833 4.5 -17.5 4.5c-5.33301 0 -9.16602 -2.5 -11.499 -7.5s-4.16602 -10.5 -5.49902 -16.5h-44
c4.66699 20 13.167 36.833 25.5 50.5s27.5 20.5 45.5 20.5c6 0 12.667 -1.33301 20 -4s14.166 -5.83398 20.499 -9.50098s12.833 -6.83398 19.5 -9.50098s12.334 -4 17.001 -4c12.667 0 20.667 9 24 27h42z" />
    <glyph glyph-name="ocircumflex" unicode="&#xf4;" horiz-adv-x="412" 
d="M378 172c-10.667 -50.667 -36.667 -93.334 -78 -128.001s-88 -52 -140 -52s-91.333 17.333 -118 52s-34.667 77.334 -24 128.001s36.834 93.5 78.501 128.5s88.5 52.5 140.5 52.5s91.167 -17.5 117.5 -52.5s34.166 -77.833 23.499 -128.5zM316 172
c8 36 3.49902 66.167 -13.501 90.5s-42.833 36.5 -77.5 36.5s-65.5 -12.167 -92.5 -36.5s-44.5 -54.5 -52.5 -90.5c-7.33301 -36 -2.66602 -66.167 14.001 -90.5s42.334 -36.5 77.001 -36.5s65.667 12.167 93 36.5s44.666 54.5 51.999 90.5zM337.999 385h-54l-26 71l-55 -71
h-55l103 115h35z" />
    <glyph glyph-name="odieresis" unicode="&#xf6;" horiz-adv-x="412" 
d="M378 172c-10.667 -50.667 -36.667 -93.334 -78 -128.001s-88 -52 -140 -52s-91.333 17.333 -118 52s-34.667 77.334 -24 128.001s36.834 93.5 78.501 128.5s88.5 52.5 140.5 52.5s91.167 -17.5 117.5 -52.5s34.166 -77.833 23.499 -128.5zM316 172
c8 36 3.49902 66.167 -13.501 90.5s-42.833 36.5 -77.5 36.5s-65.5 -12.167 -92.5 -36.5s-44.5 -54.5 -52.5 -90.5c-7.33301 -36 -2.66602 -66.167 14.001 -90.5s42.334 -36.5 77.001 -36.5s65.667 12.167 93 36.5s44.666 54.5 51.999 90.5zM220.999 425
c-2.66699 -12.667 -9.33301 -23.167 -20 -31.5s-21.667 -12.5 -33 -12.5c-12 0 -21.333 4.16699 -28 12.5s-8.66699 18.833 -6 31.5c2.66699 12 9.16699 22.333 19.5 31s21.5 13 33.5 13c11.333 0 20.5 -4.33301 27.5 -13s9.16699 -19 6.5 -31zM369 425
c-2.66699 -12.667 -9.33398 -23.167 -20.001 -31.5s-21.667 -12.5 -33 -12.5s-20.5 4.16699 -27.5 12.5s-9.16699 18.833 -6.5 31.5c2.66699 12 9.33398 22.333 20.001 31s21.667 13 33 13s20.5 -4.33301 27.5 -13s9.16699 -19 6.5 -31z" />
    <glyph glyph-name="divide" unicode="&#xf7;" horiz-adv-x="417" 
d="M380 157h-365l11 54h365zM224 56c-2.66699 -13.333 -9.66699 -24.666 -21 -33.999s-23.333 -14 -36 -14s-22.667 4.66699 -30 14s-9.66602 20.666 -6.99902 33.999c3.33301 13.333 10.666 24.666 21.999 33.999s23.333 14 36 14s22.667 -4.66699 30 -14
s9.33301 -20.666 6 -33.999zM279 313c-2.66699 -13.333 -9.66699 -24.666 -21 -33.999s-23.333 -14 -36 -14s-22.667 4.66699 -30 14s-9.66602 20.666 -6.99902 33.999s9.66699 24.666 21 33.999s23.333 14 36 14s22.667 -4.66699 30 -14s9.66602 -20.666 6.99902 -33.999z
" />
    <glyph glyph-name="oslash" unicode="&#xf8;" horiz-adv-x="412" 
d="M378 172c-10.667 -50.667 -36.668 -93.333 -78.001 -128s-88 -52 -140 -52c-22 0 -41.667 3 -59 9l-21 -29h-64l40 56c-5.33301 4.66699 -10 10 -14 16c-26.667 34.667 -34.667 77.334 -24 128.001s36.834 93.5 78.501 128.5s88.5 52.5 140.5 52.5
c18.667 0 35.667 -2.33301 51 -7l24 32h64l-41 -57c6.66699 -6 13 -13 19 -21c26.667 -34.667 34.667 -77.334 24 -128.001zM315.999 172.001c8 36 3.33301 66 -14 90c-2 2.66699 -3.66699 5 -5 7l-161 -219c10.667 -3.33301 22.334 -5 35.001 -5
c34.667 0 65.667 12.167 93 36.5s44.666 54.5 51.999 90.5zM250.999 296.001c-8 2 -16.668 3 -26.001 3c-34.667 0 -65.5 -12.167 -92.5 -36.5s-44.5 -54.5 -52.5 -90.5c-7.33301 -36 -2.66602 -66.333 14.001 -91l1 -1z" />
    <glyph glyph-name="ucircumflex" unicode="&#xfb;" horiz-adv-x="418" 
d="M354 4l-62.999 -11.999c-8 10.667 -13 30 -15 58c-48.667 -39.333 -92.334 -59 -131.001 -59c-76 0 -114 35 -114 105c0 17.333 2.33301 36.666 7 57.999l24 111c2 9.33301 3 19 3 29c0 14.667 -2 29.334 -6 44.001l60 12c6 -18 9 -36 9 -54
c0 -12.667 -1.33301 -25.334 -4 -38.001l-21 -98c-4 -18.667 -6 -33.667 -6 -45c0 -45.333 22.333 -68 67 -68c24.667 0 50.5 9.5 77.5 28.5s43.167 40.167 48.5 63.5l43 201h63l-53 -249c-1.33301 -6 -2 -13 -2 -21c0 -20 4.33301 -42 13 -66zM341.001 385.001h-54l-26 71
l-55 -71h-55l103 115h35z" />
    <glyph glyph-name="udieresis" unicode="&#xfc;" horiz-adv-x="418" 
d="M354 4l-62.999 -11.999c-8 10.667 -13 30 -15 58c-48.667 -39.333 -92.334 -59 -131.001 -59c-76 0 -114 35 -114 105c0 17.333 2.33301 36.666 7 57.999l24 111c2 9.33301 3 19 3 29c0 14.667 -2 29.334 -6 44.001l60 12c6 -18 9 -36 9 -54
c0 -12.667 -1.33301 -25.334 -4 -38.001l-21 -98c-4 -18.667 -6 -33.667 -6 -45c0 -45.333 22.333 -68 67 -68c24.667 0 50.5 9.5 77.5 28.5s43.167 40.167 48.5 63.5l43 201h63l-53 -249c-1.33301 -6 -2 -13 -2 -21c0 -20 4.33301 -42 13 -66zM224.001 425.001
c-2.66699 -12.667 -9.33301 -23.167 -20 -31.5s-21.667 -12.5 -33 -12.5c-12 0 -21.333 4.16699 -28 12.5s-8.66699 18.833 -6 31.5c2.66699 12 9.16699 22.333 19.5 31s21.5 13 33.5 13c11.333 0 20.5 -4.33301 27.5 -13s9.16699 -19 6.5 -31zM372.002 425.001
c-2.66699 -12.667 -9.33398 -23.167 -20.001 -31.5s-21.667 -12.5 -33 -12.5s-20.5 4.16699 -27.5 12.5s-9.16699 18.833 -6.5 31.5c2.66699 12 9.33398 22.333 20.001 31s21.667 13 33 13s20.5 -4.33301 27.5 -13s9.16699 -19 6.5 -31z" />
    <glyph glyph-name="thorn" unicode="&#xfe;" horiz-adv-x="438" 
d="M396 179c-12 -56 -38.166 -101.333 -78.499 -136s-86.5 -52 -138.5 -52c-44.667 0 -79 13.667 -103 41l-35 -166h-58l129 610h59l-36 -169c40 31.333 83.667 47 131 47c48.667 0 85.167 -16.5 109.5 -49.5s31.166 -74.833 20.499 -125.5zM337.001 178
c8 36 3.83301 65.667 -12.5 89s-41.5 35 -75.5 35c-31.333 0 -60.5 -9.83301 -87.5 -29.5s-43.833 -45.167 -50.5 -76.5l-12 -57c-5.33301 -25.333 1.5 -47.166 20.5 -65.499s43.5 -27.5 73.5 -27.5c34.667 0 65.167 11.667 91.5 35s43.833 55.666 52.5 96.999z" />
    <glyph glyph-name="ydieresis" unicode="&#xff;" horiz-adv-x="361" 
d="M165 7c-60.667 -88.667 -130.333 -141.332 -209 -157.999l-5 52c62 13.333 114.333 54.666 157 123.999l-84 315h69l64 -252l166 252h69zM196.001 425.002c-2.66699 -12.667 -9.33301 -23.167 -20 -31.5s-21.667 -12.5 -33 -12.5c-12 0 -21.333 4.16699 -28 12.5
s-8.66699 18.833 -6 31.5c2.66699 12 9.16699 22.333 19.5 31s21.5 13 33.5 13c11.333 0 20.5 -4.33301 27.5 -13s9.16699 -19 6.5 -31zM344.002 425.002c-2.66699 -12.667 -9.33398 -23.167 -20.001 -31.5s-21.667 -12.5 -33 -12.5s-20.5 4.16699 -27.5 12.5
s-9.16699 18.833 -6.5 31.5c2.66699 12 9.33398 22.333 20.001 31s21.667 13 33 13s20.5 -4.33301 27.5 -13s9.16699 -19 6.5 -31z" />
    <glyph glyph-name="Abreve" unicode="&#x102;" horiz-adv-x="451" 
d="M408 0h-69l-30 159h-191l-95 -159h-68l302 483h54zM297 213l-28 198l-116 -198h144zM432 627c-14.667 -38 -34.002 -66.167 -58.002 -84.5s-52 -27.5 -84 -27.5s-56 9.16699 -72 27.5s-23.333 46.5 -22 84.5h54c0 -16.667 3.66699 -31.5 11 -44.5s20.333 -19.5 39 -19.5
s34.834 6.5 48.501 19.5s23.834 27.833 30.501 44.5h53z" />
    <glyph glyph-name="abreve" unicode="&#x103;" horiz-adv-x="431" 
d="M366 4l-63.001 -12c-8 10.667 -13 30 -15 58c-32.667 -39.333 -76 -59 -130 -59c-42 0 -76.5 12.667 -103.5 38s-40.5 59 -40.5 101c0 60 20.5 112.167 61.5 156.5s91.5 66.5 151.5 66.5c74 0 130.667 -21 170 -63l-42 -199c-5.33301 -32 -1.66602 -61 11.001 -87z
M303.999 142l25 119.999c-26 26 -62 39 -108 39c-39.333 0 -73.5 -16.167 -102.5 -48.5s-43.5 -70.166 -43.5 -113.499c0 -62 32 -93 96 -93c31.333 0 60 9.5 86 28.5s41.667 41.5 47 67.5zM412.999 490.999c-14.667 -38 -34.002 -66.167 -58.002 -84.5s-52 -27.5 -84 -27.5
s-56 9.16699 -72 27.5s-23.333 46.5 -22 84.5h54c0 -16.667 3.66699 -31.5 11 -44.5s20.333 -19.5 39 -19.5s34.834 6.5 48.501 19.5s23.834 27.833 30.501 44.5h53z" />
    <glyph glyph-name="Cacute" unicode="&#x106;" horiz-adv-x="432" 
d="M371 25c-53.333 -21.333 -113.665 -31.999 -180.998 -31.999c-63.333 0 -109.333 22.5 -138 67.5s-35.334 103.833 -20.001 176.5c15.333 72 46.333 130 93 174c51.333 48 114 72 188 72c56.667 0 106.334 -9.66699 149.001 -29l-31 -50c-36 16.667 -78.333 25 -127 25
c-61.333 0 -111.333 -22.667 -150 -68c-28 -33.333 -47.667 -75.333 -59 -126c-9.33301 -46.667 -6 -87.334 10 -122.001c19.333 -44 55.666 -66 108.999 -66c55.333 0 105.666 10 150.999 30zM316.001 636.001l53 -18l-105 -97h-48z" />
    <glyph glyph-name="cacute" unicode="&#x107;" horiz-adv-x="347" 
d="M282 21c-36 -20 -76.999 -30 -122.999 -30c-54 0 -93.833 16.833 -119.5 50.5s-32.834 77.167 -21.501 130.5c11.333 54 37 97.667 77 131s87 50 141 50c45.333 0 82 -10 110 -30l-33 -52c-27.333 19.333 -57.666 29 -90.999 29c-34 0 -63.833 -11.833 -89.5 -35.5
s-42.5 -54.5 -50.5 -92.5c-8 -38.667 -4.16699 -69.667 11.5 -93s40.5 -35 74.5 -35c33.333 0 67.666 9.66699 102.999 29zM245.001 500l53 -18l-105 -97h-48z" />
    <glyph glyph-name="Ccaron" unicode="&#x10c;" horiz-adv-x="432" 
d="M371 25c-53.333 -21.333 -113.665 -31.999 -180.998 -31.999c-63.333 0 -109.333 22.5 -138 67.5s-35.334 103.833 -20.001 176.5c15.333 72 46.333 130 93 174c51.333 48 114 72 188 72c56.667 0 106.334 -9.66699 149.001 -29l-31 -50c-36 16.667 -78.333 25 -127 25
c-61.333 0 -111.333 -22.667 -150 -68c-28 -33.333 -47.667 -75.333 -59 -126c-9.33301 -46.667 -6 -87.334 10 -122.001c19.333 -44 55.666 -66 108.999 -66c55.333 0 105.666 10 150.999 30zM299.001 521.001h-35l-52 115h54l26 -71l55 71h55z" />
    <glyph glyph-name="ccaron" unicode="&#x10d;" horiz-adv-x="347" 
d="M282 21c-36 -20 -76.999 -30 -122.999 -30c-54 0 -93.833 16.833 -119.5 50.5s-32.834 77.167 -21.501 130.5c11.333 54 37 97.667 77 131s87 50 141 50c45.333 0 82 -10 110 -30l-33 -52c-27.333 19.333 -57.666 29 -90.999 29c-34 0 -63.833 -11.833 -89.5 -35.5
s-42.5 -54.5 -50.5 -92.5c-8 -38.667 -4.16699 -69.667 11.5 -93s40.5 -35 74.5 -35c33.333 0 67.666 9.66699 102.999 29zM227.001 385h-35l-52 115h54l26 -71l55 71h55z" />
    <glyph glyph-name="Dcroat" unicode="&#x110;" horiz-adv-x="459" 
d="M441 248c-15.333 -72 -45 -129.668 -89 -173.001c-53.333 -52.667 -124.333 -79 -213 -79c-27.333 0 -71.333 3.33301 -132 10l42 200h-41l12 54h41l44 208c78 8.66699 130.333 13 157 13c81.333 0 136.333 -24.333 165 -73c24 -39.333 28.667 -92.666 14 -159.999z
M377 247.999c25.333 119.333 -17.999 179 -129.999 179c-18.667 0 -48.334 -2 -89.001 -6l-34 -161h160l-12 -54h-160l-32 -153c21.333 -2 48.666 -3 81.999 -3c64.667 0 116.667 23 156 69c28.667 34 48.334 77 59.001 129z" />
    <glyph glyph-name="dcroat" unicode="&#x111;" horiz-adv-x="435" 
d="M341 0l-60.0029 0.000976562c-0.666992 7.33301 0.666016 19.666 3.99902 36.999c-37.333 -30.667 -80.666 -46 -129.999 -46s-87.166 17.5 -113.499 52.5s-33.833 79.5 -22.5 133.5c10.667 50 35.834 91.833 75.501 125.5s83.834 50.5 132.501 50.5
c50 0 87.333 -15.667 112 -47l22 104h-98l9 44h98l11 50h63l-11 -50h58l-9 -44h-58l-68 -319c-6 -28 -11 -58.333 -15 -91zM300.997 129.001l16 78c6 25.333 -1.5 47.333 -22.5 66s-45.5 28 -73.5 28c-34.667 0 -64.667 -11.667 -90 -35s-42 -53 -50 -89
c-8.66699 -40.667 -5.16699 -72.667 10.5 -96s42.167 -35 79.5 -35c33.333 0 62 7.5 86 22.5s38.667 35.167 44 60.5z" />
    <glyph glyph-name="Gbreve" unicode="&#x11e;" horiz-adv-x="454" 
d="M372 11l-29.9971 8.00098c-42.667 -17.333 -93.334 -26 -152.001 -26c-63.333 0 -109.333 22.5 -138 67.5s-35.334 103.833 -20.001 176.5c15.333 72 46.333 130 93 174c51.333 48 114 72 188 72c56.667 0 106.334 -9.66699 149.001 -29l-31 -50
c-36 16.667 -78.333 25 -127 25c-61.333 0 -111.333 -22.667 -150 -68c-28 -33.333 -47.667 -75.333 -59 -126c-9.33301 -46.667 -6 -87.334 10 -122.001c19.333 -44 55.666 -66 108.999 -66c39.333 0 74.666 5.33301 105.999 16l29 135h-120l11 53h183zM434.003 627.001
c-14.667 -38 -34.002 -66.167 -58.002 -84.5s-52 -27.5 -84 -27.5s-56 9.16699 -72 27.5s-23.333 46.5 -22 84.5h54c0 -16.667 3.66699 -31.5 11 -44.5s20.333 -19.5 39 -19.5s34.834 6.5 48.501 19.5s23.834 27.833 30.501 44.5h53z" />
    <glyph glyph-name="gbreve" unicode="&#x11f;" horiz-adv-x="332" 
d="M238 -45c-6.66699 -31.333 -23.334 -56.6689 -50.001 -76.002s-61.667 -29 -105 -29c-36 0 -70.333 11.333 -103 34l31 50c31.333 -20.667 60.333 -31 87 -31c20.667 0 38.834 4.83301 54.501 14.5s24.834 21.167 27.501 34.5c4.66699 20 -10 37.667 -44 53
c-26 11.333 -50.5 24 -73.5 38s-32.167 32.333 -27.5 55c2.66699 10.667 8.66699 24.334 18 41.001c-18.667 26 -24.667 53.667 -18 83c7.33301 36.667 25.833 66.667 55.5 90s61.834 35 96.501 35h144l-9 -43h-50c20.667 -15.333 28 -40.333 22 -75
c-8 -39.333 -25.333 -70.5 -52 -93.5s-60.334 -34.5 -101.001 -34.5c-14.667 0 -28.667 2.33301 -42 7c-4 -3.33301 -6.33301 -7.66602 -7 -12.999c-2 -10 19.333 -21.667 64 -35c65.333 -19.333 92.666 -54.333 81.999 -105zM240 223.997c4 20 0.333008 37 -11 51
s-27 21 -47 21s-38.667 -7 -56 -21s-28 -31 -32 -51s-0.333008 -36.833 11 -50.5s27 -20.5 47 -20.5c24 0 43.667 6.83301 59 20.5s25 30.5 29 50.5zM349 490.997c-14.667 -38 -34.002 -66.167 -58.002 -84.5s-52 -27.5 -84 -27.5s-56 9.16699 -72 27.5
s-23.333 46.5 -22 84.5h54c0 -16.667 3.66699 -31.5 11 -44.5s20.333 -19.5 39 -19.5s34.834 6.5 48.501 19.5s23.834 27.833 30.501 44.5h53z" />
    <glyph glyph-name="Idotaccent" unicode="&#x130;" horiz-adv-x="163" 
d="M69 0h-63l101 476h63zM201 545c-2.66699 -12.667 -9.16992 -23.167 -19.5029 -31.5s-21.166 -12.5 -32.499 -12.5s-20.666 4.16699 -27.999 12.5s-9.66602 18.833 -6.99902 31.5c2.66699 12 9.5 22.333 20.5 31s22.167 13 33.5 13s20.333 -4.33301 27 -13
s8.66699 -19 6 -31z" />
    <glyph glyph-name="dotlessi" unicode="&#x131;" horiz-adv-x="163" 
d="M69 0h-63l72 340h63z" />
    <glyph glyph-name="Lslash" unicode="&#x141;" horiz-adv-x="359" 
d="M302 0h-296l31 149l-30 -7l13 62l30 7l57 265h63l-53 -250l236 53l-13 -62l-237 -53l-23 -110h233z" />
    <glyph glyph-name="lslash" unicode="&#x142;" horiz-adv-x="217" 
d="M173 49l-19 -57.001c-98 5.33301 -134.667 66.333 -110 183l13 61l-46 -12l12 54l45 12l46 214h63l-42 -195l99 28l-11 -54l-99 -28l-14 -66c-11.333 -51.333 -11 -87.666 1 -108.999c10 -18 30.667 -28.333 62 -31z" />
    <glyph glyph-name="OE" unicode="&#x152;" horiz-adv-x="723" 
d="M654 0h-283.002l5 27c-45.333 -24.667 -93.333 -37 -144 -37c-74 0 -129.5 23.667 -166.5 71s-48.167 106.333 -33.5 177c14.667 70 50.834 128.833 108.501 176.5s123.5 71.5 197.5 71.5c50.667 0 93.334 -12.667 128.001 -38l6 28h283l-12 -54h-220l-30 -144h196
l-12 -54h-196l-36 -170h220zM392.998 104l56.001 265c-25.333 41.333 -66.333 62 -123 62c-50.667 0 -99.167 -19.5 -145.5 -58.5s-74.833 -83.833 -85.5 -134.5c-10.667 -52 -1.33398 -97.333 27.999 -136s69.666 -58 120.999 -58c56.667 0 106.334 20 149.001 60z" />
    <glyph glyph-name="oe" unicode="&#x153;" horiz-adv-x="689" 
d="M613 73l-5.00586 -55.001c-52 -18 -100 -27 -144 -27c-67.333 0 -114.666 24.667 -141.999 74c-45.333 -48.667 -99.333 -73 -162 -73c-52 0 -91.333 17.333 -118 52s-34.667 77.334 -24 128.001s36.834 93.5 78.501 128.5s88.5 52.5 140.5 52.5
c64.667 0 108.334 -25.667 131.001 -77c51.333 51.333 107.666 77 168.999 77c102.667 0 141.334 -64.333 116.001 -193h-277c-5.33301 -35.333 1.33398 -63 20.001 -83s46.334 -30 83.001 -30s81.334 8.66699 134.001 26zM315.994 171.999
c8 36 3.49902 66.167 -13.501 90.5s-42.833 36.5 -77.5 36.5s-65.5 -12.167 -92.5 -36.5s-44.5 -54.5 -52.5 -90.5c-7.33301 -36 -2.66602 -66.167 14.001 -90.5s42.334 -36.5 77.001 -36.5s65.667 12.167 93 36.5s44.666 54.5 51.999 90.5zM390.993 212.999h211
c2 26.667 -4.5 48 -19.5 64s-36.167 24 -63.5 24c-26.667 0 -52.167 -8.16699 -76.5 -24.5s-41.5 -37.5 -51.5 -63.5z" />
    <glyph glyph-name="Scedilla" unicode="&#x15e;" horiz-adv-x="365" 
d="M322 130c-8.66699 -41.333 -32.1709 -74.8311 -70.5039 -100.498s-82.166 -38.5 -131.499 -38.5c-52.667 0 -98.334 14.333 -137.001 43l38 57c32 -28.667 70.333 -43 115 -43c32.667 0 59.834 7.16699 81.501 21.5s34.834 33.5 39.501 57.5
c8.66699 40 -16.666 70.333 -75.999 91c-88 30 -125.333 76 -112 138c8 37.333 29.5 68.166 64.5 92.499s76.167 36.5 123.5 36.5s86 -10.667 116 -32l-38 -50c-30 16.667 -60.667 25 -92 25c-28.667 0 -53.167 -6.5 -73.5 -19.5s-32.5 -28.833 -36.5 -47.5
c-7.33301 -36.667 18.667 -65.334 78 -86.001c48.667 -16.667 81.334 -36 98.001 -58s21 -51 13 -87zM189.996 -89.998c-4 -21.333 -14.333 -38.168 -31 -50.501s-37.667 -18.5 -63 -18.5c-9.33301 0 -19.166 1.5 -29.499 4.5s-19.833 7.5 -28.5 13.5l20 32
c8 -4.66699 16.5 -8.33398 25.5 -11.001s16.167 -4 21.5 -4c21.333 0 34.333 10 39 30c3.33301 18.667 -15.334 31.667 -56.001 39l57 66h43l-36 -39c16.667 -5.33301 28 -13.166 34 -23.499s7.33301 -23.166 4 -38.499z" />
    <glyph glyph-name="scedilla" unicode="&#x15f;" horiz-adv-x="296" 
d="M247 97c-6.66699 -31.333 -24.1709 -56.834 -52.5039 -76.501s-63.166 -29.5 -104.499 -29.5c-34 0 -68 11 -102 33l34 50c23.333 -18.667 50.666 -28 81.999 -28c46.667 0 73.334 16 80.001 48c5.33301 24.667 -13 44 -55 58
c-62.667 20.667 -89.334 52.334 -80.001 95.001c6 28.667 22.333 52.834 49 72.501s59 29.5 97 29.5c38.667 0 69.334 -9.66699 92.001 -29l-33 -46c-20 17.333 -44.667 26 -74 26c-17.333 0 -32.666 -4.5 -45.999 -13.5s-21.666 -20.5 -24.999 -34.5
c-3.33301 -17.333 17.334 -34.333 62.001 -51c60.667 -22.667 86 -57.334 76 -104.001zM154.996 -90.001c-4 -21.333 -14.333 -38.168 -31 -50.501s-37.667 -18.5 -63 -18.5c-9.33301 0 -19.166 1.5 -29.499 4.5s-19.833 7.5 -28.5 13.5l20 32
c8 -4.66699 16.5 -8.33398 25.5 -11.001s16.167 -4 21.5 -4c21.333 0 34.333 10 39 30c3.33301 18.667 -15.334 31.667 -56.001 39l57 66h43l-36 -39c16.667 -5.33301 28 -13.166 34 -23.499s7.33301 -23.166 4 -38.499z" />
    <glyph glyph-name="Scaron" unicode="&#x160;" horiz-adv-x="365" 
d="M322 130c-8.66699 -41.333 -32.1709 -74.8311 -70.5039 -100.498s-82.166 -38.5 -131.499 -38.5c-52.667 0 -98.334 14.333 -137.001 43l38 57c32 -28.667 70.333 -43 115 -43c32.667 0 59.834 7.16699 81.501 21.5s34.834 33.5 39.501 57.5
c8.66699 40 -16.666 70.333 -75.999 91c-88 30 -125.333 76 -112 138c8 37.333 29.5 68.166 64.5 92.499s76.167 36.5 123.5 36.5s86 -10.667 116 -32l-38 -50c-30 16.667 -60.667 25 -92 25c-28.667 0 -53.167 -6.5 -73.5 -19.5s-32.5 -28.833 -36.5 -47.5
c-7.33301 -36.667 18.667 -65.334 78 -86.001c48.667 -16.667 81.334 -36 98.001 -58s21 -51 13 -87zM264.996 521.002h-35l-52 115h54l26 -71l55 71h55z" />
    <glyph glyph-name="scaron" unicode="&#x161;" horiz-adv-x="296" 
d="M247 97c-6.66699 -31.333 -24.1709 -56.834 -52.5039 -76.501s-63.166 -29.5 -104.499 -29.5c-34 0 -68 11 -102 33l34 50c23.333 -18.667 50.666 -28 81.999 -28c46.667 0 73.334 16 80.001 48c5.33301 24.667 -13 44 -55 58
c-62.667 20.667 -89.334 52.334 -80.001 95.001c6 28.667 22.333 52.834 49 72.501s59 29.5 97 29.5c38.667 0 69.334 -9.66699 92.001 -29l-33 -46c-20 17.333 -44.667 26 -74 26c-17.333 0 -32.666 -4.5 -45.999 -13.5s-21.666 -20.5 -24.999 -34.5
c-3.33301 -17.333 17.334 -34.333 62.001 -51c60.667 -22.667 86 -57.334 76 -104.001zM206.996 384.999h-35l-52 115h54l26 -71l55 71h55z" />
    <glyph glyph-name="Ydieresis" unicode="&#x178;" horiz-adv-x="396" 
d="M186 0h-62l44 208l-117 268h73l86 -214l177 214h72l-229 -267zM242 561c-2.66699 -12.667 -9.33301 -23.167 -20 -31.5s-21.667 -12.5 -33 -12.5c-12 0 -21.333 4.16699 -28 12.5s-8.66699 18.833 -6 31.5c2.66699 12 9.16699 22.333 19.5 31s21.5 13 33.5 13
c11.333 0 20.5 -4.33301 27.5 -13s9.16699 -19 6.5 -31zM390.001 561c-2.66699 -12.667 -9.33398 -23.167 -20.001 -31.5s-21.667 -12.5 -33 -12.5s-20.5 4.16699 -27.5 12.5s-9.16699 18.833 -6.5 31.5c2.66699 12 9.33398 22.333 20.001 31s21.667 13 33 13
s20.5 -4.33301 27.5 -13s9.16699 -19 6.5 -31z" />
    <glyph glyph-name="Zcaron" unicode="&#x17d;" horiz-adv-x="451" 
d="M382 0h-399l9 40l389 382h-293l23 54h369l-9 -41l-390 -381h324zM308 521h-35l-52 115h54l26 -71l55 71h55z" />
    <glyph glyph-name="zcaron" unicode="&#x17e;" horiz-adv-x="358" 
d="M286 0h-310l9 38l278 249h-216l23 53h290l-9 -41l-277 -246h232zM233 385h-35l-52 115h54l26 -71l55 71h55z" />
    <glyph glyph-name="florin" unicode="&#x192;" horiz-adv-x="404" 
d="M336 254h-94l-69 -161c-46 -108 -110.333 -162 -193 -162c-26 0 -46 8.33301 -60 25l35 44c14.667 -9.33301 30 -14 46 -14c43.333 0 81 37.333 113 112l67 156h-54l22 52h56l6 16c24.667 52 53.167 92 85.5 120s68.5 42 108.5 42c26 0 46 -8.33301 60 -25l-35 -44
c-14 9.33301 -29.333 14 -46 14c-44 0 -82 -37.333 -114 -112l-5 -11h93z" />
    <glyph glyph-name="Ohorn" unicode="&#x1a0;" horiz-adv-x="518" 
d="M498 237c-14.667 -70 -48.834 -128.667 -102.501 -176s-114.834 -71 -183.501 -71s-119.5 23.667 -152.5 71s-42.167 106 -27.5 176s48.834 128.833 102.501 176.5s114.834 71.5 183.501 71.5c48 0 88 -12.333 120 -37c22 22 36.333 48.333 43 79h54
c-8.66699 -38.667 -31 -75.667 -67 -111c35.333 -47.333 45.333 -107 30 -179zM436 238c12 54.667 6.16992 100.5 -17.4971 137.5s-61.167 55.5 -112.5 55.5s-96.5 -18.5 -135.5 -55.5s-64.5 -82.833 -76.5 -137.5c-11.333 -54.667 -5.33301 -100.5 18 -137.5
s60.666 -55.5 111.999 -55.5s96.666 18.5 135.999 55.5s64.666 82.833 75.999 137.5z" />
    <glyph glyph-name="ohorn" unicode="&#x1a1;" horiz-adv-x="412" 
d="M378 172c-10.667 -50.667 -36.6689 -93.334 -78.002 -128.001s-88 -52 -140 -52s-91.333 17.333 -118 52s-34.667 77.334 -24 128.001s36.834 93.5 78.501 128.5s88.5 52.5 140.5 52.5c46.667 0 83.334 -15 110.001 -45c18 22 29.667 45.667 35 71h54
c-8 -36.667 -29.667 -73 -65 -109c12.667 -29.333 15 -62 7 -98zM315.998 172c8 36 3.49902 66.167 -13.501 90.5s-42.833 36.5 -77.5 36.5s-65.5 -12.167 -92.5 -36.5s-44.5 -54.5 -52.5 -90.5c-7.33301 -36 -2.66602 -66.167 14.001 -90.5s42.334 -36.5 77.001 -36.5
s65.667 12.167 93 36.5s44.666 54.5 51.999 90.5z" />
    <glyph glyph-name="Uhorn" unicode="&#x1af;" horiz-adv-x="482" 
d="M431 203c-30 -141.333 -108.669 -212 -236.002 -212s-176 70.667 -146 212l58 273h64l-58 -273c-22.667 -105.333 8.33301 -158 93 -158s138.334 52.667 161.001 158l58 273h64l-9 -40c16.667 8 31.334 20.833 44.001 38.5s21 35.167 25 52.5h54
c-8.66699 -31.333 -26 -61.5 -52 -90.5s-53.667 -48.5 -83 -58.5z" />
    <glyph glyph-name="uhorn" unicode="&#x1b0;" horiz-adv-x="414" 
d="M354 4l-62.999 -11.999c-8 10.667 -13 30 -15 58c-48.667 -39.333 -92.334 -59 -131.001 -59c-76 0 -114 35 -114 105c0 17.333 2.33301 36.666 7 57.999l24 111c2 9.33301 3 19 3 29c0 14.667 -2 29.334 -6 44.001l60 12c6 -18 9 -36 9 -54
c0 -12.667 -1.33301 -25.334 -4 -38.001l-21 -98c-4 -18.667 -6 -33.667 -6 -45c0 -45.333 22.333 -68 67 -68c24.667 0 50.5 9.5 77.5 28.5s43.167 40.167 48.5 63.5l43 201h63l-13 -60c13.333 8 26.666 20.333 39.999 37c14.667 18.667 23.667 36.667 27 54h54
c-5.33301 -26 -20.666 -54 -45.999 -84c-28 -32 -57 -53.333 -87 -64l-28 -132c-1.33301 -6 -2 -13 -2 -21c0 -20 4.33301 -42 13 -66z" />
    <glyph glyph-name="circumflex" unicode="&#x2c6;" horiz-adv-x="218" 
d="M241 385h-54l-26 71l-55 -71h-55l103 115h35z" />
    <glyph glyph-name="caron" unicode="&#x2c7;" horiz-adv-x="308" 
d="M208 385h-35l-52 115h54l26 -71l55 71h55z" />
    <glyph glyph-name="breve" unicode="&#x2d8;" horiz-adv-x="342" 
d="M349 491c-14.667 -38 -34.002 -66.167 -58.002 -84.5s-52 -27.5 -84 -27.5s-56 9.16699 -72 27.5s-23.333 46.5 -22 84.5h54c0 -16.667 3.66699 -31.5 11 -44.5s20.333 -19.5 39 -19.5s34.834 6.5 48.501 19.5s23.834 27.833 30.501 44.5h53z" />
    <glyph glyph-name="dotaccent" unicode="&#x2d9;" horiz-adv-x="193" 
d="M211 545c-2.66699 -12.667 -9.16992 -23.167 -19.5029 -31.5s-21.166 -12.5 -32.499 -12.5s-20.666 4.16699 -27.999 12.5s-9.66602 18.833 -6.99902 31.5c2.66699 12 9.5 22.333 20.5 31s22.167 13 33.5 13s20.333 -4.33301 27 -13s8.66699 -19 6 -31z" />
    <glyph glyph-name="ring" unicode="&#x2da;" horiz-adv-x="266" 
d="M267 464c-4.66699 -22 -16.5 -40.833 -35.5 -56.5s-39.5 -23.5 -61.5 -23.5s-39.167 7.83301 -51.5 23.5s-16.166 34.5 -11.499 56.5s16.5 40.833 35.5 56.5s39.5 23.5 61.5 23.5s39.167 -7.83301 51.5 -23.5s16.166 -34.5 11.499 -56.5zM225 464
c2.66699 10.667 1 19.667 -5 27s-14.333 11 -25 11s-20.5 -3.66699 -29.5 -11s-14.833 -16.333 -17.5 -27c-2 -10.667 0 -19.834 6 -27.501s14.333 -11.5 25 -11.5s20.5 3.83301 29.5 11.5s14.5 16.834 16.5 27.501z" />
    <glyph glyph-name="ogonek" unicode="&#x2db;" horiz-adv-x="255" 
d="M129 -136c-30 -11.333 -55.665 -17 -76.998 -17c-26 0 -43.333 7.66699 -52 23s-11 33.333 -7 54c2.66699 12.667 7.5 27 14.5 43s15.167 33.333 24.5 52h59c-22 -35.333 -35 -62.333 -39 -81c-4 -21.333 3 -33 21 -35c7.33301 0 17.166 1.83301 29.499 5.5
s25.166 8.16699 38.499 13.5z" />
    <glyph glyph-name="tilde" unicode="&#x2dc;" horiz-adv-x="259" 
d="M278 443c-6 -23.333 -15.168 -41.8311 -27.501 -55.498s-28.166 -20.5 -47.499 -20.5c-5.33301 0 -11.666 1.5 -18.999 4.5s-14.666 6.33301 -21.999 10s-14.333 7 -21 10s-12.334 4.5 -17.001 4.5c-5.33301 0 -9.33301 -2.5 -12 -7.5s-4.33398 -10.5 -5.00098 -16.5h-44
c4 20 12.333 36.833 25 50.5s28 20.5 46 20.5c6 0 12.5 -1.33301 19.5 -4s13.833 -5.83398 20.5 -9.50098s13.167 -6.83398 19.5 -9.50098s11.833 -4 16.5 -4c12.667 0 21 9 25 27h43z" />
    <glyph glyph-name="hungarumlaut" unicode="&#x2dd;" horiz-adv-x="359" 
d="M245 320h-42l99 171h64zM119 320h-42l99 171h63z" />
    <glyph glyph-name="gravecomb" unicode="&#x300;" 
d="M-15 385h-48l-63 97l61 18z" />
    <glyph glyph-name="acutecomb" unicode="&#x301;" 
d="M-69 500l53 -18l-105 -97h-48z" />
    <glyph glyph-name="tildecomb" unicode="&#x303;" 
d="M22 456c-5.33301 -23.333 -14.1699 -41.8311 -26.5029 -55.498s-28.166 -20.5 -47.499 -20.5c-5.33301 0 -11.5 1.5 -18.5 4.5s-14.167 6.33301 -21.5 10s-14.5 7 -21.5 10s-12.833 4.5 -17.5 4.5c-5.33301 0 -9.16602 -2.5 -11.499 -7.5s-4.16602 -10.5 -5.49902 -16.5
h-44c4.66699 20 13.167 36.833 25.5 50.5s27.5 20.5 45.5 20.5c6 0 12.667 -1.33301 20 -4s14.166 -5.83398 20.499 -9.50098s12.833 -6.83398 19.5 -9.50098s12.334 -4 17.001 -4c12.667 0 20.667 9 24 27h42z" />
    <glyph glyph-name="hookabovecomb" unicode="&#x309;" 
d="M15 477c-2.66699 -11.333 -7.83594 -21.502 -15.5029 -30.502s-15.667 -17.5 -24 -25.5l-23.5 -23.5c-7.33301 -7.66699 -12 -15.834 -14 -24.501h-45c2 10.667 7 20.334 15 29.001s16.5 16.834 25.5 24.501s17.167 15.167 24.5 22.5s12 15 14 23
c2.66699 11.333 1.83398 18.833 -2.49902 22.5s-10.833 5.5 -19.5 5.5c-11.333 0 -22.166 -3.66699 -32.499 -11s-17.166 -13 -20.499 -17l-21 22c7.33301 10.667 18.333 20.834 33 30.501s32.667 14.5 54 14.5c19.333 0 34 -5 44 -15s12.667 -25.667 8 -47z" />
    <glyph glyph-name="dotbelowcomb" unicode="&#x323;" 
d="M-118 -96c-2.66699 -13.333 -9.66602 -24.666 -20.999 -33.999s-23.333 -14 -36 -14s-22.5 4.66699 -29.5 14s-9.16699 20.666 -6.5 33.999s9.5 24.666 20.5 33.999s22.833 14 35.5 14s22.667 -4.66699 30 -14s9.66602 -20.666 6.99902 -33.999z" />
    <glyph glyph-name="uni0E00" unicode="&#xe00;" 
 />
    <glyph glyph-name="uni0E01" unicode="&#xe01;" horiz-adv-x="391" 
d="M306 47c-8 -38 -23.667 -62.666 -47 -73.999l-49 27c19.333 11.333 32.333 34.666 39 69.999l41 195c6 27.333 2.33301 49 -11 65s-33.666 24 -60.999 24c-40 0 -74 -17 -102 -51c30 -6 49 -21 57 -45c-38 -20 -60 -44 -66 -72l-39 -186h-62l40 190c6 28 24.333 50 55 66
c-14 11.333 -33.667 15.333 -59 12c10.667 41.333 34 75.333 70 102c33.333 24.667 71.666 37 114.999 37c48 0 83.167 -12.833 105.5 -38.5s28.833 -60.5 19.5 -104.5z" />
    <glyph glyph-name="uni0E02" unicode="&#xe02;" horiz-adv-x="415" 
d="M142 286c2 8.66699 0.666992 16 -4 22s-11.334 9 -20.001 9s-16.667 -3 -24 -9s-12 -13.333 -14 -22c-1.33301 -8.66699 0.333984 -16 5.00098 -22s11.334 -9 20.001 -9s16.667 3 24 9s11.666 13.333 12.999 22zM339 94
c-6.66699 -32.667 -22.001 -57.8311 -46.001 -75.498s-52.667 -26.5 -86 -26.5s-58.333 8.83301 -75 26.5s-21.667 42.834 -15 75.501l14 65c4 19.333 18.333 45.166 43 77.499s39 57.833 43 76.5c3.33301 15.333 0.666016 28 -8.00098 38s-20 15 -34 15
c-21.333 0 -36.333 -4.33301 -45 -13c19.333 -0.666992 34 -7 44 -19s13 -27.333 9 -46c-4.66699 -20 -15.334 -36.833 -32.001 -50.5s-34.667 -20.5 -54 -20.5c-22.667 0 -39.167 8.16699 -49.5 24.5s-13.166 36.166 -8.49902 59.499c6.66699 30.667 24.334 56 53.001 76
s59 30 91 30c33.333 0 58.833 -8 76.5 -24s23.167 -39.333 16.5 -70c-4 -20 -18.167 -48 -42.5 -84s-38.166 -61.333 -41.499 -76l-15 -73c-2.66699 -11.333 0.5 -20 9.5 -26s19.5 -9 31.5 -9c12.667 0 24.667 3.16699 36 9.5s18.333 14.833 21 25.5l59 280
c8 37.333 23.667 61.666 47 72.999l55 -23c-22 -10 -37 -34.333 -45 -73z" />
    <glyph glyph-name="uni0E03" unicode="&#xe03;" horiz-adv-x="431" 
d="M137 243c2 8.66699 0.667969 16 -3.99902 22s-11.334 9 -20.001 9s-16.667 -3 -24 -9s-12 -13.333 -14 -22s-0.5 -16 4.5 -22s11.833 -9 20.5 -9s16.5 3 23.5 9s11.5 13.333 13.5 22zM355.001 94c-6.66699 -32.667 -22 -57.834 -46 -75.501s-52.667 -26.5 -86 -26.5
s-58.333 8.83301 -75 26.5s-21.667 42.834 -15 75.501l10 45c4.66699 21.333 21.834 49.5 51.501 84.5s46.834 62.5 51.501 82.5c2 25.333 -5 43 -21 53l-45 -38l-36 40c-7.33301 -4 -16 -11.167 -26 -21.5s-16 -19.5 -18 -27.5c10 2 17 3 21 3c20 0 35.667 -7 47 -21
s14.666 -31 9.99902 -51c-4 -20 -14.333 -37 -31 -51s-35.334 -21 -56.001 -21c-23.333 0 -40.333 9.66699 -51 29s-13.667 40.333 -9 63c8 35.333 24.5 67.5 49.5 96.5s52.833 44.833 83.5 47.5l26 -34l38 35c57.333 -13.333 80 -48.666 68 -105.999
c-4.66699 -20.667 -19.667 -47 -45 -79s-40 -57.333 -44 -76l-14 -67c-2.66699 -11.333 0.5 -20 9.5 -26s19.5 -9 31.5 -9c12.667 0 24.667 3.16699 36 9.5s18.333 14.833 21 25.5l59 280c8 37.333 23.667 61.666 47 72.999l55 -23c-22 -10 -37 -34.333 -45 -73z" />
    <glyph glyph-name="uni0E04" unicode="&#xe04;" horiz-adv-x="403" 
d="M237 238c2 8.66699 0.666992 16 -4 22s-11.334 9 -20.001 9s-16.5 -3 -23.5 -9s-11.5 -13.333 -13.5 -22s-0.666992 -15.834 4 -21.501s11.334 -8.5 20.001 -8.5s16.5 2.83301 23.5 8.5s11.5 12.834 13.5 21.501zM318 47c-8 -38 -23.668 -62.667 -47.001 -74l-49 27
c19.333 11.333 32.333 34.666 39 69.999l43 203c4.66699 24 -1.66602 44 -18.999 60c-16 14 -36.667 21 -62 21c-30 0 -56.167 -10.167 -78.5 -30.5s-36.5 -43.833 -42.5 -70.5c-1.33301 -7.33301 -2.33301 -19.5 -3 -36.5s-2.33398 -31.833 -5.00098 -44.5l-6 -28
c0 0.666992 2.66699 7.83398 8 21.501s9 24.167 11 31.5c12.667 28 28 51.333 46 70c22.667 24 45.334 36 68.001 36c18 0 32.333 -6.33301 43 -19s14 -28 10 -46c-3.33301 -17.333 -13.166 -32.5 -29.499 -45.5s-33.5 -19.5 -51.5 -19.5c-16.667 0 -30.334 6 -41.001 18
c-32.667 -60.667 -56 -124.334 -70 -191.001h-62l13 64c6.66699 31.333 8.5 65.5 5.5 102.5s-2.5 66.167 1.5 87.5c10 46 34.667 83.333 74 112c37.333 27.333 79 41 125 41c42 0 75 -11 99 -33c27.333 -25.333 36.333 -59.666 27 -102.999z" />
    <glyph glyph-name="uni0E05" unicode="&#xe05;" horiz-adv-x="403" 
d="M232 216c2 8.66699 0.668945 16 -3.99805 22s-11.334 9 -20.001 9s-16.5 -3 -23.5 -9s-11.5 -13.333 -13.5 -22c-1.33301 -8.66699 0.166992 -15.834 4.5 -21.501s10.833 -8.5 19.5 -8.5s16.667 2.83301 24 8.5s11.666 12.834 12.999 21.501zM318.002 47
c-8 -38 -23.666 -62.668 -46.999 -74.001l-49 27c19.333 11.333 32.333 34.666 39 69.999l43 203c8 40.667 4.66699 67.334 -10 80.001l-71 -39l-60 39c-30 -18 -49.667 -48.333 -59 -91c-2.66699 -12.667 -4.66699 -30.5 -6 -53.5s-4 -45.5 -8 -67.5l-1 -9
c0 1.33301 1.83301 6.5 5.5 15.5s7.16699 18.5 10.5 28.5c10.667 28 24.667 51.333 42 70c21.333 24 44.333 36 69 36c18 0 32.167 -6.33301 42.5 -19s13.833 -28 10.5 -46c-4 -18 -13.833 -33.333 -29.5 -46s-32.5 -19 -50.5 -19c-16.667 0 -30.667 5.66699 -42 17
c-32 -59.333 -53.667 -115.666 -65 -168.999h-62l13 64c7.33301 32.667 9.5 68.5 6.5 107.5s-2.16699 68.167 2.5 87.5c7.33301 35.333 22.666 66.5 45.999 93.5s53 46.167 89 57.5l58 -39l80 39c48.667 -22 66.667 -62.333 54 -121z" />
    <glyph glyph-name="uni0E06" unicode="&#xe06;" horiz-adv-x="453" 
d="M358 0l-57 0.000976562c-31.333 40.667 -62.666 66.667 -93.999 78l-2 -10c-4.66699 -21.333 -16.5 -39.333 -35.5 -54s-39.5 -22 -61.5 -22s-39.167 7.83301 -51.5 23.5s-16.166 34.834 -11.499 57.501c4.66699 22 16.5 40.833 35.5 56.5s39.5 23.5 61.5 23.5
c4.66699 0 8.66699 -0.333008 12 -1c4 18.667 19.667 44 47 76c26 30 41 55 45 75c5.33301 26 -1.33398 45 -20.001 57l-43 -38l-35 39c-8 -3.33301 -16.833 -10.333 -26.5 -21s-15.834 -20.334 -18.501 -29.001c5.33301 2 12.333 3 21 3c20 0 35.667 -7 47 -21
s15 -30.667 11 -50c-4 -20 -14.667 -37 -32 -51s-36 -21 -56 -21c-23.333 0 -40.333 8.66699 -51 26s-13 40.333 -7 69c7.33301 34.667 23.833 66.5 49.5 95.5s52.5 44.167 80.5 45.5l26 -34l39 35c57.333 -14.667 80.333 -48 69 -100c-4.66699 -23.333 -20 -51.5 -46 -84.5
s-40.667 -58.5 -44 -76.5l-3 -15c36 -14 70.333 -36 103 -66l62 294c8 37.333 23.667 61.666 47 72.999l55 -23c-22 -10 -37 -34.333 -45 -73zM158 72.001c2 9.33301 0.5 17.166 -4.5 23.499s-12.167 9.5 -21.5 9.5c-8.66699 0 -17 -3.16699 -25 -9.5
s-13 -14.166 -15 -23.499c-2 -8.66699 -0.333008 -16.334 5 -23.001s12.333 -10 21 -10c9.33301 0 17.833 3.33301 25.5 10s12.5 14.334 14.5 23.001zM141 243.001c2 8.66699 0.667969 16 -3.99902 22s-11.334 9 -20.001 9s-16.667 -3 -24 -9s-12 -13.333 -14 -22
s-0.5 -16 4.5 -22s11.833 -9 20.5 -9s16.5 3 23.5 9s11.5 13.333 13.5 22z" />
    <glyph glyph-name="uni0E07" unicode="&#xe07;" horiz-adv-x="312" 
d="M217 0l-61.001 0.000976562l-116 163c-16 23.333 -23.333 44.666 -22 63.999l40 34c2.66699 -18 8.66699 -34 18 -48l96 -136l37 181c-2 -0.666992 -8.33301 -1 -19 -1c-20.667 0 -36.667 6.83301 -48 20.5s-14.666 31.167 -9.99902 52.5c4 21.333 15 39.5 33 54.5
s37 22.5 57 22.5c23.333 0 41 -7.5 53 -22.5s15.667 -34.5 11 -58.5zM239.999 332.001c2 9.33301 0.333008 17.333 -5 24s-12.666 10 -21.999 10s-18 -3.33301 -26 -10s-13 -14.667 -15 -24s-0.333008 -17.333 5 -24s12.666 -10 21.999 -10s18 3.33301 26 10
s13 14.667 15 24z" />
    <glyph glyph-name="uni0E08" unicode="&#xe08;" horiz-adv-x="390" 
d="M309 70c-4.66699 -24.667 -16.5039 -43.833 -35.5039 -57.5s-41.167 -20.5 -66.5 -20.5c-48.667 0 -72.334 21.667 -71.001 65l1 79c-7.33301 -2.66699 -15.666 -4 -24.999 -4c-19.333 0 -34.666 7 -45.999 21s-14.666 30.667 -9.99902 50c4 19.333 14.5 36 31.5 50
s35.167 21 54.5 21c17.333 0 31.5 -5.5 42.5 -16.5s16.167 -24.833 15.5 -41.5l-4 -153c-0.666992 -12 6.33301 -18 21 -18c16.667 0 26.334 6.66699 29.001 20l48 225c4.66699 22 -2 38.667 -20 50c-15.333 9.33301 -35.666 14 -60.999 14
c-57.333 0 -95.333 -16.333 -114 -49h-60c23.333 67.333 83.333 101.333 180 102c44.667 0 79.667 -8.33301 105 -25c30 -21.333 40.333 -53.333 31 -96zM157.996 203.001c1.33301 8.66699 -0.333984 16 -5.00098 22s-11.334 9 -20.001 9s-16.667 -3 -24 -9
s-11.666 -13.333 -12.999 -22c-2 -8.66699 -0.666992 -16 4 -22s11.334 -9 20.001 -9s16.667 3 24 9s12 13.333 14 22z" />
    <glyph glyph-name="uni0E09" unicode="&#xe09;" horiz-adv-x="405" 
d="M341 68c-4.66699 -21.333 -15.835 -39.333 -33.502 -54s-37.167 -22 -58.5 -22c-19.333 0 -35 6.5 -47 19.5s-16.667 29.167 -14 48.5c-25.333 -8.66699 -52.666 -28.667 -81.999 -60h-57l16 78c4 18.667 10 31.334 18 38.001c-6.66699 0 -11.334 0.333008 -14.001 1
c-34.667 8 -48 30.333 -40 67c4 19.333 14.167 35.666 30.5 48.999s34.166 20 53.499 20s34.333 -6.66699 45 -20s14 -29.666 10 -48.999c-2 -9.33301 -7.66699 -21.833 -17 -37.5s-15.333 -28.5 -18 -38.5l-8 -42c12.667 10.667 35.334 24.167 68.001 40.5
s56.334 30.833 71.001 43.5c13.333 13.333 21.666 29 24.999 47l20 92c4.66699 22 -2.33301 39 -21 51c-16 9.33301 -37 14 -63 14c-28 0 -53 -5.33301 -75 -16c-26 -12.667 -42.667 -31.334 -50 -56.001h-60c28 83.333 93 125 195 125c44 0 78.333 -8.66699 103 -26
c30.667 -21.333 41.334 -53.333 32.001 -96l-20 -95c-5.33301 -25.333 -16.666 -44 -33.999 -56c22.667 -14.667 31 -36.667 25 -66zM127.999 184c1.33301 8.66699 -0.166992 15.834 -4.5 21.501s-10.833 8.5 -19.5 8.5s-16.5 -2.83301 -23.5 -8.5
s-11.167 -12.834 -12.5 -21.501c-2 -8.66699 -0.833008 -15.834 3.5 -21.501s10.833 -8.5 19.5 -8.5s16.5 2.83301 23.5 8.5s11.5 12.834 13.5 21.501zM296.999 67c2 8.66699 0.499023 16 -4.50098 22s-11.833 9 -20.5 9s-16.5 -3 -23.5 -9s-11.5 -13.333 -13.5 -22
s-0.666992 -16 4 -22s11.334 -9 20.001 -9s16.667 3 24 9s12 13.333 14 22z" />
    <glyph glyph-name="uni0E0A" unicode="&#xe0a;" horiz-adv-x="415" 
d="M339 94c-6.66699 -32 -21.834 -57.002 -45.501 -75.002s-52.5 -27 -86.5 -27c-62 0 -93 25.667 -93 77c0 8.66699 5.66699 38.667 17 90c4 18 20 45.667 48 83c26 34.667 39 62.334 39 83.001c0 27.333 -14.333 41 -43 41c-22 0 -37 -4.33301 -45 -13
c36.667 -1.33301 55 -18 55 -50c0 -22.667 -9.16699 -42.667 -27.5 -60s-38.5 -26 -60.5 -26c-40 0 -60 21 -60 63c0 36 16.333 66.667 49 92c30 23.333 62.333 35 97 35c63.333 0 95 -24 95 -72c0 -25.333 -12.667 -57 -38 -95c-28.667 -41.333 -44.667 -70.333 -48 -87
l-16 -79c0 -19.333 14 -29 42 -29c13.333 0 25.666 3.33301 36.999 10s18 15 20 25l32 152c3.33301 16 5 27.333 5 34c0 20 -7.66699 32.667 -23 38c10 33.333 29.667 65 59 95c24.667 25.333 47.334 41.333 68.001 48l45 -30
c-43.333 -17.333 -79.666 -50.666 -108.999 -99.999c15.333 -8 23 -23 23 -45c0 -7.33301 -2 -20.333 -6 -39zM142 285.998c2 8.66699 0.666992 16 -4 22s-11.334 9 -20.001 9s-16.667 -3 -24 -9s-12 -13.333 -14 -22c-1.33301 -8.66699 0.333984 -16 5.00098 -22
s11.334 -9 20.001 -9s16.667 3 24 9s11.666 13.333 12.999 22z" />
    <glyph glyph-name="uni0E0B" unicode="&#xe0b;" horiz-adv-x="431" 
d="M385 233l-30 -139.001c-6.66699 -32 -21.834 -57 -45.501 -75s-52.5 -27 -86.5 -27c-62 0 -93 25.667 -93 77c0 8.66699 4.33301 32 13 70c4.66699 21.333 21.667 49.333 51 84c34.667 41.333 52 71.666 52 90.999c0 21.333 -7 36.333 -21 45l-45 -38l-36 40
c-8 -4 -16.833 -11.333 -26.5 -22s-15.5 -19.667 -17.5 -27c10 2 17 3 21 3c17.333 0 31.5 -5.33301 42.5 -16s16.5 -24 16.5 -40c0 -23.333 -9.16699 -43.833 -27.5 -61.5s-38.833 -26.5 -61.5 -26.5c-19.333 0 -34.5 7 -45.5 21s-16.5 31 -16.5 51
c0 36.667 14 72.5 42 107.5s59 53.833 93 56.5l26 -34l38 35c47.333 -11.333 71 -37.333 71 -78c0 -30 -16 -65.667 -48 -107c-26 -33.333 -40.667 -58.666 -44 -75.999l-15 -73c0 -19.333 14 -29 42 -29c13.333 0 25.666 3.33301 36.999 10s18 15 20 25l32 152
c3.33301 16 5 27.333 5 34c0 20 -7.66699 32.667 -23 38c10 33.333 29.667 65 59 95c24.667 25.333 47.334 41.333 68.001 48l45 -30c-43.333 -17.333 -79.666 -50.666 -108.999 -99.999c15.333 -8 23 -23 23 -45c0 -7.33301 -2 -20.333 -6 -39zM137 242.999
c2 8.66699 0.666992 16 -4 22s-11.334 9 -20.001 9s-16.667 -3 -24 -9s-12 -13.333 -14 -22c-1.33301 -8.66699 0.333984 -16 5.00098 -22s11.334 -9 20.001 -9s16.667 3 24 9s11.666 13.333 12.999 22z" />
    <glyph glyph-name="uni0E0C" unicode="&#xe0c;" horiz-adv-x="565" 
d="M470 0l-54.9961 0.000976562c-8.66699 32.667 -30.667 58.667 -66 78c-0.666992 -9.33301 -1.33398 -15 -2.00098 -17c-4 -21.333 -14.833 -38.166 -32.5 -50.499s-36.167 -18.5 -55.5 -18.5c-20.667 0 -37 7.33301 -49 22s-15.667 32.667 -11 54
c6.66699 30.667 25 53.667 55 69l27 128c5.33301 26 1.66602 47.167 -11.001 63.5s-31 24.5 -55 24.5c-40.667 0 -73.334 -16.667 -98.001 -50c29.333 -6 48 -21 56 -45c-38 -18.667 -60 -42.667 -66 -72l-9 -43c21.333 0 37.833 -7.33301 49.5 -22s15.167 -32.667 10.5 -54
c-4.66699 -20.667 -15.834 -38.334 -33.501 -53.001s-37.167 -22 -58.5 -22c-20.667 0 -36.834 7.33301 -48.501 22s-15.167 32.334 -10.5 53.001c3.33301 17.333 10.666 31.666 21.999 42.999l17 80c6 28 24.333 50 55 66c-14 11.333 -33.667 15.333 -59 12
c10.667 41.333 33.334 75.333 68.001 102c32.667 24.667 70.334 37 113.001 37c44.667 0 78.167 -12.667 100.5 -38s28.833 -60.333 19.5 -105l-26 -122c48.667 -16.667 84 -40 106 -70l61 288c8 37.333 23.667 61.666 47 72.999l55 -23c-22 -10 -37 -34.333 -45 -73z
M115.004 67.001c2 9.33301 0.333008 17.333 -5 24s-12.666 10 -21.999 10s-18 -3.33301 -26 -10s-13 -14.667 -15 -24s-0.333008 -17.333 5 -24s12.666 -10 21.999 -10s18 3.33301 26 10s13 14.667 15 24zM309.004 67.001c2 9.33301 0.333008 17.333 -5 24
s-12.666 10 -21.999 10s-18 -3.33301 -26 -10s-13 -14.667 -15 -24s-0.333008 -17.333 5 -24s12.666 -10 21.999 -10s18 3.33301 26 10s13 14.667 15 24z" />
    <glyph glyph-name="uni0E0D" unicode="&#xe0d;" horiz-adv-x="565" 
d="M467 -40c-10.667 -49.333 -29.999 -88.666 -57.999 -117.999c-31.333 -32.667 -72.333 -49 -123 -49c-32.667 0 -59 8.33301 -79 25c-22.667 19.333 -30.667 44.666 -24 75.999c4 20 14.333 36.833 31 50.5s35 20.5 55 20.5c19.333 0 34 -7 44 -21s13 -31 9 -51
c-6 -26 -20 -42.667 -42 -50c9.33301 -1.33301 15.666 -2 18.999 -2c56 0 94 39.667 114 119h54zM489.001 94c-6.66699 -33.333 -24.999 -59.332 -54.999 -77.999c-26 -16 -56 -24 -90 -24c-34.667 0 -61 8 -79 24c-20.667 18 -27.667 44 -21 78l37 171
c5.33301 26 1.66602 47.167 -11.001 63.5s-31 24.5 -55 24.5c-40.667 0 -73.334 -16.667 -98.001 -50c27.333 -5.33301 46 -20.333 56 -45c-38 -18.667 -60 -42.667 -66 -72l-10 -47c5.33301 2.66699 12 4 20 4c20.667 0 36.667 -7.16699 48 -21.5
s14.666 -32.166 9.99902 -53.499s-15.834 -39.333 -33.501 -54s-37.167 -22 -58.5 -22c-22 0 -39 7.66699 -51 23s-15.667 34.666 -11 57.999l25 117c6 28 24.333 50 55 66c-14 11.333 -33.667 15.333 -59 12c10.667 41.333 33.334 75.333 68.001 102
c32.667 24.667 70.334 37 113.001 37c44.667 0 78.167 -12.667 100.5 -38s28.833 -60.333 19.5 -105l-38 -179c-3.33301 -14 0.333984 -24.167 11.001 -30.5s24 -9.5 40 -9.5c15.333 0 30 3.16699 44 9.5s22.667 16.5 26 30.5l58 275c8 37.333 23.667 61.666 47 72.999
l55 -23c-22 -10 -37 -34.333 -45 -73zM285.002 -104.999c2 8.66699 0.668945 16 -3.99805 22s-11.667 9 -21 9s-17.5 -3 -24.5 -9s-11.5 -13.333 -13.5 -22s-0.833008 -16.167 3.5 -22.5s11.166 -9.5 20.499 -9.5s17.666 3.16699 24.999 9.5s12 13.833 14 22.5z
M135.004 67.001c2 9.33301 0.333008 17.333 -5 24s-12.666 10 -21.999 10s-18 -3.33301 -26 -10s-13 -14.667 -15 -24s-0.333008 -17.333 5 -24s12.666 -10 21.999 -10s18 3.33301 26 10s13 14.667 15 24z" />
    <glyph glyph-name="uni0E0E" unicode="&#xe0e;" horiz-adv-x="425" 
d="M281 -230l-63 -0.000976562c-1.33301 35.333 -26.333 63.333 -75 84c-16.667 -58.667 -48.667 -88 -96 -88c-22 0 -39.167 7 -51.5 21s-16.5 31.667 -12.5 53c10.667 47.333 47 71 109 71c9.33301 0 16.666 -0.333008 21.999 -1c6 12.667 11.667 22 17 28
c9.33301 10.667 21.666 20.334 36.999 29.001l37 -22c-23.333 -11.333 -39 -26.333 -47 -45c35.333 -13.333 61.333 -30 78 -50l88 415c5.33301 26.667 1 48.167 -13 64.5s-34.333 24.5 -61 24.5c-40.667 0 -74 -17 -100 -51c27.333 -5.33301 46.333 -20.333 57 -45
c-20 -10 -33.667 -18.333 -41 -25c-10.667 -10.667 -18 -25 -22 -43c-3.33301 -14.667 -6.16602 -35.834 -8.49902 -63.501s-4.83301 -47.167 -7.5 -58.5c-4.66699 -21.333 -15.667 -39.333 -33 -54s-36.333 -22 -57 -22c-21.333 0 -37.666 7.33301 -48.999 22
s-14.666 32.667 -9.99902 54c4.66699 20.667 15.667 38.334 33 53.001s36 22 56 22c8 0 12.667 -1 14 -3l7 62c5.33301 23.333 20.666 41.333 45.999 54c-15.333 11.333 -35 15.333 -59 12c10 41.333 32.667 75.333 68 102c34 24.667 72.667 37 116 37
c46.667 0 81.5 -13 104.5 -39s30.167 -60.667 21.5 -104zM100 -135.001c-6 2 -14 2.99902 -24 2.99902c-27.333 0 -43 -8 -47 -24c-4.66699 -21.333 4 -32 26 -32c12.667 1.33301 22.5 6.33301 29.5 15s12.167 21.334 15.5 38.001zM88 67.998
c2 9.33301 0.333008 17.333 -5 24s-12.666 10 -21.999 10s-18 -3.33301 -26 -10s-13 -14.667 -15 -24s-0.333008 -17.333 5 -24s12.666 -10 21.999 -10s18 3.33301 26 10s13 14.667 15 24z" />
    <glyph glyph-name="uni0E0F" unicode="&#xe0f;" horiz-adv-x="425" 
d="M52 -137c-6 3.33301 -15.001 5 -27.001 5c-20.667 0 -32.667 -9 -36 -27c-4 -16.667 2.33301 -25 19 -25c22.667 0 37.334 15.667 44.001 47zM87.999 68c2 9.33301 0.333008 17.333 -5 24s-12.666 10 -21.999 10s-18 -3.33301 -26 -10s-13 -14.667 -15 -24
s-0.333008 -17.333 5 -24s12.666 -10 21.999 -10s18 3.33301 26 10s13 14.667 15 24zM279.999 -231l-56.0029 0.00195312l-37 68l-64 -68l-32 63c-6.66699 -18.667 -18.667 -34.5 -36 -47.5s-34.666 -19.5 -51.999 -19.5c-21.333 0 -37.833 7.16699 -49.5 21.5
s-15.5 32.166 -11.5 53.499c10.667 49.333 44 74 100 74c12.667 0 21.667 -1 27 -3c12.667 24.667 34 44 64 58l26 -42c-26 -6.66699 -42.667 -20.334 -50 -41.001l29 -48l61 61l36 -54l89 420c5.33301 26.667 1 48.167 -13 64.5s-34.333 24.5 -61 24.5
c-40.667 0 -74 -17 -100 -51c27.333 -5.33301 46.333 -20.333 57 -45c-20 -10 -33.667 -18.333 -41 -25c-10.667 -10.667 -18 -25 -22 -43c-3.33301 -14.667 -6.16602 -35.834 -8.49902 -63.501s-4.83301 -47.167 -7.5 -58.5c-4.66699 -21.333 -15.667 -39.333 -33 -54
s-36.333 -22 -57 -22c-21.333 0 -37.666 7.33301 -48.999 22s-14.666 32.667 -9.99902 54c4.66699 20.667 15.667 38.334 33 53.001s36 22 56 22c8 0 12.667 -1 14 -3l7 62c5.33301 23.333 20.666 41.333 45.999 54c-15.333 11.333 -35 15.333 -59 12
c10 41.333 32.667 75.333 68 102c34 24.667 72.667 37 116 37c46.667 0 81.5 -13 104.5 -39s30.167 -60.667 21.5 -104z" />
    </font>
</defs>
</svg>
